<svg xmlns="http://www.w3.org/2000/svg" xmlns:xlink="http://www.w3.org/1999/xlink" width="50" zoomAndPan="magnify" viewBox="0 0 37.5 37.499999" height="50" preserveAspectRatio="xMidYMid meet" version="1.0"><defs><g/></defs><g fill="#00ffff" fill-opacity="1"><g transform="translate(6.322903, 16.496896)"><g><path d="M -3.800781 -3.296875 L -4.398438 -1.847656 L -3.390625 -1.429688 L -3.195312 -1.902344 L 0.207031 -0.503906 L 0.621094 -1.511719 L -2.070312 -2.621094 C -1.265625 -2.820312 -0.460938 -3.019531 0.347656 -3.226562 C -0.0859375 -3.933594 -0.511719 -4.648438 -0.941406 -5.359375 L 1.75 -4.253906 L 2.164062 -5.261719 L -2.246094 -7.078125 L -2.648438 -6.101562 C -2.210938 -5.367188 -1.769531 -4.640625 -1.328125 -3.914062 Z M -3.800781 -3.296875 "/></g></g></g><g fill="#00ffff" fill-opacity="1"><g transform="translate(8.913729, 11.085071)"><g><path d="M 0.933594 -1.085938 L -2.683594 -4.195312 L -3.394531 -3.367188 L 0.222656 -0.257812 Z M 0.933594 -1.085938 "/></g></g></g><g fill="#00ffff" fill-opacity="1"><g transform="translate(9.926731, 9.496885)"><g><path d="M 4.214844 -2.640625 L 3.636719 -3.5625 L 0.632812 -1.683594 L -0.738281 -3.878906 L 1.484375 -5.269531 L 1.84375 -4.691406 L 2.769531 -5.273438 L 2.191406 -6.195312 L 1.25 -6.410156 L -1.664062 -4.585938 L -1.882812 -3.644531 L -0.0742188 -0.757812 L 0.867188 -0.542969 Z M 4.214844 -2.640625 "/></g></g></g><g fill="#00ffff" fill-opacity="1"><g transform="translate(14.39503, 6.646697)"><g><path d="M 5.136719 -0.664062 L 4.523438 -5.394531 L 3.441406 -5.253906 L 3.679688 -3.429688 L 1.246094 -3.117188 L 1.007812 -4.941406 L -0.578125 -4.734375 L -0.4375 -3.652344 L 0.0664062 -3.71875 L 0.539062 -0.0703125 L 1.621094 -0.210938 L 1.386719 -2.035156 L 3.820312 -2.351562 L 4.054688 -0.523438 Z M 5.136719 -0.664062 "/></g></g></g><g fill="#00ffff" fill-opacity="1"><g transform="translate(19.677918, 5.925295)"><g><path d="M 4.914062 1.53125 L 6.128906 -2.375 L 5.679688 -3.226562 L 1.90625 -4.402344 L 1.582031 -3.363281 L 4.964844 -2.308594 L 4.742188 -1.59375 L 1.847656 -2.492188 L 0.992188 -2.046875 L 0.527344 -0.550781 L 0.976562 0.304688 L 3.546875 1.105469 L 3.871094 0.0625 L 1.691406 -0.617188 L 1.914062 -1.332031 L 4.417969 -0.550781 L 4.074219 0.554688 L 4.523438 1.410156 Z M 4.914062 1.53125 "/></g></g></g><g fill="#00ffff" fill-opacity="1"><g transform="translate(24.750813, 7.462847)"><g><path d="M 3.703125 3.324219 L 4.429688 2.511719 L 1.792969 0.144531 L 3.523438 -1.78125 L 5.476562 -0.03125 L 4.929688 0.578125 L 3.230469 -0.945312 L 2.503906 -0.136719 L 4.503906 1.664062 L 5.46875 1.609375 L 6.558594 0.394531 L 6.507812 -0.570312 L 3.945312 -2.867188 L 2.984375 -2.816406 L 0.707031 -0.28125 L 0.761719 0.683594 Z M 3.703125 3.324219 "/></g></g></g><g fill="#00ffff" fill-opacity="1"><g transform="translate(28.688764, 11.051757)"><g><path d="M 1.980469 4.265625 L 2.96875 3.804688 L 1.675781 1.023438 L 5.015625 -0.523438 L 4.339844 -1.976562 L 3.351562 -1.519531 L 3.566406 -1.054688 L 0.230469 0.496094 Z M 1.980469 4.265625 "/></g></g></g><g fill="#00ffff" fill-opacity="1"><g transform="translate(30.555802, 15.455723)"><g/></g></g><g fill="#00ffff" fill-opacity="1"><g transform="translate(31.067304, 18.190525)"><g><path d="M -0.566406 2.953125 L 3.046875 3.644531 L 2.695312 5.492188 L 3.765625 5.695312 L 4.679688 0.929688 L 3.609375 0.726562 L 3.253906 2.574219 L -0.359375 1.878906 Z M -0.566406 2.953125 "/></g></g></g><g fill="#00ffff" fill-opacity="1"><g transform="translate(30.258571, 22.900735)"><g><path d="M -2.925781 4.273438 L 1.011719 6.96875 L 1.625 6.070312 L 0.109375 5.03125 L 1.492188 3.003906 L 3.011719 4.042969 L 3.917969 2.722656 L 3.015625 2.105469 L 2.726562 2.527344 L -0.308594 0.449219 L -0.925781 1.347656 L 0.59375 2.390625 L -0.792969 4.414062 L -2.308594 3.375 Z M -2.925781 4.273438 "/></g></g></g><g fill="#00ffff" fill-opacity="1"><g transform="translate(27.297043, 27.328265)"><g><path d="M -3.988281 2.359375 L -4.230469 3.292969 L -2.496094 6.226562 L -1.5625 6.464844 L 1.546875 4.625 L 1.789062 3.691406 L 0.0546875 0.761719 L -0.878906 0.519531 Z M -3.082031 3.089844 L -0.675781 1.667969 L 0.640625 3.894531 L -1.765625 5.316406 Z M -3.082031 3.089844 "/></g></g></g><g fill="#00ffff" fill-opacity="1"><g transform="translate(22.660481, 30.176931)"><g><path d="M -1.21875 4.882812 L 0.34375 4.757812 L 0.257812 3.671875 L -0.25 3.710938 L -0.542969 0.0429688 L -1.628906 0.128906 L -1.398438 3.03125 C -1.941406 2.402344 -2.484375 1.777344 -3.03125 1.152344 C -3.46875 1.855469 -3.910156 2.5625 -4.355469 3.265625 L -4.585938 0.367188 L -5.671875 0.453125 L -5.292969 5.207031 L -4.238281 5.125 C -3.785156 4.402344 -3.335938 3.675781 -2.886719 2.957031 Z M -1.21875 4.882812 "/></g></g></g><g fill="#00ffff" fill-opacity="1"><g transform="translate(16.864422, 30.597122)"><g><path d="M -3.921875 -1.472656 L -4.800781 -1.074219 L -5.351562 0.390625 L -4.953125 1.269531 L -2.371094 2.238281 L -2.632812 2.941406 L -5.855469 1.730469 L -6.238281 2.753906 L -2.632812 4.105469 L -1.757812 3.707031 L -1.207031 2.242188 L -1.605469 1.363281 L -4.1875 0.394531 L -3.925781 -0.308594 L -0.703125 0.902344 L -0.320312 -0.121094 Z M -3.921875 -1.472656 "/></g></g></g><g fill="#00ffff" fill-opacity="1"><g transform="translate(12.112967, 28.902995)"><g><path d="M -3.277344 -3.277344 L -4.242188 -3.277344 L -6.648438 -0.867188 L -6.648438 0.0976562 L -4.09375 2.652344 L -3.132812 2.652344 L -0.722656 0.242188 L -0.722656 -0.722656 Z M -3.757812 -2.214844 L -1.78125 -0.242188 L -3.613281 1.589844 L -5.589844 -0.382812 Z M -3.757812 -2.214844 "/></g></g></g><g fill="#00ffff" fill-opacity="1"><g transform="translate(8.253404, 25.029829)"><g><path d="M -1.707031 -4.527344 L -6.171875 -2.84375 L -5.785156 -1.824219 L -3.042969 -2.855469 L -5.039062 0.152344 L -4.476562 1.652344 L -3.453125 1.265625 L -3.636719 0.789062 L -0.191406 -0.511719 L -0.578125 -1.53125 L -3.3125 -0.496094 L -1.324219 -3.507812 Z M -1.707031 -4.527344 "/></g></g></g><g fill="#ff00ff" fill-opacity="1"><g transform="translate(6.322903, 17.348745)"><g><path d="M -3.800781 -3.296875 L -4.398438 -1.847656 L -3.390625 -1.429688 L -3.195312 -1.902344 L 0.207031 -0.503906 L 0.621094 -1.511719 L -2.070312 -2.621094 C -1.265625 -2.820312 -0.460938 -3.019531 0.347656 -3.226562 C -0.0859375 -3.933594 -0.511719 -4.648438 -0.941406 -5.359375 L 1.75 -4.253906 L 2.164062 -5.261719 L -2.246094 -7.078125 L -2.648438 -6.101562 C -2.210938 -5.367188 -1.769531 -4.640625 -1.328125 -3.914062 Z M -3.800781 -3.296875 "/></g></g></g><g fill="#ff00ff" fill-opacity="1"><g transform="translate(8.913729, 11.936918)"><g><path d="M 0.933594 -1.085938 L -2.683594 -4.195312 L -3.394531 -3.367188 L 0.222656 -0.257812 Z M 0.933594 -1.085938 "/></g></g></g><g fill="#ff00ff" fill-opacity="1"><g transform="translate(9.926731, 10.348732)"><g><path d="M 4.214844 -2.640625 L 3.636719 -3.5625 L 0.632812 -1.683594 L -0.738281 -3.878906 L 1.484375 -5.269531 L 1.84375 -4.691406 L 2.769531 -5.273438 L 2.191406 -6.195312 L 1.25 -6.410156 L -1.664062 -4.585938 L -1.882812 -3.644531 L -0.0742188 -0.757812 L 0.867188 -0.542969 Z M 4.214844 -2.640625 "/></g></g></g><g fill="#ff00ff" fill-opacity="1"><g transform="translate(14.39503, 7.498545)"><g><path d="M 5.136719 -0.664062 L 4.523438 -5.394531 L 3.441406 -5.253906 L 3.679688 -3.429688 L 1.246094 -3.117188 L 1.007812 -4.941406 L -0.578125 -4.734375 L -0.4375 -3.652344 L 0.0664062 -3.71875 L 0.539062 -0.0703125 L 1.621094 -0.210938 L 1.386719 -2.035156 L 3.820312 -2.351562 L 4.054688 -0.523438 Z M 5.136719 -0.664062 "/></g></g></g><g fill="#ff00ff" fill-opacity="1"><g transform="translate(19.677918, 6.777142)"><g><path d="M 4.914062 1.53125 L 6.128906 -2.375 L 5.679688 -3.226562 L 1.90625 -4.402344 L 1.582031 -3.363281 L 4.964844 -2.308594 L 4.742188 -1.59375 L 1.847656 -2.492188 L 0.992188 -2.046875 L 0.527344 -0.550781 L 0.976562 0.304688 L 3.546875 1.105469 L 3.871094 0.0625 L 1.691406 -0.617188 L 1.914062 -1.332031 L 4.417969 -0.550781 L 4.074219 0.554688 L 4.523438 1.410156 Z M 4.914062 1.53125 "/></g></g></g><g fill="#ff00ff" fill-opacity="1"><g transform="translate(24.750813, 8.314695)"><g><path d="M 3.703125 3.324219 L 4.429688 2.511719 L 1.792969 0.144531 L 3.523438 -1.78125 L 5.476562 -0.03125 L 4.929688 0.578125 L 3.230469 -0.945312 L 2.503906 -0.136719 L 4.503906 1.664062 L 5.46875 1.609375 L 6.558594 0.394531 L 6.507812 -0.570312 L 3.945312 -2.867188 L 2.984375 -2.816406 L 0.707031 -0.28125 L 0.761719 0.683594 Z M 3.703125 3.324219 "/></g></g></g><g fill="#ff00ff" fill-opacity="1"><g transform="translate(28.688764, 11.903604)"><g><path d="M 1.980469 4.265625 L 2.96875 3.804688 L 1.675781 1.023438 L 5.015625 -0.523438 L 4.339844 -1.976562 L 3.351562 -1.519531 L 3.566406 -1.054688 L 0.230469 0.496094 Z M 1.980469 4.265625 "/></g></g></g><g fill="#ff00ff" fill-opacity="1"><g transform="translate(30.555802, 16.30757)"><g/></g></g><g fill="#ff00ff" fill-opacity="1"><g transform="translate(31.067304, 19.042374)"><g><path d="M -0.566406 2.953125 L 3.046875 3.644531 L 2.695312 5.492188 L 3.765625 5.695312 L 4.679688 0.929688 L 3.609375 0.726562 L 3.253906 2.574219 L -0.359375 1.878906 Z M -0.566406 2.953125 "/></g></g></g><g fill="#ff00ff" fill-opacity="1"><g transform="translate(30.258571, 23.752583)"><g><path d="M -2.925781 4.273438 L 1.011719 6.96875 L 1.625 6.070312 L 0.109375 5.03125 L 1.492188 3.003906 L 3.011719 4.042969 L 3.917969 2.722656 L 3.015625 2.105469 L 2.726562 2.527344 L -0.308594 0.449219 L -0.925781 1.347656 L 0.59375 2.390625 L -0.792969 4.414062 L -2.308594 3.375 Z M -2.925781 4.273438 "/></g></g></g><g fill="#ff00ff" fill-opacity="1"><g transform="translate(27.297043, 28.18011)"><g><path d="M -3.988281 2.359375 L -4.230469 3.292969 L -2.496094 6.226562 L -1.5625 6.464844 L 1.546875 4.625 L 1.789062 3.691406 L 0.0546875 0.761719 L -0.878906 0.519531 Z M -3.082031 3.089844 L -0.675781 1.667969 L 0.640625 3.894531 L -1.765625 5.316406 Z M -3.082031 3.089844 "/></g></g></g><g fill="#ff00ff" fill-opacity="1"><g transform="translate(22.660481, 31.028776)"><g><path d="M -1.21875 4.882812 L 0.34375 4.757812 L 0.257812 3.671875 L -0.25 3.710938 L -0.542969 0.0429688 L -1.628906 0.128906 L -1.398438 3.03125 C -1.941406 2.402344 -2.484375 1.777344 -3.03125 1.152344 C -3.46875 1.855469 -3.910156 2.5625 -4.355469 3.265625 L -4.585938 0.367188 L -5.671875 0.453125 L -5.292969 5.207031 L -4.238281 5.125 C -3.785156 4.402344 -3.335938 3.675781 -2.886719 2.957031 Z M -1.21875 4.882812 "/></g></g></g><g fill="#ff00ff" fill-opacity="1"><g transform="translate(16.864422, 31.448967)"><g><path d="M -3.921875 -1.472656 L -4.800781 -1.074219 L -5.351562 0.390625 L -4.953125 1.269531 L -2.371094 2.238281 L -2.632812 2.941406 L -5.855469 1.730469 L -6.238281 2.753906 L -2.632812 4.105469 L -1.757812 3.707031 L -1.207031 2.242188 L -1.605469 1.363281 L -4.1875 0.394531 L -3.925781 -0.308594 L -0.703125 0.902344 L -0.320312 -0.121094 Z M -3.921875 -1.472656 "/></g></g></g><g fill="#ff00ff" fill-opacity="1"><g transform="translate(12.112967, 29.75484)"><g><path d="M -3.277344 -3.277344 L -4.242188 -3.277344 L -6.648438 -0.867188 L -6.648438 0.0976562 L -4.09375 2.652344 L -3.132812 2.652344 L -0.722656 0.242188 L -0.722656 -0.722656 Z M -3.757812 -2.214844 L -1.78125 -0.242188 L -3.613281 1.589844 L -5.589844 -0.382812 Z M -3.757812 -2.214844 "/></g></g></g><g fill="#ff00ff" fill-opacity="1"><g transform="translate(8.253404, 25.881678)"><g><path d="M -1.707031 -4.527344 L -6.171875 -2.84375 L -5.785156 -1.824219 L -3.042969 -2.855469 L -5.039062 0.152344 L -4.476562 1.652344 L -3.453125 1.265625 L -3.636719 0.789062 L -0.191406 -0.511719 L -0.578125 -1.53125 L -3.3125 -0.496094 L -1.324219 -3.507812 Z M -1.707031 -4.527344 "/></g></g></g><g fill="#6371c7" fill-opacity="1"><g transform="translate(6.322903, 16.92282)"><g><path d="M -3.800781 -3.296875 L -4.398438 -1.847656 L -3.390625 -1.429688 L -3.195312 -1.902344 L 0.207031 -0.503906 L 0.621094 -1.511719 L -2.070312 -2.621094 C -1.265625 -2.820312 -0.460938 -3.019531 0.347656 -3.226562 C -0.0859375 -3.933594 -0.511719 -4.648438 -0.941406 -5.359375 L 1.75 -4.253906 L 2.164062 -5.261719 L -2.246094 -7.078125 L -2.648438 -6.101562 C -2.210938 -5.367188 -1.769531 -4.640625 -1.328125 -3.914062 Z M -3.800781 -3.296875 "/></g></g></g><g fill="#6371c7" fill-opacity="1"><g transform="translate(8.913729, 11.510994)"><g><path d="M 0.933594 -1.085938 L -2.683594 -4.195312 L -3.394531 -3.367188 L 0.222656 -0.257812 Z M 0.933594 -1.085938 "/></g></g></g><g fill="#6371c7" fill-opacity="1"><g transform="translate(9.926731, 9.922809)"><g><path d="M 4.214844 -2.640625 L 3.636719 -3.5625 L 0.632812 -1.683594 L -0.738281 -3.878906 L 1.484375 -5.269531 L 1.84375 -4.691406 L 2.769531 -5.273438 L 2.191406 -6.195312 L 1.25 -6.410156 L -1.664062 -4.585938 L -1.882812 -3.644531 L -0.0742188 -0.757812 L 0.867188 -0.542969 Z M 4.214844 -2.640625 "/></g></g></g><g fill="#6371c7" fill-opacity="1"><g transform="translate(14.39503, 7.072621)"><g><path d="M 5.136719 -0.664062 L 4.523438 -5.394531 L 3.441406 -5.253906 L 3.679688 -3.429688 L 1.246094 -3.117188 L 1.007812 -4.941406 L -0.578125 -4.734375 L -0.4375 -3.652344 L 0.0664062 -3.71875 L 0.539062 -0.0703125 L 1.621094 -0.210938 L 1.386719 -2.035156 L 3.820312 -2.351562 L 4.054688 -0.523438 Z M 5.136719 -0.664062 "/></g></g></g><g fill="#6371c7" fill-opacity="1"><g transform="translate(19.677918, 6.351218)"><g><path d="M 4.914062 1.53125 L 6.128906 -2.375 L 5.679688 -3.226562 L 1.90625 -4.402344 L 1.582031 -3.363281 L 4.964844 -2.308594 L 4.742188 -1.59375 L 1.847656 -2.492188 L 0.992188 -2.046875 L 0.527344 -0.550781 L 0.976562 0.304688 L 3.546875 1.105469 L 3.871094 0.0625 L 1.691406 -0.617188 L 1.914062 -1.332031 L 4.417969 -0.550781 L 4.074219 0.554688 L 4.523438 1.410156 Z M 4.914062 1.53125 "/></g></g></g><g fill="#6371c7" fill-opacity="1"><g transform="translate(24.750813, 7.888771)"><g><path d="M 3.703125 3.324219 L 4.429688 2.511719 L 1.792969 0.144531 L 3.523438 -1.78125 L 5.476562 -0.03125 L 4.929688 0.578125 L 3.230469 -0.945312 L 2.503906 -0.136719 L 4.503906 1.664062 L 5.46875 1.609375 L 6.558594 0.394531 L 6.507812 -0.570312 L 3.945312 -2.867188 L 2.984375 -2.816406 L 0.707031 -0.28125 L 0.761719 0.683594 Z M 3.703125 3.324219 "/></g></g></g><g fill="#6371c7" fill-opacity="1"><g transform="translate(28.688764, 11.47768)"><g><path d="M 1.980469 4.265625 L 2.96875 3.804688 L 1.675781 1.023438 L 5.015625 -0.523438 L 4.339844 -1.976562 L 3.351562 -1.519531 L 3.566406 -1.054688 L 0.230469 0.496094 Z M 1.980469 4.265625 "/></g></g></g><g fill="#6371c7" fill-opacity="1"><g transform="translate(30.555802, 15.881646)"><g/></g></g><g fill="#6371c7" fill-opacity="1"><g transform="translate(31.067304, 18.61645)"><g><path d="M -0.566406 2.953125 L 3.046875 3.644531 L 2.695312 5.492188 L 3.765625 5.695312 L 4.679688 0.929688 L 3.609375 0.726562 L 3.253906 2.574219 L -0.359375 1.878906 Z M -0.566406 2.953125 "/></g></g></g><g fill="#6371c7" fill-opacity="1"><g transform="translate(30.258571, 23.326661)"><g><path d="M -2.925781 4.273438 L 1.011719 6.96875 L 1.625 6.070312 L 0.109375 5.03125 L 1.492188 3.003906 L 3.011719 4.042969 L 3.917969 2.722656 L 3.015625 2.105469 L 2.726562 2.527344 L -0.308594 0.449219 L -0.925781 1.347656 L 0.59375 2.390625 L -0.792969 4.414062 L -2.308594 3.375 Z M -2.925781 4.273438 "/></g></g></g><g fill="#6371c7" fill-opacity="1"><g transform="translate(27.297043, 27.754187)"><g><path d="M -3.988281 2.359375 L -4.230469 3.292969 L -2.496094 6.226562 L -1.5625 6.464844 L 1.546875 4.625 L 1.789062 3.691406 L 0.0546875 0.761719 L -0.878906 0.519531 Z M -3.082031 3.089844 L -0.675781 1.667969 L 0.640625 3.894531 L -1.765625 5.316406 Z M -3.082031 3.089844 "/></g></g></g><g fill="#6371c7" fill-opacity="1"><g transform="translate(22.660481, 30.602854)"><g><path d="M -1.21875 4.882812 L 0.34375 4.757812 L 0.257812 3.671875 L -0.25 3.710938 L -0.542969 0.0429688 L -1.628906 0.128906 L -1.398438 3.03125 C -1.941406 2.402344 -2.484375 1.777344 -3.03125 1.152344 C -3.46875 1.855469 -3.910156 2.5625 -4.355469 3.265625 L -4.585938 0.367188 L -5.671875 0.453125 L -5.292969 5.207031 L -4.238281 5.125 C -3.785156 4.402344 -3.335938 3.675781 -2.886719 2.957031 Z M -1.21875 4.882812 "/></g></g></g><g fill="#6371c7" fill-opacity="1"><g transform="translate(16.864422, 31.023045)"><g><path d="M -3.921875 -1.472656 L -4.800781 -1.074219 L -5.351562 0.390625 L -4.953125 1.269531 L -2.371094 2.238281 L -2.632812 2.941406 L -5.855469 1.730469 L -6.238281 2.753906 L -2.632812 4.105469 L -1.757812 3.707031 L -1.207031 2.242188 L -1.605469 1.363281 L -4.1875 0.394531 L -3.925781 -0.308594 L -0.703125 0.902344 L -0.320312 -0.121094 Z M -3.921875 -1.472656 "/></g></g></g><g fill="#6371c7" fill-opacity="1"><g transform="translate(12.112967, 29.328917)"><g><path d="M -3.277344 -3.277344 L -4.242188 -3.277344 L -6.648438 -0.867188 L -6.648438 0.0976562 L -4.09375 2.652344 L -3.132812 2.652344 L -0.722656 0.242188 L -0.722656 -0.722656 Z M -3.757812 -2.214844 L -1.78125 -0.242188 L -3.613281 1.589844 L -5.589844 -0.382812 Z M -3.757812 -2.214844 "/></g></g></g><g fill="#6371c7" fill-opacity="1"><g transform="translate(8.253404, 25.455752)"><g><path d="M -1.707031 -4.527344 L -6.171875 -2.84375 L -5.785156 -1.824219 L -3.042969 -2.855469 L -5.039062 0.152344 L -4.476562 1.652344 L -3.453125 1.265625 L -3.636719 0.789062 L -0.191406 -0.511719 L -0.578125 -1.53125 L -3.3125 -0.496094 L -1.324219 -3.507812 Z M -1.707031 -4.527344 "/></g></g></g></svg>