<svg xmlns="http://www.w3.org/2000/svg" xmlns:xlink="http://www.w3.org/1999/xlink" width="300" zoomAndPan="magnify" viewBox="0 0 224.87999 428.250001" height="571" preserveAspectRatio="xMidYMid meet" version="1.0"><defs><clipPath id="8f76e17492"><path d="M 2 2 L 224.625 2 L 224.625 426 L 2 426 Z M 2 2 " clip-rule="nonzero"/></clipPath></defs><g clip-path="url(#8f76e17492)"><path fill="#ffffff" d="M 213.625 2.449219 C 214.726562 2.445312 215.804688 2.605469 216.855469 2.921875 C 217.910156 3.242188 218.894531 3.707031 219.8125 4.316406 C 220.726562 4.925781 221.535156 5.660156 222.234375 6.507812 C 222.933594 7.359375 223.492188 8.292969 223.914062 9.3125 C 224.335938 10.328125 224.601562 11.386719 224.710938 12.480469 C 224.816406 13.578125 224.765625 14.664062 224.546875 15.746094 C 224.332031 16.824219 223.964844 17.851562 223.445312 18.820312 C 222.925781 19.792969 222.277344 20.664062 221.496094 21.441406 L 29.625 213.742188 L 221.496094 406.0625 C 222.027344 406.574219 222.5 407.136719 222.917969 407.746094 C 223.339844 408.351562 223.691406 408.996094 223.984375 409.675781 C 224.273438 410.355469 224.492188 411.054688 224.644531 411.777344 C 224.796875 412.5 224.875 413.230469 224.878906 413.96875 C 224.882812 414.707031 224.816406 415.4375 224.675781 416.164062 C 224.535156 416.886719 224.324219 417.59375 224.046875 418.273438 C 223.765625 418.957031 223.417969 419.605469 223.011719 420.222656 C 222.601562 420.835938 222.132812 421.402344 221.613281 421.925781 C 221.089844 422.445312 220.519531 422.910156 219.90625 423.316406 C 219.289062 423.726562 218.640625 424.070312 217.957031 424.347656 C 217.273438 424.625 216.566406 424.835938 215.84375 424.972656 C 215.117188 425.113281 214.386719 425.175781 213.648438 425.167969 C 212.910156 425.164062 212.179688 425.082031 211.457031 424.929688 C 210.734375 424.777344 210.035156 424.554688 209.359375 424.261719 C 208.679688 423.96875 208.039062 423.613281 207.429688 423.191406 C 206.824219 422.773438 206.265625 422.296875 205.75 421.765625 L 6.050781 221.59375 C 5.539062 221.078125 5.078125 220.515625 4.675781 219.910156 C 4.269531 219.300781 3.929688 218.664062 3.652344 217.988281 C 3.371094 217.316406 3.164062 216.621094 3.019531 215.90625 C 2.878906 215.191406 2.808594 214.46875 2.808594 213.742188 C 2.808594 213.011719 2.878906 212.289062 3.019531 211.574219 C 3.164062 210.859375 3.371094 210.167969 3.652344 209.492188 C 3.929688 208.820312 4.269531 208.179688 4.675781 207.574219 C 5.078125 206.96875 5.539062 206.40625 6.050781 205.890625 L 205.75 5.71875 C 206.796875 4.671875 208 3.863281 209.363281 3.296875 C 210.726562 2.730469 212.148438 2.449219 213.625 2.449219 Z M 213.625 2.449219 " fill-opacity="1" fill-rule="nonzero"/></g></svg>