<svg xmlns="http://www.w3.org/2000/svg" xmlns:xlink="http://www.w3.org/1999/xlink" width="800" zoomAndPan="magnify" viewBox="0 0 600 30.000001" height="40" preserveAspectRatio="xMidYMid meet" version="1.0"><defs><g/></defs><g fill="#ffffff" fill-opacity="1"><g transform="translate(131.826301, 26.970953)"><g><path d="M 14.8125 -22.402344 L 23.550781 -0.699219 L 19.433594 -0.699219 L 17.894531 -4.84375 C 17.78125 -5.125 17.53125 -5.320312 17.25 -5.320312 L 8.457031 -5.320312 C 8.148438 -5.320312 7.898438 -5.125 7.785156 -4.84375 L 6.246094 -0.699219 L 2.128906 -0.699219 L 10.867188 -22.402344 Z M 15.933594 -23.355469 C 15.820312 -23.605469 15.570312 -23.804688 15.289062 -23.804688 L 10.417969 -23.804688 C 10.136719 -23.804688 9.855469 -23.605469 9.746094 -23.355469 L 0.421875 -0.253906 C 0 0.8125 1.09375 0.699219 1.09375 0.699219 L 6.75 0.699219 C 7.027344 0.699219 7.28125 0.53125 7.394531 0.253906 L 8.933594 -3.921875 L 16.746094 -3.921875 L 18.285156 0.253906 C 18.398438 0.53125 18.652344 0.699219 18.957031 0.699219 L 24.613281 0.699219 C 25.734375 0.699219 25.257812 -0.253906 25.257812 -0.253906 Z M 16.101562 -9.492188 L 13.46875 -16.214844 C 13.46875 -16.214844 12.628906 -17.472656 12.152344 -16.1875 L 9.578125 -9.464844 C 9.578125 -9.464844 9.128906 -8.542969 10.25 -8.542969 L 15.457031 -8.542969 C 15.457031 -8.542969 16.492188 -8.429688 16.101562 -9.492188 Z M 14.421875 -9.941406 L 11.257812 -9.941406 L 12.824219 -14 Z M 14.421875 -9.941406 "/></g></g></g><g fill="#ffffff" fill-opacity="1"><g transform="translate(165.203803, 26.970953)"><g/></g></g><g fill="#ffffff" fill-opacity="1"><g transform="translate(176.939531, 26.970953)"><g><path d="M 14.394531 -22.402344 L 14.394531 -19.183594 L 7 -19.183594 C 6.554688 -19.183594 6.300781 -18.761719 6.300781 -18.480469 L 6.300781 -13.890625 C 6.300781 -13.441406 6.691406 -13.191406 7 -13.191406 L 13.777344 -13.191406 L 13.777344 -9.96875 L 7 -9.96875 C 6.554688 -9.96875 6.300781 -9.550781 6.300781 -9.269531 L 6.300781 -0.699219 L 2.4375 -0.699219 L 2.4375 -22.402344 Z M 15.792969 -23.101562 C 15.792969 -23.382812 15.515625 -23.804688 15.09375 -23.804688 L 1.734375 -23.804688 C 1.429688 -23.804688 1.035156 -23.523438 1.035156 -23.101562 L 1.035156 0 C 1.035156 0.308594 1.289062 0.699219 1.734375 0.699219 L 7 0.699219 C 7.28125 0.699219 7.699219 0.449219 7.699219 0 L 7.699219 -8.570312 L 14.476562 -8.570312 C 14.757812 -8.570312 15.179688 -8.820312 15.179688 -9.269531 L 15.179688 -13.890625 C 15.179688 -14.167969 14.898438 -14.589844 14.476562 -14.589844 L 7.699219 -14.589844 L 7.699219 -17.78125 L 15.09375 -17.78125 C 15.375 -17.78125 15.792969 -18.035156 15.792969 -18.480469 Z M 15.792969 -23.101562 "/></g></g></g><g fill="#ffffff" fill-opacity="1"><g transform="translate(201.049979, 26.970953)"><g><path d="M 14.253906 -22.402344 L 14.253906 -19.183594 L 7 -19.183594 C 6.554688 -19.183594 6.300781 -18.761719 6.300781 -18.480469 L 6.300781 -13.890625 C 6.300781 -13.441406 6.691406 -13.191406 7 -13.191406 L 13.917969 -13.191406 L 13.917969 -9.96875 L 7 -9.96875 C 6.554688 -9.96875 6.300781 -9.550781 6.300781 -9.269531 L 6.300781 -4.621094 C 6.300781 -4.171875 6.691406 -3.921875 7 -3.921875 L 14.253906 -3.921875 L 14.253906 -0.699219 L 2.4375 -0.699219 L 2.4375 -22.402344 Z M 15.652344 -23.101562 C 15.652344 -23.382812 15.375 -23.804688 14.953125 -23.804688 L 1.734375 -23.804688 C 1.429688 -23.804688 1.035156 -23.523438 1.035156 -23.101562 L 1.035156 0 C 1.035156 0.308594 1.289062 0.699219 1.734375 0.699219 L 14.953125 0.699219 C 15.234375 0.699219 15.652344 0.449219 15.652344 0 L 15.652344 -4.621094 C 15.652344 -4.902344 15.375 -5.320312 14.953125 -5.320312 L 7.699219 -5.320312 L 7.699219 -8.570312 L 14.617188 -8.570312 C 14.898438 -8.570312 15.316406 -8.820312 15.316406 -9.269531 L 15.316406 -13.890625 C 15.316406 -14.167969 15.039062 -14.589844 14.617188 -14.589844 L 7.699219 -14.589844 L 7.699219 -17.78125 L 14.953125 -17.78125 C 15.234375 -17.78125 15.652344 -18.035156 15.652344 -18.480469 Z M 15.652344 -23.101562 "/></g></g></g><g fill="#ffffff" fill-opacity="1"><g transform="translate(225.216428, 26.970953)"><g><path d="M 21.394531 -0.699219 L 17.867188 -13.132812 C 17.867188 -13.132812 16.832031 -14.308594 16.492188 -13.132812 L 12.964844 -0.699219 L 8.148438 -0.699219 L 1.988281 -22.402344 L 6.355469 -22.402344 L 10.164062 -7.058594 C 10.25 -6.75 10.558594 -6.554688 10.867188 -6.554688 L 11.003906 -6.554688 C 11.3125 -6.554688 11.59375 -6.804688 11.675781 -7.058594 L 15.738281 -22.402344 L 18.621094 -22.402344 L 22.683594 -7.058594 C 22.765625 -6.75 23.101562 -6.554688 23.382812 -6.554688 L 23.523438 -6.554688 C 23.832031 -6.554688 24.109375 -6.804688 24.195312 -7.058594 L 28.003906 -22.402344 L 32.34375 -22.402344 L 26.183594 -0.699219 Z M 20.191406 0.195312 C 20.273438 0.503906 20.554688 0.699219 20.890625 0.699219 L 26.714844 0.699219 C 26.996094 0.699219 27.277344 0.503906 27.386719 0.195312 L 33.96875 -22.90625 C 34.21875 -23.832031 33.351562 -23.804688 33.296875 -23.804688 L 27.472656 -23.804688 C 27.164062 -23.804688 26.855469 -23.578125 26.769531 -23.269531 L 23.410156 -9.773438 L 19.855469 -23.269531 C 19.769531 -23.523438 19.492188 -23.804688 19.183594 -23.804688 L 15.207031 -23.804688 C 14.925781 -23.804688 14.589844 -23.578125 14.507812 -23.269531 L 10.949219 -9.773438 L 7.589844 -23.269531 C 7.503906 -23.523438 7.226562 -23.804688 6.917969 -23.804688 L 1.0625 -23.804688 C 0.0859375 -23.804688 0.363281 -22.964844 0.363281 -22.90625 L 6.945312 0.195312 C 7.027344 0.503906 7.308594 0.699219 7.644531 0.699219 L 13.496094 0.699219 C 13.777344 0.699219 14.058594 0.503906 14.167969 0.195312 L 17.195312 -10.390625 Z M 20.191406 0.195312 "/></g></g></g><g fill="#ffffff" fill-opacity="1"><g transform="translate(267.301021, 26.970953)"><g/></g></g><g fill="#ffffff" fill-opacity="1"><g transform="translate(279.036749, 26.970953)"><g><path d="M 2.4375 -22.402344 L 10.164062 -22.402344 C 14.421875 -22.402344 17.363281 -20.300781 17.363281 -15.988281 C 17.363281 -12.992188 15.960938 -11.003906 13.804688 -9.996094 C 13.554688 -9.886719 13.160156 -9.519531 13.527344 -8.988281 L 18.988281 -0.699219 L 14.871094 -0.699219 L 9.4375 -8.933594 C 9.324219 -9.128906 9.074219 -9.269531 8.878906 -9.269531 L 7 -9.269531 C 6.554688 -9.269531 6.300781 -8.847656 6.300781 -8.570312 L 6.300781 -0.699219 L 2.4375 -0.699219 Z M 1.734375 -23.804688 C 1.429688 -23.804688 1.035156 -23.523438 1.035156 -23.101562 L 1.035156 0 C 1.035156 0.308594 1.289062 0.699219 1.734375 0.699219 L 7 0.699219 C 7.28125 0.699219 7.699219 0.449219 7.699219 0 L 7.699219 -7.867188 L 8.484375 -7.867188 L 13.917969 0.390625 C 14.03125 0.589844 14.253906 0.699219 14.507812 0.699219 L 20.300781 0.699219 C 21.648438 0.699219 20.863281 -0.363281 20.863281 -0.363281 L 15.121094 -9.101562 C 17.335938 -10.445312 18.761719 -12.824219 18.761719 -15.988281 C 18.761719 -21.226562 14.898438 -23.804688 10.164062 -23.804688 Z M 7 -12.070312 L 8.484375 -12.070312 C 10.613281 -12.070312 13.21875 -12.882812 13.21875 -15.820312 C 13.21875 -18.761719 10.640625 -19.601562 8.484375 -19.601562 L 7 -19.601562 C 6.554688 -19.601562 6.300781 -19.183594 6.300781 -18.902344 L 6.300781 -12.769531 C 6.300781 -12.320312 6.691406 -12.070312 7 -12.070312 Z M 7.699219 -13.46875 L 7.699219 -18.203125 L 8.484375 -18.203125 C 10.445312 -18.203125 11.816406 -17.613281 11.816406 -15.820312 C 11.816406 -14.03125 10.472656 -13.46875 8.484375 -13.46875 Z M 7.699219 -13.46875 "/></g></g></g><g fill="#ffffff" fill-opacity="1"><g transform="translate(308.018696, 26.970953)"><g><path d="M 14.253906 -22.402344 L 14.253906 -19.183594 L 7 -19.183594 C 6.554688 -19.183594 6.300781 -18.761719 6.300781 -18.480469 L 6.300781 -13.890625 C 6.300781 -13.441406 6.691406 -13.191406 7 -13.191406 L 13.917969 -13.191406 L 13.917969 -9.96875 L 7 -9.96875 C 6.554688 -9.96875 6.300781 -9.550781 6.300781 -9.269531 L 6.300781 -4.621094 C 6.300781 -4.171875 6.691406 -3.921875 7 -3.921875 L 14.253906 -3.921875 L 14.253906 -0.699219 L 2.4375 -0.699219 L 2.4375 -22.402344 Z M 15.652344 -23.101562 C 15.652344 -23.382812 15.375 -23.804688 14.953125 -23.804688 L 1.734375 -23.804688 C 1.429688 -23.804688 1.035156 -23.523438 1.035156 -23.101562 L 1.035156 0 C 1.035156 0.308594 1.289062 0.699219 1.734375 0.699219 L 14.953125 0.699219 C 15.234375 0.699219 15.652344 0.449219 15.652344 0 L 15.652344 -4.621094 C 15.652344 -4.902344 15.375 -5.320312 14.953125 -5.320312 L 7.699219 -5.320312 L 7.699219 -8.570312 L 14.617188 -8.570312 C 14.898438 -8.570312 15.316406 -8.820312 15.316406 -9.269531 L 15.316406 -13.890625 C 15.316406 -14.167969 15.039062 -14.589844 14.617188 -14.589844 L 7.699219 -14.589844 L 7.699219 -17.78125 L 14.953125 -17.78125 C 15.234375 -17.78125 15.652344 -18.035156 15.652344 -18.480469 Z M 15.652344 -23.101562 "/></g></g></g><g fill="#ffffff" fill-opacity="1"><g transform="translate(332.185145, 26.970953)"><g><path d="M 11.171875 -0.699219 L 2.074219 -22.402344 L 6.46875 -22.402344 L 12.125 -7.671875 C 12.125 -7.671875 12.9375 -6.386719 13.441406 -7.671875 L 19.097656 -22.402344 L 23.496094 -22.402344 L 14.394531 -0.699219 Z M 10.054688 0.28125 C 10.164062 0.53125 10.417969 0.699219 10.726562 0.699219 L 14.871094 0.699219 C 15.121094 0.699219 15.402344 0.558594 15.515625 0.28125 L 25.203125 -22.824219 C 25.652344 -23.914062 24.558594 -23.804688 24.558594 -23.804688 L 18.621094 -23.804688 C 18.34375 -23.804688 18.0625 -23.605469 17.949219 -23.328125 L 12.796875 -9.855469 L 7.617188 -23.328125 C 7.503906 -23.605469 7.253906 -23.804688 6.972656 -23.804688 L 1.035156 -23.804688 C -0.167969 -23.804688 0.363281 -22.824219 0.363281 -22.824219 Z M 10.054688 0.28125 "/></g></g></g><g fill="#ffffff" fill-opacity="1"><g transform="translate(365.506647, 26.970953)"><g><path d="M 6.300781 -22.402344 L 6.300781 -0.699219 L 2.4375 -0.699219 L 2.4375 -22.402344 Z M 7.699219 -23.101562 C 7.699219 -23.382812 7.421875 -23.804688 7 -23.804688 L 1.734375 -23.804688 C 1.429688 -23.804688 1.035156 -23.523438 1.035156 -23.101562 L 1.035156 0 C 1.035156 0.308594 1.289062 0.699219 1.734375 0.699219 L 7 0.699219 C 7.28125 0.699219 7.699219 0.449219 7.699219 0 Z M 7.699219 -23.101562 "/></g></g></g><g fill="#ffffff" fill-opacity="1"><g transform="translate(381.973892, 26.970953)"><g><path d="M 14.253906 -22.402344 L 14.253906 -19.183594 L 7 -19.183594 C 6.554688 -19.183594 6.300781 -18.761719 6.300781 -18.480469 L 6.300781 -13.890625 C 6.300781 -13.441406 6.691406 -13.191406 7 -13.191406 L 13.917969 -13.191406 L 13.917969 -9.96875 L 7 -9.96875 C 6.554688 -9.96875 6.300781 -9.550781 6.300781 -9.269531 L 6.300781 -4.621094 C 6.300781 -4.171875 6.691406 -3.921875 7 -3.921875 L 14.253906 -3.921875 L 14.253906 -0.699219 L 2.4375 -0.699219 L 2.4375 -22.402344 Z M 15.652344 -23.101562 C 15.652344 -23.382812 15.375 -23.804688 14.953125 -23.804688 L 1.734375 -23.804688 C 1.429688 -23.804688 1.035156 -23.523438 1.035156 -23.101562 L 1.035156 0 C 1.035156 0.308594 1.289062 0.699219 1.734375 0.699219 L 14.953125 0.699219 C 15.234375 0.699219 15.652344 0.449219 15.652344 0 L 15.652344 -4.621094 C 15.652344 -4.902344 15.375 -5.320312 14.953125 -5.320312 L 7.699219 -5.320312 L 7.699219 -8.570312 L 14.617188 -8.570312 C 14.898438 -8.570312 15.316406 -8.820312 15.316406 -9.269531 L 15.316406 -13.890625 C 15.316406 -14.167969 15.039062 -14.589844 14.617188 -14.589844 L 7.699219 -14.589844 L 7.699219 -17.78125 L 14.953125 -17.78125 C 15.234375 -17.78125 15.652344 -18.035156 15.652344 -18.480469 Z M 15.652344 -23.101562 "/></g></g></g><g fill="#ffffff" fill-opacity="1"><g transform="translate(406.14034, 26.970953)"><g><path d="M 21.394531 -0.699219 L 17.867188 -13.132812 C 17.867188 -13.132812 16.832031 -14.308594 16.492188 -13.132812 L 12.964844 -0.699219 L 8.148438 -0.699219 L 1.988281 -22.402344 L 6.355469 -22.402344 L 10.164062 -7.058594 C 10.25 -6.75 10.558594 -6.554688 10.867188 -6.554688 L 11.003906 -6.554688 C 11.3125 -6.554688 11.59375 -6.804688 11.675781 -7.058594 L 15.738281 -22.402344 L 18.621094 -22.402344 L 22.683594 -7.058594 C 22.765625 -6.75 23.101562 -6.554688 23.382812 -6.554688 L 23.523438 -6.554688 C 23.832031 -6.554688 24.109375 -6.804688 24.195312 -7.058594 L 28.003906 -22.402344 L 32.34375 -22.402344 L 26.183594 -0.699219 Z M 20.191406 0.195312 C 20.273438 0.503906 20.554688 0.699219 20.890625 0.699219 L 26.714844 0.699219 C 26.996094 0.699219 27.277344 0.503906 27.386719 0.195312 L 33.96875 -22.90625 C 34.21875 -23.832031 33.351562 -23.804688 33.296875 -23.804688 L 27.472656 -23.804688 C 27.164062 -23.804688 26.855469 -23.578125 26.769531 -23.269531 L 23.410156 -9.773438 L 19.855469 -23.269531 C 19.769531 -23.523438 19.492188 -23.804688 19.183594 -23.804688 L 15.207031 -23.804688 C 14.925781 -23.804688 14.589844 -23.578125 14.507812 -23.269531 L 10.949219 -9.773438 L 7.589844 -23.269531 C 7.503906 -23.523438 7.226562 -23.804688 6.917969 -23.804688 L 1.0625 -23.804688 C 0.0859375 -23.804688 0.363281 -22.964844 0.363281 -22.90625 L 6.945312 0.195312 C 7.027344 0.503906 7.308594 0.699219 7.644531 0.699219 L 13.496094 0.699219 C 13.777344 0.699219 14.058594 0.503906 14.167969 0.195312 L 17.195312 -10.390625 Z M 20.191406 0.195312 "/></g></g></g><g fill="#ffffff" fill-opacity="1"><g transform="translate(448.224934, 26.970953)"><g><path d="M 10.640625 -22.824219 C 13.582031 -22.824219 15.933594 -21.648438 16.886719 -21.085938 L 15.375 -18.117188 C 14.476562 -18.621094 12.824219 -19.433594 11.003906 -19.433594 C 8.988281 -19.433594 7.5625 -18.398438 7.5625 -16.664062 C 7.5625 -14.644531 10.363281 -13.695312 12.796875 -12.65625 C 15.289062 -11.621094 17.78125 -9.578125 17.78125 -7.027344 C 17.78125 -2.015625 14.085938 -0.28125 9.773438 -0.28125 C 5.796875 -0.28125 3.023438 -2.015625 1.988281 -2.773438 L 3.921875 -5.992188 C 4.984375 -5.238281 7.195312 -3.753906 9.382812 -3.753906 C 10.390625 -3.753906 13.414062 -3.808594 13.414062 -6.722656 C 13.414062 -9.074219 10.277344 -9.914062 7.8125 -11.144531 C 5.179688 -12.433594 3.808594 -14.394531 3.808594 -16.464844 C 3.808594 -20.300781 7.195312 -22.824219 10.640625 -22.824219 Z M 10.640625 -24.222656 C 6.609375 -24.222656 2.410156 -21.226562 2.410156 -16.464844 C 2.410156 -13.695312 4.257812 -11.339844 7.167969 -9.886719 C 10.191406 -8.375 12.011719 -7.699219 12.011719 -6.722656 C 12.011719 -5.292969 10.640625 -5.152344 9.382812 -5.152344 C 7.167969 -5.152344 4.171875 -7.589844 4.171875 -7.589844 C 3.585938 -8.066406 3.21875 -7.589844 3.109375 -7.394531 L 0.476562 -2.96875 C 0.308594 -2.714844 0.363281 -2.324219 0.589844 -2.101562 C 0.671875 -2.042969 4.089844 1.121094 9.773438 1.121094 C 14.449219 1.121094 19.183594 -0.980469 19.183594 -7.027344 C 19.183594 -10.5 15.988281 -12.824219 13.328125 -13.972656 C 10.5 -15.179688 8.960938 -16.074219 8.960938 -16.664062 C 8.960938 -17.417969 9.410156 -18.035156 11.003906 -18.035156 C 13.050781 -18.035156 15.261719 -16.550781 15.261719 -16.550781 C 15.792969 -16.1875 16.15625 -16.550781 16.296875 -16.800781 L 18.425781 -21.003906 C 18.566406 -21.28125 18.480469 -21.675781 18.203125 -21.898438 C 18.144531 -21.925781 15.066406 -24.222656 10.640625 -24.222656 Z M 10.640625 -24.222656 "/></g></g></g></svg>