<svg xmlns="http://www.w3.org/2000/svg" xmlns:xlink="http://www.w3.org/1999/xlink" width="1200" zoomAndPan="magnify" viewBox="0 0 900 899.99999" height="1200" preserveAspectRatio="xMidYMid meet" version="1.0"><path fill="#ffffff" d="M 894.730469 874.382812 C 900.578125 880.230469 900.578125 889.710938 894.730469 895.558594 C 891.804688 898.484375 887.972656 899.945312 884.144531 899.945312 C 880.3125 899.945312 876.480469 898.484375 873.554688 895.558594 L 450.3125 472.257812 L 27.070312 895.558594 C 24.148438 898.484375 20.316406 899.945312 16.484375 899.945312 C 12.652344 899.945312 8.820312 898.484375 5.898438 895.558594 C 0.0507812 889.710938 0.0507812 880.230469 5.898438 874.382812 L 429.140625 451.082031 L 5.898438 27.777344 C 0.0507812 21.929688 0.0507812 12.449219 5.898438 6.601562 C 11.746094 0.753906 21.226562 0.753906 27.070312 6.601562 L 450.3125 429.902344 L 873.554688 6.601562 C 879.402344 0.753906 888.882812 0.753906 894.730469 6.601562 C 900.578125 12.449219 900.578125 21.929688 894.730469 27.777344 L 471.488281 451.082031 Z M 894.730469 874.382812 " fill-opacity="1" fill-rule="nonzero"/></svg>