<svg xmlns="http://www.w3.org/2000/svg" xmlns:xlink="http://www.w3.org/1999/xlink" width="243" zoomAndPan="magnify" viewBox="0 0 182.25 63.749998" height="85" preserveAspectRatio="xMidYMid meet" version="1.0"><defs><clipPath id="0c37951a45"><path d="M 0 0.132812 L 181.503906 0.132812 L 181.503906 63.496094 L 0 63.496094 Z M 0 0.132812 " clip-rule="nonzero"/></clipPath><clipPath id="662ac91957"><path d="M 0 26 L 179 26 L 179 63.496094 L 0 63.496094 Z M 0 26 " clip-rule="nonzero"/></clipPath><clipPath id="3a63392118"><path d="M 172 52 L 181.503906 52 L 181.503906 55 L 172 55 Z M 172 52 " clip-rule="nonzero"/></clipPath><clipPath id="75ba126732"><path d="M 86 0.132812 L 93 0.132812 L 93 6 L 86 6 Z M 86 0.132812 " clip-rule="nonzero"/></clipPath><clipPath id="a784196b2b"><path d="M 172 46 L 181.503906 46 L 181.503906 53 L 172 53 Z M 172 46 " clip-rule="nonzero"/></clipPath><clipPath id="a83e75c914"><path d="M 92 0.132812 L 98 0.132812 L 98 4 L 92 4 Z M 92 0.132812 " clip-rule="nonzero"/></clipPath></defs><g clip-path="url(#0c37951a45)"><path fill="#ff999a" d="M 178.59375 49.191406 L 178.59375 46.308594 L 175.710938 46.308594 L 175.710938 43.421875 L 169.953125 43.421875 L 169.953125 40.535156 L 155.550781 40.535156 L 155.550781 43.421875 L 149.792969 43.421875 L 149.792969 37.648438 L 146.910156 37.648438 L 146.910156 34.765625 L 144.03125 34.765625 L 144.03125 31.878906 L 141.152344 31.878906 L 141.152344 28.992188 L 126.75 28.992188 L 126.75 23.21875 L 123.871094 23.21875 L 123.871094 17.449219 L 120.992188 17.449219 L 120.992188 14.5625 L 118.113281 14.5625 L 118.113281 11.675781 L 115.230469 11.675781 L 115.230469 8.792969 L 103.710938 8.792969 L 103.710938 5.90625 L 100.832031 5.90625 L 100.832031 3.019531 L 97.953125 3.019531 L 97.953125 0.132812 L 86.429688 0.132812 L 86.429688 3.019531 L 80.671875 3.019531 L 80.671875 5.90625 L 66.269531 5.90625 L 66.269531 8.792969 L 63.390625 8.792969 L 63.390625 11.675781 L 60.511719 11.675781 L 60.511719 14.5625 L 57.632812 14.5625 L 57.632812 26.105469 L 54.75 26.105469 L 54.75 28.992188 L 51.871094 28.992188 L 51.871094 34.765625 L 48.992188 34.765625 L 48.992188 31.878906 L 40.351562 31.878906 L 40.351562 34.765625 L 37.472656 34.765625 L 37.472656 37.648438 L 34.589844 37.648438 L 34.589844 40.535156 L 31.710938 40.535156 L 31.710938 46.308594 L 25.953125 46.308594 L 25.953125 49.191406 L 20.191406 49.191406 L 20.191406 52.078125 L 17.3125 52.078125 L 17.3125 49.191406 L 8.671875 49.191406 L 8.671875 52.078125 L 2.910156 52.078125 L 2.910156 54.964844 L 0.03125 54.964844 L 0.03125 60.738281 L 2.910156 60.738281 L 2.910156 63.621094 L 175.710938 63.621094 L 175.710938 60.738281 L 178.59375 60.738281 L 178.59375 54.964844 L 181.472656 54.964844 L 181.472656 49.191406 Z M 178.59375 49.191406 " fill-opacity="1" fill-rule="nonzero"/></g><path fill="#5561d3" d="M 80.671875 14.5625 L 80.671875 5.90625 L 77.792969 5.90625 L 77.792969 11.675781 L 74.910156 11.675781 L 74.910156 20.335938 L 77.792969 20.335938 L 77.792969 14.5625 Z M 80.671875 14.5625 " fill-opacity="1" fill-rule="nonzero"/><path fill="#5561d3" d="M 80.671875 3.019531 L 86.429688 3.019531 L 86.429688 5.90625 L 80.671875 5.90625 Z M 80.671875 3.019531 " fill-opacity="1" fill-rule="nonzero"/><path fill="#5561d3" d="M 77.792969 20.335938 L 80.671875 20.335938 L 80.671875 26.105469 L 77.792969 26.105469 Z M 77.792969 20.335938 " fill-opacity="1" fill-rule="nonzero"/><path fill="#5561d3" d="M 89.3125 31.878906 L 89.3125 28.992188 L 86.429688 28.992188 L 86.429688 26.105469 L 80.671875 26.105469 L 80.671875 28.992188 L 83.550781 28.992188 L 83.550781 31.878906 L 86.429688 31.878906 L 86.429688 34.765625 L 92.191406 34.765625 L 92.191406 31.878906 Z M 89.3125 31.878906 " fill-opacity="1" fill-rule="nonzero"/><path fill="#5561d3" d="M 100.832031 8.792969 L 106.589844 8.792969 L 106.589844 11.675781 L 100.832031 11.675781 Z M 100.832031 8.792969 " fill-opacity="1" fill-rule="nonzero"/><path fill="#5561d3" d="M 97.953125 11.675781 L 100.832031 11.675781 L 100.832031 14.5625 L 97.953125 14.5625 Z M 97.953125 11.675781 " fill-opacity="1" fill-rule="nonzero"/><path fill="#5561d3" d="M 95.070312 14.5625 L 97.953125 14.5625 L 97.953125 23.21875 L 95.070312 23.21875 Z M 95.070312 14.5625 " fill-opacity="1" fill-rule="nonzero"/><path fill="#5561d3" d="M 97.953125 23.21875 L 100.832031 23.21875 L 100.832031 28.992188 L 97.953125 28.992188 Z M 97.953125 23.21875 " fill-opacity="1" fill-rule="nonzero"/><path fill="#5561d3" d="M 100.832031 28.992188 L 103.710938 28.992188 L 103.710938 31.878906 L 100.832031 31.878906 Z M 100.832031 28.992188 " fill-opacity="1" fill-rule="nonzero"/><path fill="#5561d3" d="M 103.710938 31.878906 L 109.472656 31.878906 L 109.472656 34.765625 L 103.710938 34.765625 Z M 103.710938 31.878906 " fill-opacity="1" fill-rule="nonzero"/><path fill="#5561d3" d="M 109.472656 34.765625 L 115.230469 34.765625 L 115.230469 37.648438 L 109.472656 37.648438 Z M 109.472656 34.765625 " fill-opacity="1" fill-rule="nonzero"/><path fill="#5561d3" d="M 115.230469 31.878906 L 120.992188 31.878906 L 120.992188 34.765625 L 115.230469 34.765625 Z M 115.230469 31.878906 " fill-opacity="1" fill-rule="nonzero"/><g clip-path="url(#662ac91957)"><path fill="#5561d3" d="M 172.832031 54.964844 L 172.832031 57.851562 L 167.070312 57.851562 L 167.070312 54.964844 L 161.3125 54.964844 L 161.3125 52.078125 L 155.550781 52.078125 L 155.550781 49.191406 L 152.671875 49.191406 L 152.671875 43.421875 L 146.910156 43.421875 L 146.910156 46.308594 L 135.390625 46.308594 L 135.390625 49.191406 L 120.992188 49.191406 L 120.992188 46.308594 L 112.351562 46.308594 L 112.351562 43.421875 L 103.710938 43.421875 L 103.710938 40.535156 L 100.832031 40.535156 L 100.832031 37.648438 L 103.710938 37.648438 L 103.710938 34.765625 L 92.191406 34.765625 L 92.191406 37.648438 L 95.070312 37.648438 L 95.070312 40.535156 L 97.953125 40.535156 L 97.953125 43.421875 L 92.191406 43.421875 L 92.191406 46.308594 L 72.03125 46.308594 L 72.03125 43.421875 L 66.269531 43.421875 L 66.269531 40.535156 L 60.511719 40.535156 L 60.511719 37.648438 L 54.75 37.648438 L 54.75 31.878906 L 57.632812 31.878906 L 57.632812 26.105469 L 54.75 26.105469 L 54.75 28.992188 L 51.871094 28.992188 L 51.871094 40.535156 L 54.75 40.535156 L 54.75 43.421875 L 57.632812 43.421875 L 57.632812 46.308594 L 51.871094 46.308594 L 51.871094 49.191406 L 48.992188 49.191406 L 48.992188 54.964844 L 43.230469 54.964844 L 43.230469 52.078125 L 40.351562 52.078125 L 40.351562 49.191406 L 37.472656 49.191406 L 37.472656 46.308594 L 34.589844 46.308594 L 34.589844 40.535156 L 31.710938 40.535156 L 31.710938 46.308594 L 28.832031 46.308594 L 28.832031 52.078125 L 25.953125 52.078125 L 25.953125 54.964844 L 23.070312 54.964844 L 23.070312 57.851562 L 5.792969 57.851562 L 5.792969 52.078125 L 2.910156 52.078125 L 2.910156 54.964844 L 0.03125 54.964844 L 0.03125 60.738281 L 2.910156 60.738281 L 2.910156 63.621094 L 175.710938 63.621094 L 175.710938 60.738281 L 178.59375 60.738281 L 178.59375 54.964844 Z M 172.832031 54.964844 " fill-opacity="1" fill-rule="nonzero"/></g><path fill="#8e68e6" d="M 8.671875 52.078125 L 5.792969 52.078125 L 5.792969 57.851562 L 23.070312 57.851562 L 23.070312 54.964844 L 8.671875 54.964844 Z M 8.671875 52.078125 " fill-opacity="1" fill-rule="nonzero"/><path fill="#8e68e6" d="M 25.953125 46.308594 L 28.832031 46.308594 L 28.832031 52.078125 L 25.953125 52.078125 Z M 25.953125 46.308594 " fill-opacity="1" fill-rule="nonzero"/><path fill="#8e68e6" d="M 37.472656 43.421875 L 37.472656 37.648438 L 34.589844 37.648438 L 34.589844 46.308594 L 37.472656 46.308594 L 37.472656 49.191406 L 40.351562 49.191406 L 40.351562 43.421875 Z M 37.472656 43.421875 " fill-opacity="1" fill-rule="nonzero"/><path fill="#8e68e6" d="M 40.351562 49.191406 L 40.351562 52.078125 L 43.230469 52.078125 L 43.230469 54.964844 L 48.992188 54.964844 L 48.992188 49.191406 Z M 40.351562 49.191406 " fill-opacity="1" fill-rule="nonzero"/><path fill="#8e68e6" d="M 63.390625 37.648438 L 63.390625 34.765625 L 60.511719 34.765625 L 60.511719 23.21875 L 57.632812 23.21875 L 57.632812 31.878906 L 54.75 31.878906 L 54.75 37.648438 L 60.511719 37.648438 L 60.511719 40.535156 L 66.269531 40.535156 L 66.269531 37.648438 Z M 63.390625 37.648438 " fill-opacity="1" fill-rule="nonzero"/><path fill="#8e68e6" d="M 72.03125 40.535156 L 66.269531 40.535156 L 66.269531 46.308594 L 72.03125 46.308594 L 72.03125 49.191406 L 92.191406 49.191406 L 92.191406 43.421875 L 72.03125 43.421875 Z M 72.03125 40.535156 " fill-opacity="1" fill-rule="nonzero"/><path fill="#8e68e6" d="M 92.191406 40.535156 L 97.953125 40.535156 L 97.953125 43.421875 L 92.191406 43.421875 Z M 92.191406 40.535156 " fill-opacity="1" fill-rule="nonzero"/><path fill="#8e68e6" d="M 83.550781 52.078125 L 86.429688 52.078125 L 86.429688 54.964844 L 83.550781 54.964844 Z M 83.550781 52.078125 " fill-opacity="1" fill-rule="nonzero"/><path fill="#8e68e6" d="M 95.070312 46.308594 L 100.832031 46.308594 L 100.832031 52.078125 L 95.070312 52.078125 Z M 95.070312 46.308594 " fill-opacity="1" fill-rule="nonzero"/><path fill="#8e68e6" d="M 54.75 49.191406 L 60.511719 49.191406 L 60.511719 54.964844 L 54.75 54.964844 Z M 54.75 49.191406 " fill-opacity="1" fill-rule="nonzero"/><path fill="#8e68e6" d="M 31.710938 49.191406 L 34.589844 49.191406 L 34.589844 52.078125 L 31.710938 52.078125 Z M 31.710938 49.191406 " fill-opacity="1" fill-rule="nonzero"/><path fill="#8e68e6" d="M 25.953125 54.964844 L 28.832031 54.964844 L 28.832031 57.851562 L 25.953125 57.851562 Z M 25.953125 54.964844 " fill-opacity="1" fill-rule="nonzero"/><path fill="#8e68e6" d="M 31.710938 54.964844 L 37.472656 54.964844 L 37.472656 60.738281 L 31.710938 60.738281 Z M 31.710938 54.964844 " fill-opacity="1" fill-rule="nonzero"/><path fill="#8e68e6" d="M 69.152344 49.191406 L 66.269531 49.191406 L 66.269531 54.964844 L 80.671875 54.964844 L 80.671875 52.078125 L 69.152344 52.078125 Z M 69.152344 49.191406 " fill-opacity="1" fill-rule="nonzero"/><path fill="#8e68e6" d="M 112.351562 49.191406 L 118.113281 49.191406 L 118.113281 52.078125 L 112.351562 52.078125 Z M 112.351562 49.191406 " fill-opacity="1" fill-rule="nonzero"/><path fill="#8e68e6" d="M 106.589844 40.535156 L 106.589844 34.765625 L 103.710938 34.765625 L 103.710938 37.648438 L 100.832031 37.648438 L 100.832031 40.535156 L 103.710938 40.535156 L 103.710938 43.421875 L 112.351562 43.421875 L 112.351562 40.535156 Z M 106.589844 40.535156 " fill-opacity="1" fill-rule="nonzero"/><path fill="#8e68e6" d="M 77.792969 14.5625 L 80.671875 14.5625 L 80.671875 20.335938 L 77.792969 20.335938 Z M 77.792969 14.5625 " fill-opacity="1" fill-rule="nonzero"/><path fill="#8e68e6" d="M 83.550781 23.21875 L 83.550781 20.335938 L 80.671875 20.335938 L 80.671875 26.105469 L 86.429688 26.105469 L 86.429688 23.21875 Z M 83.550781 23.21875 " fill-opacity="1" fill-rule="nonzero"/><path fill="#8e68e6" d="M 86.429688 26.105469 L 89.3125 26.105469 L 89.3125 28.992188 L 86.429688 28.992188 Z M 86.429688 26.105469 " fill-opacity="1" fill-rule="nonzero"/><path fill="#8e68e6" d="M 100.832031 31.878906 L 100.832031 28.992188 L 89.3125 28.992188 L 89.3125 31.878906 L 92.191406 31.878906 L 92.191406 34.765625 L 103.710938 34.765625 L 103.710938 31.878906 Z M 100.832031 31.878906 " fill-opacity="1" fill-rule="nonzero"/><path fill="#8e68e6" d="M 146.910156 43.421875 L 149.792969 43.421875 L 149.792969 37.648438 L 146.910156 37.648438 L 146.910156 40.535156 L 135.390625 40.535156 L 135.390625 43.421875 L 112.351562 43.421875 L 112.351562 46.308594 L 120.992188 46.308594 L 120.992188 49.191406 L 135.390625 49.191406 L 135.390625 46.308594 L 146.910156 46.308594 Z M 146.910156 43.421875 " fill-opacity="1" fill-rule="nonzero"/><path fill="#8e68e6" d="M 155.550781 46.308594 L 155.550781 43.421875 L 152.671875 43.421875 L 152.671875 49.191406 L 155.550781 49.191406 L 155.550781 52.078125 L 161.3125 52.078125 L 161.3125 46.308594 Z M 155.550781 46.308594 " fill-opacity="1" fill-rule="nonzero"/><path fill="#8e68e6" d="M 161.3125 52.078125 L 167.070312 52.078125 L 167.070312 54.964844 L 161.3125 54.964844 Z M 161.3125 52.078125 " fill-opacity="1" fill-rule="nonzero"/><path fill="#8e68e6" d="M 167.070312 54.964844 L 172.832031 54.964844 L 172.832031 57.851562 L 167.070312 57.851562 Z M 167.070312 54.964844 " fill-opacity="1" fill-rule="nonzero"/><g clip-path="url(#3a63392118)"><path fill="#8e68e6" d="M 172.832031 52.078125 L 181.472656 52.078125 L 181.472656 54.964844 L 172.832031 54.964844 Z M 172.832031 52.078125 " fill-opacity="1" fill-rule="nonzero"/></g><path fill="#8e68e6" d="M 152.671875 52.078125 L 146.910156 52.078125 L 146.910156 54.964844 L 149.792969 54.964844 L 149.792969 57.851562 L 158.433594 57.851562 L 158.433594 54.964844 L 152.671875 54.964844 Z M 152.671875 52.078125 " fill-opacity="1" fill-rule="nonzero"/><path fill="#8e68e6" d="M 138.273438 49.191406 L 146.910156 49.191406 L 146.910156 52.078125 L 138.273438 52.078125 Z M 138.273438 49.191406 " fill-opacity="1" fill-rule="nonzero"/><path fill="#fb6ba2" d="M 69.152344 37.648438 L 69.152344 31.878906 L 66.269531 31.878906 L 66.269531 20.335938 L 60.511719 20.335938 L 60.511719 17.449219 L 63.390625 17.449219 L 63.390625 11.675781 L 60.511719 11.675781 L 60.511719 14.5625 L 57.632812 14.5625 L 57.632812 23.21875 L 60.511719 23.21875 L 60.511719 34.765625 L 63.390625 34.765625 L 63.390625 37.648438 L 66.269531 37.648438 L 66.269531 40.535156 L 72.03125 40.535156 L 72.03125 37.648438 Z M 69.152344 37.648438 " fill-opacity="1" fill-rule="nonzero"/><path fill="#fb6ba2" d="M 72.03125 40.535156 L 92.191406 40.535156 L 92.191406 43.421875 L 72.03125 43.421875 Z M 72.03125 40.535156 " fill-opacity="1" fill-rule="nonzero"/><path fill="#fb6ba2" d="M 69.152344 17.449219 L 69.152344 14.5625 L 66.269531 14.5625 L 66.269531 20.335938 L 69.152344 20.335938 Z M 69.152344 17.449219 " fill-opacity="1" fill-rule="nonzero"/><path fill="#fb6ba2" d="M 69.152344 11.675781 L 72.03125 11.675781 L 72.03125 14.5625 L 69.152344 14.5625 Z M 69.152344 11.675781 " fill-opacity="1" fill-rule="nonzero"/><path fill="#fb6ba2" d="M 92.191406 37.648438 L 95.070312 37.648438 L 95.070312 40.535156 L 92.191406 40.535156 Z M 92.191406 37.648438 " fill-opacity="1" fill-rule="nonzero"/><path fill="#fb6ba2" d="M 43.230469 43.421875 L 40.351562 43.421875 L 40.351562 49.191406 L 51.871094 49.191406 L 51.871094 46.308594 L 43.230469 46.308594 Z M 43.230469 43.421875 " fill-opacity="1" fill-rule="nonzero"/><path fill="#fb6ba2" d="M 11.550781 49.191406 L 8.671875 49.191406 L 8.671875 54.964844 L 17.3125 54.964844 L 17.3125 52.078125 L 11.550781 52.078125 Z M 11.550781 49.191406 " fill-opacity="1" fill-rule="nonzero"/><path fill="#fb6ba2" d="M 20.191406 52.078125 L 25.953125 52.078125 L 25.953125 54.964844 L 20.191406 54.964844 Z M 20.191406 52.078125 " fill-opacity="1" fill-rule="nonzero"/><g clip-path="url(#75ba126732)"><path fill="#fb6ba2" d="M 89.3125 3.019531 L 92.191406 3.019531 L 92.191406 0.132812 L 86.429688 0.132812 L 86.429688 5.90625 L 89.3125 5.90625 Z M 89.3125 3.019531 " fill-opacity="1" fill-rule="nonzero"/></g><path fill="#fb6ba2" d="M 83.550781 17.449219 L 83.550781 8.792969 L 86.429688 8.792969 L 86.429688 5.90625 L 80.671875 5.90625 L 80.671875 20.335938 L 83.550781 20.335938 L 83.550781 23.21875 L 86.429688 23.21875 L 86.429688 17.449219 Z M 83.550781 17.449219 " fill-opacity="1" fill-rule="nonzero"/><path fill="#fb6ba2" d="M 86.429688 23.21875 L 89.3125 23.21875 L 89.3125 26.105469 L 86.429688 26.105469 Z M 86.429688 23.21875 " fill-opacity="1" fill-rule="nonzero"/><path fill="#fb6ba2" d="M 89.3125 26.105469 L 97.953125 26.105469 L 97.953125 28.992188 L 89.3125 28.992188 Z M 89.3125 26.105469 " fill-opacity="1" fill-rule="nonzero"/><path fill="#fb6ba2" d="M 86.429688 11.675781 L 89.3125 11.675781 L 89.3125 14.5625 L 86.429688 14.5625 Z M 86.429688 11.675781 " fill-opacity="1" fill-rule="nonzero"/><path fill="#fb6ba2" d="M 43.230469 37.648438 L 43.230469 34.765625 L 46.109375 34.765625 L 46.109375 31.878906 L 40.351562 31.878906 L 40.351562 34.765625 L 37.472656 34.765625 L 37.472656 43.421875 L 40.351562 43.421875 L 40.351562 37.648438 Z M 43.230469 37.648438 " fill-opacity="1" fill-rule="nonzero"/><path fill="#fb6ba2" d="M 54.75 40.535156 L 51.871094 40.535156 L 51.871094 46.308594 L 57.632812 46.308594 L 57.632812 43.421875 L 54.75 43.421875 Z M 54.75 40.535156 " fill-opacity="1" fill-rule="nonzero"/><path fill="#fb6ba2" d="M 48.992188 34.765625 L 51.871094 34.765625 L 51.871094 40.535156 L 48.992188 40.535156 Z M 48.992188 34.765625 " fill-opacity="1" fill-rule="nonzero"/><path fill="#fb6ba2" d="M 97.953125 14.5625 L 100.832031 14.5625 L 100.832031 23.21875 L 97.953125 23.21875 Z M 97.953125 14.5625 " fill-opacity="1" fill-rule="nonzero"/><path fill="#fb6ba2" d="M 100.832031 23.21875 L 103.710938 23.21875 L 103.710938 28.992188 L 100.832031 28.992188 Z M 100.832031 23.21875 " fill-opacity="1" fill-rule="nonzero"/><path fill="#fb6ba2" d="M 103.710938 28.992188 L 109.472656 28.992188 L 109.472656 31.878906 L 103.710938 31.878906 Z M 103.710938 28.992188 " fill-opacity="1" fill-rule="nonzero"/><path fill="#fb6ba2" d="M 109.472656 31.878906 L 115.230469 31.878906 L 115.230469 34.765625 L 109.472656 34.765625 Z M 109.472656 31.878906 " fill-opacity="1" fill-rule="nonzero"/><path fill="#fb6ba2" d="M 141.152344 37.648438 L 129.632812 37.648438 L 129.632812 40.535156 L 115.230469 40.535156 L 115.230469 37.648438 L 109.472656 37.648438 L 109.472656 34.765625 L 106.589844 34.765625 L 106.589844 40.535156 L 112.351562 40.535156 L 112.351562 43.421875 L 135.390625 43.421875 L 135.390625 40.535156 L 146.910156 40.535156 L 146.910156 34.765625 L 141.152344 34.765625 Z M 141.152344 37.648438 " fill-opacity="1" fill-rule="nonzero"/><path fill="#fb6ba2" d="M 115.230469 28.992188 L 120.992188 28.992188 L 120.992188 31.878906 L 115.230469 31.878906 Z M 115.230469 28.992188 " fill-opacity="1" fill-rule="nonzero"/><path fill="#fb6ba2" d="M 120.992188 26.105469 L 123.871094 26.105469 L 123.871094 28.992188 L 120.992188 28.992188 Z M 120.992188 26.105469 " fill-opacity="1" fill-rule="nonzero"/><path fill="#fb6ba2" d="M 158.433594 43.421875 L 158.433594 40.535156 L 155.550781 40.535156 L 155.550781 46.308594 L 161.3125 46.308594 L 161.3125 43.421875 Z M 158.433594 43.421875 " fill-opacity="1" fill-rule="nonzero"/><path fill="#fb6ba2" d="M 164.191406 49.191406 L 164.191406 46.308594 L 161.3125 46.308594 L 161.3125 52.078125 L 167.070312 52.078125 L 167.070312 49.191406 Z M 164.191406 49.191406 " fill-opacity="1" fill-rule="nonzero"/><path fill="#fb6ba2" d="M 167.070312 52.078125 L 172.832031 52.078125 L 172.832031 54.964844 L 167.070312 54.964844 Z M 167.070312 52.078125 " fill-opacity="1" fill-rule="nonzero"/><g clip-path="url(#a784196b2b)"><path fill="#fb6ba2" d="M 178.59375 49.191406 L 178.59375 46.308594 L 175.710938 46.308594 L 175.710938 49.191406 L 172.832031 49.191406 L 172.832031 52.078125 L 181.472656 52.078125 L 181.472656 49.191406 Z M 178.59375 49.191406 " fill-opacity="1" fill-rule="nonzero"/></g><path fill="#fb6ba2" d="M 80.671875 28.992188 L 83.550781 28.992188 L 83.550781 31.878906 L 80.671875 31.878906 Z M 80.671875 28.992188 " fill-opacity="1" fill-rule="nonzero"/><path fill="#fb6ba2" d="M 83.550781 31.878906 L 86.429688 31.878906 L 86.429688 34.765625 L 83.550781 34.765625 Z M 83.550781 31.878906 " fill-opacity="1" fill-rule="nonzero"/><path fill="#fb6ba2" d="M 86.429688 34.765625 L 92.191406 34.765625 L 92.191406 37.648438 L 86.429688 37.648438 Z M 86.429688 34.765625 " fill-opacity="1" fill-rule="nonzero"/><path fill="#ffe14d" d="M 92.191406 5.90625 L 97.953125 5.90625 L 97.953125 8.792969 L 92.191406 8.792969 Z M 92.191406 5.90625 " fill-opacity="1" fill-rule="nonzero"/><path fill="#ffe14d" d="M 97.953125 3.019531 L 100.832031 3.019531 L 100.832031 5.90625 L 97.953125 5.90625 Z M 97.953125 3.019531 " fill-opacity="1" fill-rule="nonzero"/><path fill="#ffe14d" d="M 100.832031 5.90625 L 103.710938 5.90625 L 103.710938 8.792969 L 100.832031 8.792969 Z M 100.832031 5.90625 " fill-opacity="1" fill-rule="nonzero"/><path fill="#ffe14d" d="M 109.472656 8.792969 L 115.230469 8.792969 L 115.230469 11.675781 L 109.472656 11.675781 Z M 109.472656 8.792969 " fill-opacity="1" fill-rule="nonzero"/><path fill="#ffe14d" d="M 106.589844 14.5625 L 112.351562 14.5625 L 112.351562 17.449219 L 106.589844 17.449219 Z M 106.589844 14.5625 " fill-opacity="1" fill-rule="nonzero"/><path fill="#ffe14d" d="M 112.351562 20.335938 L 115.230469 20.335938 L 115.230469 23.21875 L 112.351562 23.21875 Z M 112.351562 20.335938 " fill-opacity="1" fill-rule="nonzero"/><path fill="#ffe14d" d="M 69.152344 5.90625 L 77.792969 5.90625 L 77.792969 8.792969 L 69.152344 8.792969 Z M 69.152344 5.90625 " fill-opacity="1" fill-rule="nonzero"/><g clip-path="url(#a83e75c914)"><path fill="#ffe14d" d="M 92.191406 0.132812 L 97.953125 0.132812 L 97.953125 3.019531 L 92.191406 3.019531 Z M 92.191406 0.132812 " fill-opacity="1" fill-rule="nonzero"/></g><path fill="#ffe14d" d="M 115.230469 11.675781 L 118.113281 11.675781 L 118.113281 14.5625 L 115.230469 14.5625 Z M 115.230469 11.675781 " fill-opacity="1" fill-rule="nonzero"/><path fill="#ffe14d" d="M 120.992188 17.449219 L 123.871094 17.449219 L 123.871094 20.335938 L 120.992188 20.335938 Z M 120.992188 17.449219 " fill-opacity="1" fill-rule="nonzero"/><path fill="#ffe14d" d="M 164.191406 40.535156 L 169.953125 40.535156 L 169.953125 43.421875 L 164.191406 43.421875 Z M 164.191406 40.535156 " fill-opacity="1" fill-rule="nonzero"/><path fill="#ffe14d" d="M 169.953125 43.421875 L 175.710938 43.421875 L 175.710938 46.308594 L 169.953125 46.308594 Z M 169.953125 43.421875 " fill-opacity="1" fill-rule="nonzero"/><path fill="#ffe14d" d="M 123.871094 23.21875 L 126.75 23.21875 L 126.75 28.992188 L 123.871094 28.992188 Z M 123.871094 23.21875 " fill-opacity="1" fill-rule="nonzero"/><path fill="#ffe14d" d="M 126.75 28.992188 L 135.390625 28.992188 L 135.390625 31.878906 L 126.75 31.878906 Z M 126.75 28.992188 " fill-opacity="1" fill-rule="nonzero"/><path fill="#ffe14d" d="M 138.273438 31.878906 L 141.152344 31.878906 L 141.152344 34.765625 L 138.273438 34.765625 Z M 138.273438 31.878906 " fill-opacity="1" fill-rule="nonzero"/><path fill="#ffe14d" d="M 123.871094 31.878906 L 126.75 31.878906 L 126.75 34.765625 L 123.871094 34.765625 Z M 123.871094 31.878906 " fill-opacity="1" fill-rule="nonzero"/><path fill="#ffe14d" d="M 103.710938 17.449219 L 106.589844 17.449219 L 106.589844 20.335938 L 103.710938 20.335938 Z M 103.710938 17.449219 " fill-opacity="1" fill-rule="nonzero"/></svg>