<svg xmlns="http://www.w3.org/2000/svg" xmlns:xlink="http://www.w3.org/1999/xlink" width="800" zoomAndPan="magnify" viewBox="0 0 600 30.000001" height="40" preserveAspectRatio="xMidYMid meet" version="1.0"><defs><g/></defs><g fill="#ffffff" fill-opacity="1"><g transform="translate(162.70511, 26.970953)"><g><path d="M 19.070312 -16.605469 L 19.460938 -16.523438 C 19.769531 -16.550781 20.023438 -16.773438 20.078125 -17.054688 L 21.199219 -22.234375 C 21.253906 -22.515625 21.144531 -22.796875 20.890625 -22.964844 C 20.777344 -23.074219 18.957031 -24.222656 13.863281 -24.222656 C 6.945312 -24.222656 0.644531 -18.566406 0.644531 -11.507812 C 0.644531 -4.453125 6.972656 1.121094 13.863281 1.121094 C 18.957031 1.121094 20.75 0 20.917969 -0.113281 C 21.113281 -0.253906 21.253906 -0.558594 21.199219 -0.839844 L 20.078125 -6.019531 C 19.882812 -6.917969 19.183594 -6.554688 19.070312 -6.496094 C 19.015625 -6.46875 17.136719 -5.460938 14.675781 -5.460938 C 9.773438 -5.460938 7.757812 -8.792969 7.757812 -11.566406 C 7.757812 -14.28125 9.773438 -17.640625 14.675781 -17.640625 C 17.109375 -17.640625 19.015625 -16.605469 19.070312 -16.605469 Z M 14.675781 -4.058594 C 16.492188 -4.058594 18.007812 -4.535156 18.902344 -4.871094 L 19.714844 -1.0625 C 18.957031 -0.785156 17.195312 -0.28125 13.863281 -0.28125 C 7.671875 -0.28125 2.042969 -5.320312 2.042969 -11.507812 C 2.042969 -17.699219 7.644531 -22.824219 13.863281 -22.824219 C 17.222656 -22.824219 18.988281 -22.289062 19.714844 -22.011719 L 18.902344 -18.203125 C 17.949219 -18.566406 16.492188 -19.042969 14.675781 -19.042969 C 8.960938 -19.042969 6.355469 -14.980469 6.355469 -11.566406 C 6.355469 -8.09375 8.960938 -4.058594 14.675781 -4.058594 Z M 14.675781 -4.058594 "/></g></g></g><g fill="#ffffff" fill-opacity="1"><g transform="translate(192.191002, 26.970953)"><g><path d="M 2.074219 -11.566406 C 2.074219 -17.921875 7.058594 -22.824219 13.023438 -22.824219 C 19.015625 -22.824219 23.941406 -17.921875 23.941406 -11.566406 C 23.941406 -5.152344 19.238281 -0.28125 13.023438 -0.28125 C 6.582031 -0.28125 2.074219 -5.152344 2.074219 -11.566406 Z M 0.671875 -11.566406 C 0.671875 -4.453125 5.769531 1.121094 13.023438 1.121094 C 20.050781 1.121094 25.34375 -4.453125 25.34375 -11.566406 C 25.34375 -18.679688 19.828125 -24.222656 13.023438 -24.222656 C 6.246094 -24.222656 0.671875 -18.679688 0.671875 -11.566406 Z M 6.355469 -11.566406 C 6.355469 -7.925781 8.175781 -3.976562 13.023438 -3.976562 C 17.726562 -3.976562 19.660156 -7.925781 19.660156 -11.566406 C 19.660156 -15.207031 17.613281 -19.15625 13.023438 -19.15625 C 8.429688 -19.15625 6.355469 -15.207031 6.355469 -11.566406 Z M 7.757812 -11.566406 C 7.757812 -14.785156 9.464844 -17.753906 13.023438 -17.753906 C 16.578125 -17.753906 18.257812 -14.785156 18.257812 -11.566406 C 18.257812 -8.289062 16.691406 -5.375 13.023438 -5.375 C 9.214844 -5.375 7.757812 -8.289062 7.757812 -11.566406 Z M 7.757812 -11.566406 "/></g></g></g><g fill="#ffffff" fill-opacity="1"><g transform="translate(225.988448, 26.970953)"><g><path d="M 6.300781 -14.335938 L 6.300781 -0.699219 L 2.4375 -0.699219 L 2.4375 -22.402344 L 6.609375 -22.402344 L 15.570312 -8.375 C 15.710938 -8.175781 15.933594 -8.066406 16.1875 -8.066406 L 16.242188 -8.066406 C 16.664062 -8.066406 16.941406 -8.457031 16.941406 -8.765625 L 16.941406 -22.402344 L 20.808594 -22.402344 L 20.808594 -0.699219 L 16.605469 -0.699219 L 7.644531 -14.703125 C 7.503906 -14.898438 7.28125 -15.039062 7.058594 -15.039062 L 7 -15.039062 C 6.554688 -15.039062 6.300781 -14.617188 6.300781 -14.335938 Z M 7.699219 -12.011719 L 15.625 0.390625 C 15.765625 0.589844 15.988281 0.699219 16.242188 0.699219 L 21.507812 0.699219 C 21.785156 0.699219 22.207031 0.449219 22.207031 0 L 22.207031 -23.101562 C 22.207031 -23.382812 21.925781 -23.804688 21.507812 -23.804688 L 16.242188 -23.804688 C 15.933594 -23.804688 15.542969 -23.523438 15.542969 -23.101562 L 15.542969 -11.0625 L 7.589844 -23.46875 C 7.449219 -23.664062 7.226562 -23.804688 7 -23.804688 L 1.734375 -23.804688 C 1.429688 -23.804688 1.035156 -23.523438 1.035156 -23.101562 L 1.035156 0 C 1.035156 0.308594 1.289062 0.699219 1.734375 0.699219 L 7 0.699219 C 7.28125 0.699219 7.699219 0.449219 7.699219 0 Z M 7.699219 -12.011719 "/></g></g></g><g fill="#ffffff" fill-opacity="1"><g transform="translate(256.958192, 26.970953)"><g><path d="M 1.933594 -19.183594 L 1.933594 -22.402344 L 16.773438 -22.402344 L 16.773438 -19.183594 L 11.984375 -19.183594 C 11.539062 -19.183594 11.285156 -18.761719 11.285156 -18.480469 L 11.285156 -0.699219 L 7.421875 -0.699219 L 7.421875 -18.480469 C 7.421875 -18.902344 7 -19.183594 6.722656 -19.183594 Z M 0.53125 -18.480469 C 0.53125 -18.175781 0.785156 -17.78125 1.230469 -17.78125 L 6.019531 -17.78125 L 6.019531 0 C 6.019531 0.308594 6.273438 0.699219 6.722656 0.699219 L 11.984375 0.699219 C 12.265625 0.699219 12.6875 0.449219 12.6875 0 L 12.6875 -17.78125 L 17.472656 -17.78125 C 17.753906 -17.78125 18.175781 -18.035156 18.175781 -18.480469 L 18.175781 -23.101562 C 18.175781 -23.382812 17.894531 -23.804688 17.472656 -23.804688 L 1.230469 -23.804688 C 0.925781 -23.804688 0.53125 -23.523438 0.53125 -23.101562 Z M 0.53125 -18.480469 "/></g></g></g><g fill="#ffffff" fill-opacity="1"><g transform="translate(283.392398, 26.970953)"><g><path d="M 14.8125 -22.402344 L 23.550781 -0.699219 L 19.433594 -0.699219 L 17.894531 -4.84375 C 17.78125 -5.125 17.53125 -5.320312 17.25 -5.320312 L 8.457031 -5.320312 C 8.148438 -5.320312 7.898438 -5.125 7.785156 -4.84375 L 6.246094 -0.699219 L 2.128906 -0.699219 L 10.867188 -22.402344 Z M 15.933594 -23.355469 C 15.820312 -23.605469 15.570312 -23.804688 15.289062 -23.804688 L 10.417969 -23.804688 C 10.136719 -23.804688 9.855469 -23.605469 9.746094 -23.355469 L 0.421875 -0.253906 C 0 0.8125 1.09375 0.699219 1.09375 0.699219 L 6.75 0.699219 C 7.027344 0.699219 7.28125 0.53125 7.394531 0.253906 L 8.933594 -3.921875 L 16.746094 -3.921875 L 18.285156 0.253906 C 18.398438 0.53125 18.652344 0.699219 18.957031 0.699219 L 24.613281 0.699219 C 25.734375 0.699219 25.257812 -0.253906 25.257812 -0.253906 Z M 16.101562 -9.492188 L 13.46875 -16.214844 C 13.46875 -16.214844 12.628906 -17.472656 12.152344 -16.1875 L 9.578125 -9.464844 C 9.578125 -9.464844 9.128906 -8.542969 10.25 -8.542969 L 15.457031 -8.542969 C 15.457031 -8.542969 16.492188 -8.429688 16.101562 -9.492188 Z M 14.421875 -9.941406 L 11.257812 -9.941406 L 12.824219 -14 Z M 14.421875 -9.941406 "/></g></g></g><g fill="#ffffff" fill-opacity="1"><g transform="translate(316.7699, 26.970953)"><g><path d="M 19.070312 -16.605469 L 19.460938 -16.523438 C 19.769531 -16.550781 20.023438 -16.773438 20.078125 -17.054688 L 21.199219 -22.234375 C 21.253906 -22.515625 21.144531 -22.796875 20.890625 -22.964844 C 20.777344 -23.074219 18.957031 -24.222656 13.863281 -24.222656 C 6.945312 -24.222656 0.644531 -18.566406 0.644531 -11.507812 C 0.644531 -4.453125 6.972656 1.121094 13.863281 1.121094 C 18.957031 1.121094 20.75 0 20.917969 -0.113281 C 21.113281 -0.253906 21.253906 -0.558594 21.199219 -0.839844 L 20.078125 -6.019531 C 19.882812 -6.917969 19.183594 -6.554688 19.070312 -6.496094 C 19.015625 -6.46875 17.136719 -5.460938 14.675781 -5.460938 C 9.773438 -5.460938 7.757812 -8.792969 7.757812 -11.566406 C 7.757812 -14.28125 9.773438 -17.640625 14.675781 -17.640625 C 17.109375 -17.640625 19.015625 -16.605469 19.070312 -16.605469 Z M 14.675781 -4.058594 C 16.492188 -4.058594 18.007812 -4.535156 18.902344 -4.871094 L 19.714844 -1.0625 C 18.957031 -0.785156 17.195312 -0.28125 13.863281 -0.28125 C 7.671875 -0.28125 2.042969 -5.320312 2.042969 -11.507812 C 2.042969 -17.699219 7.644531 -22.824219 13.863281 -22.824219 C 17.222656 -22.824219 18.988281 -22.289062 19.714844 -22.011719 L 18.902344 -18.203125 C 17.949219 -18.566406 16.492188 -19.042969 14.675781 -19.042969 C 8.960938 -19.042969 6.355469 -14.980469 6.355469 -11.566406 C 6.355469 -8.09375 8.960938 -4.058594 14.675781 -4.058594 Z M 14.675781 -4.058594 "/></g></g></g><g fill="#ffffff" fill-opacity="1"><g transform="translate(346.255792, 26.970953)"><g><path d="M 1.933594 -19.183594 L 1.933594 -22.402344 L 16.773438 -22.402344 L 16.773438 -19.183594 L 11.984375 -19.183594 C 11.539062 -19.183594 11.285156 -18.761719 11.285156 -18.480469 L 11.285156 -0.699219 L 7.421875 -0.699219 L 7.421875 -18.480469 C 7.421875 -18.902344 7 -19.183594 6.722656 -19.183594 Z M 0.53125 -18.480469 C 0.53125 -18.175781 0.785156 -17.78125 1.230469 -17.78125 L 6.019531 -17.78125 L 6.019531 0 C 6.019531 0.308594 6.273438 0.699219 6.722656 0.699219 L 11.984375 0.699219 C 12.265625 0.699219 12.6875 0.449219 12.6875 0 L 12.6875 -17.78125 L 17.472656 -17.78125 C 17.753906 -17.78125 18.175781 -18.035156 18.175781 -18.480469 L 18.175781 -23.101562 C 18.175781 -23.382812 17.894531 -23.804688 17.472656 -23.804688 L 1.230469 -23.804688 C 0.925781 -23.804688 0.53125 -23.523438 0.53125 -23.101562 Z M 0.53125 -18.480469 "/></g></g></g><g fill="#ffffff" fill-opacity="1"><g transform="translate(372.689999, 26.970953)"><g/></g></g><g fill="#ffffff" fill-opacity="1"><g transform="translate(384.425727, 26.970953)"><g><path d="M 15.207031 -0.839844 L 13.386719 -0.839844 L 7.671875 -14.898438 C 7.671875 -14.898438 6.328125 -15.484375 6.328125 -14.644531 L 6.273438 -0.699219 L 2.4375 -0.699219 L 2.4375 -22.402344 L 8.679688 -22.402344 L 13.636719 -9.519531 C 13.636719 -9.519531 14.449219 -8.234375 14.953125 -9.519531 L 19.910156 -22.402344 L 26.183594 -22.402344 L 26.183594 -0.699219 L 22.320312 -0.699219 L 22.289062 -14.644531 C 22.289062 -14.644531 21.253906 -15.683594 20.917969 -14.898438 Z M 15.683594 0.558594 C 15.933594 0.558594 16.214844 0.390625 16.324219 0.140625 L 20.890625 -11.089844 L 20.945312 0.0273438 C 20.945312 0.363281 21.226562 0.699219 21.648438 0.699219 L 26.882812 0.699219 C 27.164062 0.699219 27.582031 0.449219 27.582031 0 L 27.582031 -23.101562 C 27.582031 -23.382812 27.304688 -23.804688 26.882812 -23.804688 L 19.433594 -23.804688 C 19.15625 -23.804688 18.875 -23.605469 18.761719 -23.328125 L 14.308594 -11.707031 L 9.828125 -23.328125 C 9.71875 -23.605469 9.464844 -23.804688 9.183594 -23.804688 L 1.734375 -23.804688 C 1.429688 -23.804688 1.035156 -23.523438 1.035156 -23.101562 L 1.035156 0 C 1.035156 0.308594 1.289062 0.699219 1.734375 0.699219 L 6.972656 0.699219 C 7.308594 0.699219 7.644531 0.421875 7.671875 0.0273438 L 7.699219 -11.089844 L 12.265625 0.140625 C 12.378906 0.390625 12.628906 0.558594 12.9375 0.558594 Z M 15.683594 0.558594 "/></g></g></g><g fill="#ffffff" fill-opacity="1"><g transform="translate(420.770914, 26.970953)"><g><path d="M 14.253906 -22.402344 L 14.253906 -19.183594 L 7 -19.183594 C 6.554688 -19.183594 6.300781 -18.761719 6.300781 -18.480469 L 6.300781 -13.890625 C 6.300781 -13.441406 6.691406 -13.191406 7 -13.191406 L 13.917969 -13.191406 L 13.917969 -9.96875 L 7 -9.96875 C 6.554688 -9.96875 6.300781 -9.550781 6.300781 -9.269531 L 6.300781 -4.621094 C 6.300781 -4.171875 6.691406 -3.921875 7 -3.921875 L 14.253906 -3.921875 L 14.253906 -0.699219 L 2.4375 -0.699219 L 2.4375 -22.402344 Z M 15.652344 -23.101562 C 15.652344 -23.382812 15.375 -23.804688 14.953125 -23.804688 L 1.734375 -23.804688 C 1.429688 -23.804688 1.035156 -23.523438 1.035156 -23.101562 L 1.035156 0 C 1.035156 0.308594 1.289062 0.699219 1.734375 0.699219 L 14.953125 0.699219 C 15.234375 0.699219 15.652344 0.449219 15.652344 0 L 15.652344 -4.621094 C 15.652344 -4.902344 15.375 -5.320312 14.953125 -5.320312 L 7.699219 -5.320312 L 7.699219 -8.570312 L 14.617188 -8.570312 C 14.898438 -8.570312 15.316406 -8.820312 15.316406 -9.269531 L 15.316406 -13.890625 C 15.316406 -14.167969 15.039062 -14.589844 14.617188 -14.589844 L 7.699219 -14.589844 L 7.699219 -17.78125 L 14.953125 -17.78125 C 15.234375 -17.78125 15.652344 -18.035156 15.652344 -18.480469 Z M 15.652344 -23.101562 "/></g></g></g></svg>