<svg xmlns="http://www.w3.org/2000/svg" xmlns:xlink="http://www.w3.org/1999/xlink" width="276" zoomAndPan="magnify" viewBox="0 0 206.87999 74.999997" height="100" preserveAspectRatio="xMidYMid meet" version="1.0"><defs><clipPath id="2cd696c5c3"><path d="M 1.234375 0.0234375 L 76.191406 0.0234375 L 76.191406 74.976562 L 1.234375 74.976562 Z M 1.234375 0.0234375 " clip-rule="nonzero"/></clipPath><clipPath id="f7edcb8a79"><path d="M 91.160156 6.457031 L 153.375 6.457031 L 153.375 68.671875 L 91.160156 68.671875 Z M 91.160156 6.457031 " clip-rule="nonzero"/></clipPath><clipPath id="db4c7c4de2"><path d="M 168.164062 18.761719 L 205.644531 18.761719 L 205.644531 56.238281 L 168.164062 56.238281 Z M 168.164062 18.761719 " clip-rule="nonzero"/></clipPath></defs><g clip-path="url(#2cd696c5c3)"><path fill="#6371c7" d="M 38.714844 74.976562 C 18.007812 74.976562 1.234375 58.089844 1.234375 37.5 C 1.234375 16.910156 18.007812 0.0234375 38.714844 0.0234375 C 59.421875 0.0234375 76.191406 16.792969 76.191406 37.5 C 76.191406 58.207031 59.304688 74.976562 38.714844 74.976562 Z M 38.714844 2.335938 C 19.28125 2.335938 3.550781 18.066406 3.550781 37.5 C 3.550781 56.933594 19.28125 72.664062 38.714844 72.664062 C 58.148438 72.664062 73.878906 56.933594 73.878906 37.5 C 73.878906 18.066406 58.03125 2.335938 38.714844 2.335938 Z M 38.714844 2.335938 " fill-opacity="1" fill-rule="nonzero"/></g><g clip-path="url(#f7edcb8a79)"><path fill="#6371c7" d="M 122.265625 68.671875 C 105.082031 68.671875 91.160156 54.652344 91.160156 37.5625 C 91.160156 20.472656 105.082031 6.457031 122.265625 6.457031 C 139.453125 6.457031 153.375 20.378906 153.375 37.5625 C 153.375 54.75 139.355469 68.671875 122.265625 68.671875 Z M 122.265625 8.378906 C 106.136719 8.378906 93.082031 21.433594 93.082031 37.5625 C 93.082031 53.695312 106.136719 66.75 122.265625 66.75 C 138.398438 66.75 151.453125 53.695312 151.453125 37.5625 C 151.453125 21.433594 138.300781 8.378906 122.265625 8.378906 Z M 122.265625 8.378906 " fill-opacity="1" fill-rule="nonzero"/></g><g clip-path="url(#db4c7c4de2)"><path fill="#6371c7" d="M 186.90625 56.238281 C 176.550781 56.238281 168.164062 47.796875 168.164062 37.5 C 168.164062 27.203125 176.550781 18.761719 186.90625 18.761719 C 197.257812 18.761719 205.644531 27.148438 205.644531 37.5 C 205.644531 47.851562 197.199219 56.238281 186.90625 56.238281 Z M 186.90625 19.917969 C 177.1875 19.917969 169.320312 27.785156 169.320312 37.5 C 169.320312 47.214844 177.1875 55.082031 186.90625 55.082031 C 196.621094 55.082031 204.488281 47.214844 204.488281 37.5 C 204.488281 27.785156 196.5625 19.917969 186.90625 19.917969 Z M 186.90625 19.917969 " fill-opacity="1" fill-rule="nonzero"/></g></svg>