<svg xmlns="http://www.w3.org/2000/svg" xmlns:xlink="http://www.w3.org/1999/xlink" width="1200" zoomAndPan="magnify" viewBox="0 0 900 899.99999" height="1200" preserveAspectRatio="xMidYMid meet" version="1.0"><defs><clipPath id="15940b668d"><path d="M 167.25 51 L 231 51 L 231 581.210938 L 167.25 581.210938 Z M 167.25 51 " clip-rule="nonzero"/></clipPath><clipPath id="bb42f22a08"><path d="M 167.242188 549.671875 L 490.492188 549.671875 L 490.492188 613.421875 L 167.242188 613.421875 Z M 167.242188 549.671875 " clip-rule="nonzero"/></clipPath><clipPath id="4292481929"><path d="M 167.25 300.214844 L 439.5 300.214844 L 439.5 363.964844 L 167.25 363.964844 Z M 167.25 300.214844 " clip-rule="nonzero"/></clipPath><clipPath id="77a6b27502"><path d="M 409.5 331.925781 L 473.25 331.925781 L 473.25 816.425781 L 409.5 816.425781 Z M 409.5 331.925781 " clip-rule="nonzero"/></clipPath><clipPath id="a0386cc65d"><path d="M 409.5 299.972656 L 696 299.972656 L 696 363.722656 L 409.5 363.722656 Z M 409.5 299.972656 " clip-rule="nonzero"/></clipPath><clipPath id="cce1440b3a"><path d="M 409.496094 549.671875 L 732.746094 549.671875 L 732.746094 613.421875 L 409.496094 613.421875 Z M 409.496094 549.671875 " clip-rule="nonzero"/></clipPath><clipPath id="55deefce01"><path d="M 409.5 788.03125 L 696 788.03125 L 696 851.78125 L 409.5 851.78125 Z M 409.5 788.03125 " clip-rule="nonzero"/></clipPath><clipPath id="7cd0fda7a2"><path d="M 659 299 L 733 299 L 733 364 L 659 364 Z M 659 299 " clip-rule="nonzero"/></clipPath><clipPath id="8f20c101d1"><path d="M 640.6875 331.691406 L 677.679688 268.097656 L 732.757812 300.132812 L 695.761719 363.730469 Z M 640.6875 331.691406 " clip-rule="nonzero"/></clipPath><clipPath id="d70af0b255"><path d="M 659.179688 788.078125 L 732.75 788.078125 L 732.75 851.792969 L 659.179688 851.792969 Z M 659.179688 788.078125 " clip-rule="nonzero"/></clipPath><clipPath id="d87c7bdff7"><path d="M 167.25 50.078125 L 453.75 50.078125 L 453.75 113.828125 L 167.25 113.828125 Z M 167.25 50.078125 " clip-rule="nonzero"/></clipPath><clipPath id="194d6e3551"><path d="M 416 50 L 491 50 L 491 114 L 416 114 Z M 416 50 " clip-rule="nonzero"/></clipPath><clipPath id="df903e1eb0"><path d="M 398.433594 81.796875 L 435.429688 18.203125 L 490.503906 50.238281 L 453.507812 113.835938 Z M 398.433594 81.796875 " clip-rule="nonzero"/></clipPath></defs><rect x="-90" width="1080" fill="#ffffff" y="-89.999999" height="1079.999988" fill-opacity="1"/><rect x="-90" width="1080" fill="#ffffff" y="-89.999999" height="1079.999988" fill-opacity="1"/><rect x="-90" width="1080" fill="#6371c7" y="-89.999999" height="1079.999988" fill-opacity="1"/><g clip-path="url(#15940b668d)"><path fill="#ffffff" d="M 167.25 51.003906 L 231 51.003906 L 231 581.171875 L 167.25 581.171875 L 167.25 51.003906 " fill-opacity="1" fill-rule="nonzero"/></g><g clip-path="url(#bb42f22a08)"><path fill="#ffffff" d="M 167.269531 613.421875 L 167.269531 549.671875 L 490.46875 549.671875 L 490.46875 613.421875 L 167.269531 613.421875 " fill-opacity="1" fill-rule="nonzero"/></g><g clip-path="url(#4292481929)"><path fill="#ffffff" d="M 167.265625 363.964844 L 167.265625 300.214844 L 439.480469 300.214844 L 439.480469 363.964844 L 167.265625 363.964844 " fill-opacity="1" fill-rule="nonzero"/></g><g clip-path="url(#77a6b27502)"><path fill="#202752" d="M 409.5 331.960938 L 473.25 331.960938 L 473.25 816.386719 L 409.5 816.386719 L 409.5 331.960938 " fill-opacity="1" fill-rule="nonzero"/></g><g clip-path="url(#a0386cc65d)"><path fill="#202752" d="M 409.519531 363.722656 L 409.519531 299.972656 L 695.984375 299.972656 L 695.984375 363.722656 L 409.519531 363.722656 " fill-opacity="1" fill-rule="nonzero"/></g><g clip-path="url(#cce1440b3a)"><path fill="#202752" d="M 409.519531 613.421875 L 409.519531 549.671875 L 732.722656 549.671875 L 732.722656 613.421875 L 409.519531 613.421875 " fill-opacity="1" fill-rule="nonzero"/></g><g clip-path="url(#55deefce01)"><path fill="#202752" d="M 409.519531 851.78125 L 409.519531 788.03125 L 695.984375 788.03125 L 695.984375 851.78125 L 409.519531 851.78125 " fill-opacity="1" fill-rule="nonzero"/></g><g clip-path="url(#7cd0fda7a2)"><g clip-path="url(#8f20c101d1)"><path fill="#202752" d="M 695.761719 363.730469 L 659.183594 299.894531 L 732.757812 300.132812 Z M 695.761719 363.730469 " fill-opacity="1" fill-rule="nonzero"/></g></g><g clip-path="url(#d70af0b255)"><path fill="#202752" d="M 659.179688 851.792969 L 695.964844 788.078125 L 732.75 851.792969 Z M 659.179688 851.792969 " fill-opacity="1" fill-rule="nonzero"/></g><g clip-path="url(#d87c7bdff7)"><path fill="#ffffff" d="M 167.265625 113.828125 L 167.265625 50.078125 L 453.730469 50.078125 L 453.730469 113.828125 L 167.265625 113.828125 " fill-opacity="1" fill-rule="nonzero"/></g><g clip-path="url(#194d6e3551)"><g clip-path="url(#df903e1eb0)"><path fill="#ffffff" d="M 453.507812 113.835938 L 416.929688 50 L 490.503906 50.238281 Z M 453.507812 113.835938 " fill-opacity="1" fill-rule="nonzero"/></g></g></svg>