<svg xmlns="http://www.w3.org/2000/svg" xmlns:xlink="http://www.w3.org/1999/xlink" width="200" zoomAndPan="magnify" viewBox="0 0 150 149.999998" height="200" preserveAspectRatio="xMidYMid meet" version="1.0"><defs><clipPath id="4a0b05d6b4"><path d="M 0 21.46875 L 150 21.46875 L 150 128.71875 L 0 128.71875 Z M 0 21.46875 " clip-rule="nonzero"/></clipPath></defs><g clip-path="url(#4a0b05d6b4)"><path fill="#6371c7" d="M 16.117188 21.46875 C 7.246094 21.46875 0.0546875 28.660156 0.0546875 37.554688 C 0.253906 61.949219 0.0585938 87.769531 0.0546875 112.632812 C 0.0546875 121.191406 6.703125 128.121094 15.113281 128.636719 L 134.554688 128.71875 C 143.117188 128.371094 149.945312 121.304688 149.945312 112.632812 L 149.945312 34.792969 C 148.644531 27.207031 142.070312 21.46875 134.136719 21.46875 C 94.816406 21.488281 55.449219 21.46875 16.113281 21.46875 Z M 15.863281 29.929688 L 134.636719 29.929688 L 77.175781 87.496094 C 76.125 88.546875 74.457031 88.546875 73.410156 87.496094 Z M 141.914062 34.035156 L 141.914062 112.046875 C 141.914062 116.691406 140.242188 119.316406 136.894531 120.257812 L 96.414062 79.621094 L 141.914062 34.039062 Z M 9.007812 34.371094 L 53.757812 79.199219 L 12.855469 120.171875 C 10.054688 119.226562 9.082031 116.96875 9.007812 113.886719 Z M 59.445312 84.8125 L 73.414062 98.886719 C 74.460938 99.9375 76.128906 99.9375 77.175781 98.886719 L 90.726562 85.3125 L 126.023438 120.675781 L 23.648438 120.675781 Z M 59.445312 84.8125 " fill-opacity="1" fill-rule="nonzero"/></g></svg>