<svg xmlns="http://www.w3.org/2000/svg" xmlns:xlink="http://www.w3.org/1999/xlink" width="800" zoomAndPan="magnify" viewBox="0 0 600 30.000001" height="40" preserveAspectRatio="xMidYMid meet" version="1.0"><defs><g/></defs><g fill="#ffffff" fill-opacity="1"><g transform="translate(172.043535, 26.970953)"><g><path d="M 14.253906 -22.402344 L 14.253906 -19.183594 L 7 -19.183594 C 6.554688 -19.183594 6.300781 -18.761719 6.300781 -18.480469 L 6.300781 -13.890625 C 6.300781 -13.441406 6.691406 -13.191406 7 -13.191406 L 13.917969 -13.191406 L 13.917969 -9.96875 L 7 -9.96875 C 6.554688 -9.96875 6.300781 -9.550781 6.300781 -9.269531 L 6.300781 -4.621094 C 6.300781 -4.171875 6.691406 -3.921875 7 -3.921875 L 14.253906 -3.921875 L 14.253906 -0.699219 L 2.4375 -0.699219 L 2.4375 -22.402344 Z M 15.652344 -23.101562 C 15.652344 -23.382812 15.375 -23.804688 14.953125 -23.804688 L 1.734375 -23.804688 C 1.429688 -23.804688 1.035156 -23.523438 1.035156 -23.101562 L 1.035156 0 C 1.035156 0.308594 1.289062 0.699219 1.734375 0.699219 L 14.953125 0.699219 C 15.234375 0.699219 15.652344 0.449219 15.652344 0 L 15.652344 -4.621094 C 15.652344 -4.902344 15.375 -5.320312 14.953125 -5.320312 L 7.699219 -5.320312 L 7.699219 -8.570312 L 14.617188 -8.570312 C 14.898438 -8.570312 15.316406 -8.820312 15.316406 -9.269531 L 15.316406 -13.890625 C 15.316406 -14.167969 15.039062 -14.589844 14.617188 -14.589844 L 7.699219 -14.589844 L 7.699219 -17.78125 L 14.953125 -17.78125 C 15.234375 -17.78125 15.652344 -18.035156 15.652344 -18.480469 Z M 15.652344 -23.101562 "/></g></g></g><g fill="#ffffff" fill-opacity="1"><g transform="translate(196.209984, 26.970953)"><g><path d="M 23.859375 -0.699219 L 18.820312 -0.699219 L 13.554688 -8.261719 C 13.554688 -8.261719 13.050781 -9.15625 12.40625 -8.261719 L 7.140625 -0.699219 L 2.351562 -0.699219 L 10.304688 -12.011719 C 10.472656 -12.265625 10.472656 -12.574219 10.304688 -12.824219 L 3.78125 -22.402344 L 8.34375 -22.402344 L 12.40625 -16.410156 C 12.40625 -16.410156 12.9375 -15.457031 13.554688 -16.410156 L 17.613281 -22.402344 L 22.429688 -22.402344 L 15.652344 -12.824219 C 15.484375 -12.574219 15.515625 -12.210938 15.652344 -12.011719 Z M 25.257812 0.699219 C 26.632812 0.699219 25.820312 -0.390625 25.820312 -0.390625 L 17.082031 -12.433594 L 24.363281 -22.683594 C 25.148438 -23.804688 23.804688 -23.804688 23.804688 -23.804688 L 17.25 -23.804688 C 17.027344 -23.804688 16.773438 -23.664062 16.664062 -23.46875 L 12.992188 -18.035156 L 9.296875 -23.46875 C 9.183594 -23.664062 8.960938 -23.804688 8.738281 -23.804688 L 2.464844 -23.804688 C 1.09375 -23.804688 1.875 -22.683594 1.875 -22.683594 L 8.878906 -12.433594 L 0.421875 -0.390625 C -0.363281 0.726562 1.007812 0.699219 1.007812 0.699219 L 7.53125 0.699219 C 7.730469 0.699219 7.953125 0.617188 8.09375 0.421875 L 12.992188 -6.636719 L 17.867188 0.421875 C 17.976562 0.589844 18.203125 0.699219 18.453125 0.699219 Z M 25.257812 0.699219 "/></g></g></g><g fill="#ffffff" fill-opacity="1"><g transform="translate(230.147412, 26.970953)"><g><path d="M 7 -12.070312 L 8.457031 -12.070312 C 10.585938 -12.070312 13.191406 -12.882812 13.191406 -15.820312 C 13.191406 -18.761719 10.613281 -19.601562 8.457031 -19.601562 L 7 -19.601562 C 6.554688 -19.601562 6.300781 -19.183594 6.300781 -18.902344 L 6.300781 -12.769531 C 6.300781 -12.320312 6.691406 -12.070312 7 -12.070312 Z M 7.699219 -13.46875 L 7.699219 -18.203125 L 8.457031 -18.203125 C 10.417969 -18.203125 11.789062 -17.613281 11.789062 -15.820312 C 11.789062 -14.03125 10.445312 -13.46875 8.457031 -13.46875 Z M 2.4375 -22.402344 L 10.136719 -22.402344 C 14.394531 -22.402344 17.335938 -20.300781 17.335938 -15.988281 C 17.335938 -11.648438 14.335938 -9.269531 10.136719 -9.269531 L 7 -9.269531 C 6.554688 -9.269531 6.300781 -8.847656 6.300781 -8.570312 L 6.300781 -0.699219 L 2.4375 -0.699219 Z M 1.734375 -23.804688 C 1.429688 -23.804688 1.035156 -23.523438 1.035156 -23.101562 L 1.035156 0 C 1.035156 0.308594 1.289062 0.699219 1.734375 0.699219 L 7 0.699219 C 7.28125 0.699219 7.699219 0.449219 7.699219 0 L 7.699219 -7.867188 L 10.136719 -7.867188 C 14.925781 -7.867188 18.734375 -10.78125 18.734375 -15.988281 C 18.734375 -21.226562 14.871094 -23.804688 10.136719 -23.804688 Z M 1.734375 -23.804688 "/></g></g></g><g fill="#ffffff" fill-opacity="1"><g transform="translate(257.197563, 26.970953)"><g><path d="M 14.253906 -22.402344 L 14.253906 -19.183594 L 7 -19.183594 C 6.554688 -19.183594 6.300781 -18.761719 6.300781 -18.480469 L 6.300781 -13.890625 C 6.300781 -13.441406 6.691406 -13.191406 7 -13.191406 L 13.917969 -13.191406 L 13.917969 -9.96875 L 7 -9.96875 C 6.554688 -9.96875 6.300781 -9.550781 6.300781 -9.269531 L 6.300781 -4.621094 C 6.300781 -4.171875 6.691406 -3.921875 7 -3.921875 L 14.253906 -3.921875 L 14.253906 -0.699219 L 2.4375 -0.699219 L 2.4375 -22.402344 Z M 15.652344 -23.101562 C 15.652344 -23.382812 15.375 -23.804688 14.953125 -23.804688 L 1.734375 -23.804688 C 1.429688 -23.804688 1.035156 -23.523438 1.035156 -23.101562 L 1.035156 0 C 1.035156 0.308594 1.289062 0.699219 1.734375 0.699219 L 14.953125 0.699219 C 15.234375 0.699219 15.652344 0.449219 15.652344 0 L 15.652344 -4.621094 C 15.652344 -4.902344 15.375 -5.320312 14.953125 -5.320312 L 7.699219 -5.320312 L 7.699219 -8.570312 L 14.617188 -8.570312 C 14.898438 -8.570312 15.316406 -8.820312 15.316406 -9.269531 L 15.316406 -13.890625 C 15.316406 -14.167969 15.039062 -14.589844 14.617188 -14.589844 L 7.699219 -14.589844 L 7.699219 -17.78125 L 14.953125 -17.78125 C 15.234375 -17.78125 15.652344 -18.035156 15.652344 -18.480469 Z M 15.652344 -23.101562 "/></g></g></g><g fill="#ffffff" fill-opacity="1"><g transform="translate(281.364012, 26.970953)"><g><path d="M 2.4375 -22.402344 L 10.164062 -22.402344 C 14.421875 -22.402344 17.363281 -20.300781 17.363281 -15.988281 C 17.363281 -12.992188 15.960938 -11.003906 13.804688 -9.996094 C 13.554688 -9.886719 13.160156 -9.519531 13.527344 -8.988281 L 18.988281 -0.699219 L 14.871094 -0.699219 L 9.4375 -8.933594 C 9.324219 -9.128906 9.074219 -9.269531 8.878906 -9.269531 L 7 -9.269531 C 6.554688 -9.269531 6.300781 -8.847656 6.300781 -8.570312 L 6.300781 -0.699219 L 2.4375 -0.699219 Z M 1.734375 -23.804688 C 1.429688 -23.804688 1.035156 -23.523438 1.035156 -23.101562 L 1.035156 0 C 1.035156 0.308594 1.289062 0.699219 1.734375 0.699219 L 7 0.699219 C 7.28125 0.699219 7.699219 0.449219 7.699219 0 L 7.699219 -7.867188 L 8.484375 -7.867188 L 13.917969 0.390625 C 14.03125 0.589844 14.253906 0.699219 14.507812 0.699219 L 20.300781 0.699219 C 21.648438 0.699219 20.863281 -0.363281 20.863281 -0.363281 L 15.121094 -9.101562 C 17.335938 -10.445312 18.761719 -12.824219 18.761719 -15.988281 C 18.761719 -21.226562 14.898438 -23.804688 10.164062 -23.804688 Z M 7 -12.070312 L 8.484375 -12.070312 C 10.613281 -12.070312 13.21875 -12.882812 13.21875 -15.820312 C 13.21875 -18.761719 10.640625 -19.601562 8.484375 -19.601562 L 7 -19.601562 C 6.554688 -19.601562 6.300781 -19.183594 6.300781 -18.902344 L 6.300781 -12.769531 C 6.300781 -12.320312 6.691406 -12.070312 7 -12.070312 Z M 7.699219 -13.46875 L 7.699219 -18.203125 L 8.484375 -18.203125 C 10.445312 -18.203125 11.816406 -17.613281 11.816406 -15.820312 C 11.816406 -14.03125 10.472656 -13.46875 8.484375 -13.46875 Z M 7.699219 -13.46875 "/></g></g></g><g fill="#ffffff" fill-opacity="1"><g transform="translate(310.345959, 26.970953)"><g><path d="M 6.300781 -22.402344 L 6.300781 -0.699219 L 2.4375 -0.699219 L 2.4375 -22.402344 Z M 7.699219 -23.101562 C 7.699219 -23.382812 7.421875 -23.804688 7 -23.804688 L 1.734375 -23.804688 C 1.429688 -23.804688 1.035156 -23.523438 1.035156 -23.101562 L 1.035156 0 C 1.035156 0.308594 1.289062 0.699219 1.734375 0.699219 L 7 0.699219 C 7.28125 0.699219 7.699219 0.449219 7.699219 0 Z M 7.699219 -23.101562 "/></g></g></g><g fill="#ffffff" fill-opacity="1"><g transform="translate(326.813205, 26.970953)"><g><path d="M 14.253906 -22.402344 L 14.253906 -19.183594 L 7 -19.183594 C 6.554688 -19.183594 6.300781 -18.761719 6.300781 -18.480469 L 6.300781 -13.890625 C 6.300781 -13.441406 6.691406 -13.191406 7 -13.191406 L 13.917969 -13.191406 L 13.917969 -9.96875 L 7 -9.96875 C 6.554688 -9.96875 6.300781 -9.550781 6.300781 -9.269531 L 6.300781 -4.621094 C 6.300781 -4.171875 6.691406 -3.921875 7 -3.921875 L 14.253906 -3.921875 L 14.253906 -0.699219 L 2.4375 -0.699219 L 2.4375 -22.402344 Z M 15.652344 -23.101562 C 15.652344 -23.382812 15.375 -23.804688 14.953125 -23.804688 L 1.734375 -23.804688 C 1.429688 -23.804688 1.035156 -23.523438 1.035156 -23.101562 L 1.035156 0 C 1.035156 0.308594 1.289062 0.699219 1.734375 0.699219 L 14.953125 0.699219 C 15.234375 0.699219 15.652344 0.449219 15.652344 0 L 15.652344 -4.621094 C 15.652344 -4.902344 15.375 -5.320312 14.953125 -5.320312 L 7.699219 -5.320312 L 7.699219 -8.570312 L 14.617188 -8.570312 C 14.898438 -8.570312 15.316406 -8.820312 15.316406 -9.269531 L 15.316406 -13.890625 C 15.316406 -14.167969 15.039062 -14.589844 14.617188 -14.589844 L 7.699219 -14.589844 L 7.699219 -17.78125 L 14.953125 -17.78125 C 15.234375 -17.78125 15.652344 -18.035156 15.652344 -18.480469 Z M 15.652344 -23.101562 "/></g></g></g><g fill="#ffffff" fill-opacity="1"><g transform="translate(350.979653, 26.970953)"><g><path d="M 6.300781 -14.335938 L 6.300781 -0.699219 L 2.4375 -0.699219 L 2.4375 -22.402344 L 6.609375 -22.402344 L 15.570312 -8.375 C 15.710938 -8.175781 15.933594 -8.066406 16.1875 -8.066406 L 16.242188 -8.066406 C 16.664062 -8.066406 16.941406 -8.457031 16.941406 -8.765625 L 16.941406 -22.402344 L 20.808594 -22.402344 L 20.808594 -0.699219 L 16.605469 -0.699219 L 7.644531 -14.703125 C 7.503906 -14.898438 7.28125 -15.039062 7.058594 -15.039062 L 7 -15.039062 C 6.554688 -15.039062 6.300781 -14.617188 6.300781 -14.335938 Z M 7.699219 -12.011719 L 15.625 0.390625 C 15.765625 0.589844 15.988281 0.699219 16.242188 0.699219 L 21.507812 0.699219 C 21.785156 0.699219 22.207031 0.449219 22.207031 0 L 22.207031 -23.101562 C 22.207031 -23.382812 21.925781 -23.804688 21.507812 -23.804688 L 16.242188 -23.804688 C 15.933594 -23.804688 15.542969 -23.523438 15.542969 -23.101562 L 15.542969 -11.0625 L 7.589844 -23.46875 C 7.449219 -23.664062 7.226562 -23.804688 7 -23.804688 L 1.734375 -23.804688 C 1.429688 -23.804688 1.035156 -23.523438 1.035156 -23.101562 L 1.035156 0 C 1.035156 0.308594 1.289062 0.699219 1.734375 0.699219 L 7 0.699219 C 7.28125 0.699219 7.699219 0.449219 7.699219 0 Z M 7.699219 -12.011719 "/></g></g></g><g fill="#ffffff" fill-opacity="1"><g transform="translate(381.949396, 26.970953)"><g><path d="M 19.070312 -16.605469 L 19.460938 -16.523438 C 19.769531 -16.550781 20.023438 -16.773438 20.078125 -17.054688 L 21.199219 -22.234375 C 21.253906 -22.515625 21.144531 -22.796875 20.890625 -22.964844 C 20.777344 -23.074219 18.957031 -24.222656 13.863281 -24.222656 C 6.945312 -24.222656 0.644531 -18.566406 0.644531 -11.507812 C 0.644531 -4.453125 6.972656 1.121094 13.863281 1.121094 C 18.957031 1.121094 20.75 0 20.917969 -0.113281 C 21.113281 -0.253906 21.253906 -0.558594 21.199219 -0.839844 L 20.078125 -6.019531 C 19.882812 -6.917969 19.183594 -6.554688 19.070312 -6.496094 C 19.015625 -6.46875 17.136719 -5.460938 14.675781 -5.460938 C 9.773438 -5.460938 7.757812 -8.792969 7.757812 -11.566406 C 7.757812 -14.28125 9.773438 -17.640625 14.675781 -17.640625 C 17.109375 -17.640625 19.015625 -16.605469 19.070312 -16.605469 Z M 14.675781 -4.058594 C 16.492188 -4.058594 18.007812 -4.535156 18.902344 -4.871094 L 19.714844 -1.0625 C 18.957031 -0.785156 17.195312 -0.28125 13.863281 -0.28125 C 7.671875 -0.28125 2.042969 -5.320312 2.042969 -11.507812 C 2.042969 -17.699219 7.644531 -22.824219 13.863281 -22.824219 C 17.222656 -22.824219 18.988281 -22.289062 19.714844 -22.011719 L 18.902344 -18.203125 C 17.949219 -18.566406 16.492188 -19.042969 14.675781 -19.042969 C 8.960938 -19.042969 6.355469 -14.980469 6.355469 -11.566406 C 6.355469 -8.09375 8.960938 -4.058594 14.675781 -4.058594 Z M 14.675781 -4.058594 "/></g></g></g><g fill="#ffffff" fill-opacity="1"><g transform="translate(411.435288, 26.970953)"><g><path d="M 14.253906 -22.402344 L 14.253906 -19.183594 L 7 -19.183594 C 6.554688 -19.183594 6.300781 -18.761719 6.300781 -18.480469 L 6.300781 -13.890625 C 6.300781 -13.441406 6.691406 -13.191406 7 -13.191406 L 13.917969 -13.191406 L 13.917969 -9.96875 L 7 -9.96875 C 6.554688 -9.96875 6.300781 -9.550781 6.300781 -9.269531 L 6.300781 -4.621094 C 6.300781 -4.171875 6.691406 -3.921875 7 -3.921875 L 14.253906 -3.921875 L 14.253906 -0.699219 L 2.4375 -0.699219 L 2.4375 -22.402344 Z M 15.652344 -23.101562 C 15.652344 -23.382812 15.375 -23.804688 14.953125 -23.804688 L 1.734375 -23.804688 C 1.429688 -23.804688 1.035156 -23.523438 1.035156 -23.101562 L 1.035156 0 C 1.035156 0.308594 1.289062 0.699219 1.734375 0.699219 L 14.953125 0.699219 C 15.234375 0.699219 15.652344 0.449219 15.652344 0 L 15.652344 -4.621094 C 15.652344 -4.902344 15.375 -5.320312 14.953125 -5.320312 L 7.699219 -5.320312 L 7.699219 -8.570312 L 14.617188 -8.570312 C 14.898438 -8.570312 15.316406 -8.820312 15.316406 -9.269531 L 15.316406 -13.890625 C 15.316406 -14.167969 15.039062 -14.589844 14.617188 -14.589844 L 7.699219 -14.589844 L 7.699219 -17.78125 L 14.953125 -17.78125 C 15.234375 -17.78125 15.652344 -18.035156 15.652344 -18.480469 Z M 15.652344 -23.101562 "/></g></g></g></svg>