<svg xmlns="http://www.w3.org/2000/svg" xmlns:xlink="http://www.w3.org/1999/xlink" width="800" zoomAndPan="magnify" viewBox="0 0 600 30.000001" height="40" preserveAspectRatio="xMidYMid meet" version="1.0"><defs><g/></defs><g fill="#ffffff" fill-opacity="1"><g transform="translate(42.910629, 26.245146)"><g><path d="M 14.394531 -22.402344 L 14.394531 -19.183594 L 7 -19.183594 C 6.554688 -19.183594 6.300781 -18.761719 6.300781 -18.480469 L 6.300781 -13.890625 C 6.300781 -13.441406 6.691406 -13.191406 7 -13.191406 L 13.777344 -13.191406 L 13.777344 -9.96875 L 7 -9.96875 C 6.554688 -9.96875 6.300781 -9.550781 6.300781 -9.269531 L 6.300781 -0.699219 L 2.4375 -0.699219 L 2.4375 -22.402344 Z M 15.792969 -23.101562 C 15.792969 -23.382812 15.515625 -23.804688 15.09375 -23.804688 L 1.734375 -23.804688 C 1.429688 -23.804688 1.035156 -23.523438 1.035156 -23.101562 L 1.035156 0 C 1.035156 0.308594 1.289062 0.699219 1.734375 0.699219 L 7 0.699219 C 7.28125 0.699219 7.699219 0.449219 7.699219 0 L 7.699219 -8.570312 L 14.476562 -8.570312 C 14.757812 -8.570312 15.179688 -8.820312 15.179688 -9.269531 L 15.179688 -13.890625 C 15.179688 -14.167969 14.898438 -14.589844 14.476562 -14.589844 L 7.699219 -14.589844 L 7.699219 -17.78125 L 15.09375 -17.78125 C 15.375 -17.78125 15.792969 -18.035156 15.792969 -18.480469 Z M 15.792969 -23.101562 "/></g></g></g><g fill="#ffffff" fill-opacity="1"><g transform="translate(67.021078, 26.245146)"><g><path d="M 18.957031 -22.402344 L 18.957031 -8.203125 C 18.957031 -2.828125 16.214844 -0.28125 10.640625 -0.28125 C 5.039062 -0.28125 2.324219 -2.828125 2.324219 -8.203125 L 2.324219 -22.402344 L 6.1875 -22.402344 L 6.1875 -9.746094 C 6.1875 -5.683594 7.644531 -4.058594 10.640625 -4.058594 C 13.609375 -4.058594 15.09375 -5.683594 15.09375 -9.746094 L 15.09375 -22.402344 Z M 20.359375 -23.101562 C 20.359375 -23.382812 20.078125 -23.804688 19.660156 -23.804688 L 14.394531 -23.804688 C 14.085938 -23.804688 13.695312 -23.523438 13.695312 -23.101562 L 13.695312 -9.746094 C 13.695312 -6.046875 12.796875 -5.460938 10.640625 -5.460938 C 8.457031 -5.460938 7.589844 -6.046875 7.589844 -9.746094 L 7.589844 -23.101562 C 7.589844 -23.382812 7.308594 -23.804688 6.890625 -23.804688 L 1.625 -23.804688 C 1.316406 -23.804688 0.925781 -23.523438 0.925781 -23.101562 L 0.925781 -8.203125 C 0.925781 -2.128906 4.453125 1.121094 10.640625 1.121094 C 16.800781 1.121094 20.359375 -2.128906 20.359375 -8.203125 Z M 20.359375 -23.101562 "/></g></g></g><g fill="#ffffff" fill-opacity="1"><g transform="translate(96.059025, 26.245146)"><g><path d="M 6.300781 -22.402344 L 6.300781 -4.621094 C 6.300781 -4.171875 6.691406 -3.921875 7 -3.921875 L 14.253906 -3.921875 L 14.253906 -0.699219 L 2.4375 -0.699219 L 2.4375 -22.402344 Z M 7.699219 -23.101562 C 7.699219 -23.382812 7.421875 -23.804688 7 -23.804688 L 1.734375 -23.804688 C 1.429688 -23.804688 1.035156 -23.523438 1.035156 -23.101562 L 1.035156 0 C 1.035156 0.308594 1.289062 0.699219 1.734375 0.699219 L 14.953125 0.699219 C 15.234375 0.699219 15.652344 0.449219 15.652344 0 L 15.652344 -4.621094 C 15.652344 -4.902344 15.375 -5.320312 14.953125 -5.320312 L 7.699219 -5.320312 Z M 7.699219 -23.101562 "/></g></g></g><g fill="#ffffff" fill-opacity="1"><g transform="translate(120.057492, 26.245146)"><g><path d="M 6.300781 -22.402344 L 6.300781 -4.621094 C 6.300781 -4.171875 6.691406 -3.921875 7 -3.921875 L 14.253906 -3.921875 L 14.253906 -0.699219 L 2.4375 -0.699219 L 2.4375 -22.402344 Z M 7.699219 -23.101562 C 7.699219 -23.382812 7.421875 -23.804688 7 -23.804688 L 1.734375 -23.804688 C 1.429688 -23.804688 1.035156 -23.523438 1.035156 -23.101562 L 1.035156 0 C 1.035156 0.308594 1.289062 0.699219 1.734375 0.699219 L 14.953125 0.699219 C 15.234375 0.699219 15.652344 0.449219 15.652344 0 L 15.652344 -4.621094 C 15.652344 -4.902344 15.375 -5.320312 14.953125 -5.320312 L 7.699219 -5.320312 Z M 7.699219 -23.101562 "/></g></g></g><g fill="#ffffff" fill-opacity="1"><g transform="translate(144.055958, 26.245146)"><g/></g></g><g fill="#ffffff" fill-opacity="1"><g transform="translate(155.791686, 26.245146)"><g><path d="M 10.640625 -22.824219 C 13.582031 -22.824219 15.933594 -21.648438 16.886719 -21.085938 L 15.375 -18.117188 C 14.476562 -18.621094 12.824219 -19.433594 11.003906 -19.433594 C 8.988281 -19.433594 7.5625 -18.398438 7.5625 -16.664062 C 7.5625 -14.644531 10.363281 -13.695312 12.796875 -12.65625 C 15.289062 -11.621094 17.78125 -9.578125 17.78125 -7.027344 C 17.78125 -2.015625 14.085938 -0.28125 9.773438 -0.28125 C 5.796875 -0.28125 3.023438 -2.015625 1.988281 -2.773438 L 3.921875 -5.992188 C 4.984375 -5.238281 7.195312 -3.753906 9.382812 -3.753906 C 10.390625 -3.753906 13.414062 -3.808594 13.414062 -6.722656 C 13.414062 -9.074219 10.277344 -9.914062 7.8125 -11.144531 C 5.179688 -12.433594 3.808594 -14.394531 3.808594 -16.464844 C 3.808594 -20.300781 7.195312 -22.824219 10.640625 -22.824219 Z M 10.640625 -24.222656 C 6.609375 -24.222656 2.410156 -21.226562 2.410156 -16.464844 C 2.410156 -13.695312 4.257812 -11.339844 7.167969 -9.886719 C 10.191406 -8.375 12.011719 -7.699219 12.011719 -6.722656 C 12.011719 -5.292969 10.640625 -5.152344 9.382812 -5.152344 C 7.167969 -5.152344 4.171875 -7.589844 4.171875 -7.589844 C 3.585938 -8.066406 3.21875 -7.589844 3.109375 -7.394531 L 0.476562 -2.96875 C 0.308594 -2.714844 0.363281 -2.324219 0.589844 -2.101562 C 0.671875 -2.042969 4.089844 1.121094 9.773438 1.121094 C 14.449219 1.121094 19.183594 -0.980469 19.183594 -7.027344 C 19.183594 -10.5 15.988281 -12.824219 13.328125 -13.972656 C 10.5 -15.179688 8.960938 -16.074219 8.960938 -16.664062 C 8.960938 -17.417969 9.410156 -18.035156 11.003906 -18.035156 C 13.050781 -18.035156 15.261719 -16.550781 15.261719 -16.550781 C 15.792969 -16.1875 16.15625 -16.550781 16.296875 -16.800781 L 18.425781 -21.003906 C 18.566406 -21.28125 18.480469 -21.675781 18.203125 -21.898438 C 18.144531 -21.925781 15.066406 -24.222656 10.640625 -24.222656 Z M 10.640625 -24.222656 "/></g></g></g><g fill="#ffffff" fill-opacity="1"><g transform="translate(183.401782, 26.245146)"><g><path d="M 1.933594 -19.183594 L 1.933594 -22.402344 L 16.773438 -22.402344 L 16.773438 -19.183594 L 11.984375 -19.183594 C 11.539062 -19.183594 11.285156 -18.761719 11.285156 -18.480469 L 11.285156 -0.699219 L 7.421875 -0.699219 L 7.421875 -18.480469 C 7.421875 -18.902344 7 -19.183594 6.722656 -19.183594 Z M 0.53125 -18.480469 C 0.53125 -18.175781 0.785156 -17.78125 1.230469 -17.78125 L 6.019531 -17.78125 L 6.019531 0 C 6.019531 0.308594 6.273438 0.699219 6.722656 0.699219 L 11.984375 0.699219 C 12.265625 0.699219 12.6875 0.449219 12.6875 0 L 12.6875 -17.78125 L 17.472656 -17.78125 C 17.753906 -17.78125 18.175781 -18.035156 18.175781 -18.480469 L 18.175781 -23.101562 C 18.175781 -23.382812 17.894531 -23.804688 17.472656 -23.804688 L 1.230469 -23.804688 C 0.925781 -23.804688 0.53125 -23.523438 0.53125 -23.101562 Z M 0.53125 -18.480469 "/></g></g></g><g fill="#ffffff" fill-opacity="1"><g transform="translate(209.835989, 26.245146)"><g><path d="M 14.8125 -22.402344 L 23.550781 -0.699219 L 19.433594 -0.699219 L 17.894531 -4.84375 C 17.78125 -5.125 17.53125 -5.320312 17.25 -5.320312 L 8.457031 -5.320312 C 8.148438 -5.320312 7.898438 -5.125 7.785156 -4.84375 L 6.246094 -0.699219 L 2.128906 -0.699219 L 10.867188 -22.402344 Z M 15.933594 -23.355469 C 15.820312 -23.605469 15.570312 -23.804688 15.289062 -23.804688 L 10.417969 -23.804688 C 10.136719 -23.804688 9.855469 -23.605469 9.746094 -23.355469 L 0.421875 -0.253906 C 0 0.8125 1.09375 0.699219 1.09375 0.699219 L 6.75 0.699219 C 7.027344 0.699219 7.28125 0.53125 7.394531 0.253906 L 8.933594 -3.921875 L 16.746094 -3.921875 L 18.285156 0.253906 C 18.398438 0.53125 18.652344 0.699219 18.957031 0.699219 L 24.613281 0.699219 C 25.734375 0.699219 25.257812 -0.253906 25.257812 -0.253906 Z M 16.101562 -9.492188 L 13.46875 -16.214844 C 13.46875 -16.214844 12.628906 -17.472656 12.152344 -16.1875 L 9.578125 -9.464844 C 9.578125 -9.464844 9.128906 -8.542969 10.25 -8.542969 L 15.457031 -8.542969 C 15.457031 -8.542969 16.492188 -8.429688 16.101562 -9.492188 Z M 14.421875 -9.941406 L 11.257812 -9.941406 L 12.824219 -14 Z M 14.421875 -9.941406 "/></g></g></g><g fill="#ffffff" fill-opacity="1"><g transform="translate(243.21349, 26.245146)"><g><path d="M 19.070312 -16.605469 L 19.460938 -16.523438 C 19.769531 -16.550781 20.023438 -16.773438 20.078125 -17.054688 L 21.199219 -22.234375 C 21.253906 -22.515625 21.144531 -22.796875 20.890625 -22.964844 C 20.777344 -23.074219 18.957031 -24.222656 13.863281 -24.222656 C 6.945312 -24.222656 0.644531 -18.566406 0.644531 -11.507812 C 0.644531 -4.453125 6.972656 1.121094 13.863281 1.121094 C 18.957031 1.121094 20.75 0 20.917969 -0.113281 C 21.113281 -0.253906 21.253906 -0.558594 21.199219 -0.839844 L 20.078125 -6.019531 C 19.882812 -6.917969 19.183594 -6.554688 19.070312 -6.496094 C 19.015625 -6.46875 17.136719 -5.460938 14.675781 -5.460938 C 9.773438 -5.460938 7.757812 -8.792969 7.757812 -11.566406 C 7.757812 -14.28125 9.773438 -17.640625 14.675781 -17.640625 C 17.109375 -17.640625 19.015625 -16.605469 19.070312 -16.605469 Z M 14.675781 -4.058594 C 16.492188 -4.058594 18.007812 -4.535156 18.902344 -4.871094 L 19.714844 -1.0625 C 18.957031 -0.785156 17.195312 -0.28125 13.863281 -0.28125 C 7.671875 -0.28125 2.042969 -5.320312 2.042969 -11.507812 C 2.042969 -17.699219 7.644531 -22.824219 13.863281 -22.824219 C 17.222656 -22.824219 18.988281 -22.289062 19.714844 -22.011719 L 18.902344 -18.203125 C 17.949219 -18.566406 16.492188 -19.042969 14.675781 -19.042969 C 8.960938 -19.042969 6.355469 -14.980469 6.355469 -11.566406 C 6.355469 -8.09375 8.960938 -4.058594 14.675781 -4.058594 Z M 14.675781 -4.058594 "/></g></g></g><g fill="#ffffff" fill-opacity="1"><g transform="translate(272.699382, 26.245146)"><g><path d="M 21.199219 -0.699219 L 15.820312 -0.699219 L 7.503906 -10.25 C 7.503906 -10.25 6.300781 -11.144531 6.300781 -9.800781 L 6.300781 -0.699219 L 2.4375 -0.699219 L 2.4375 -22.402344 L 6.300781 -22.402344 L 6.300781 -13.664062 C 6.300781 -13.664062 6.691406 -12.210938 7.53125 -13.191406 L 15.234375 -22.402344 L 19.769531 -22.402344 L 11.453125 -12.601562 C 11.230469 -12.320312 11.257812 -11.929688 11.480469 -11.675781 Z M 22.765625 0.699219 C 24.140625 0.699219 23.269531 -0.449219 23.269531 -0.449219 L 12.9375 -12.152344 L 21.84375 -22.625 C 22.738281 -23.691406 21.3125 -23.804688 21.3125 -23.804688 L 14.925781 -23.804688 C 14.703125 -23.804688 14.507812 -23.691406 14.367188 -23.550781 L 7.699219 -15.570312 L 7.699219 -23.101562 C 7.699219 -23.382812 7.421875 -23.804688 7 -23.804688 L 1.734375 -23.804688 C 1.429688 -23.804688 1.035156 -23.523438 1.035156 -23.101562 L 1.035156 0 C 1.035156 0.308594 1.289062 0.699219 1.734375 0.699219 L 7 0.699219 C 7.28125 0.699219 7.699219 0.449219 7.699219 0 L 7.699219 -7.925781 L 14.980469 0.476562 C 15.09375 0.617188 15.289062 0.699219 15.515625 0.699219 Z M 22.765625 0.699219 "/></g></g></g><g fill="#ffffff" fill-opacity="1"><g transform="translate(304.14507, 26.245146)"><g/></g></g><g fill="#ffffff" fill-opacity="1"><g transform="translate(315.880798, 26.245146)"><g><path d="M 2.4375 -22.402344 L 8.429688 -22.402344 C 14.394531 -22.402344 19.378906 -17.867188 19.378906 -11.566406 C 19.378906 -5.207031 14.421875 -0.699219 8.429688 -0.699219 L 2.4375 -0.699219 Z M 1.734375 -23.804688 C 1.429688 -23.804688 1.035156 -23.523438 1.035156 -23.101562 L 1.035156 0 C 1.035156 0.308594 1.289062 0.699219 1.734375 0.699219 L 8.429688 0.699219 C 15.121094 0.699219 20.777344 -4.398438 20.777344 -11.566406 C 20.777344 -18.679688 15.09375 -23.804688 8.429688 -23.804688 Z M 7 -4.003906 L 7.8125 -4.003906 C 12.097656 -4.003906 15.039062 -7.308594 15.09375 -11.507812 C 15.09375 -15.738281 12.125 -19.097656 7.8125 -19.097656 L 7 -19.097656 C 6.554688 -19.097656 6.300781 -18.679688 6.300781 -18.398438 L 6.300781 -4.703125 C 6.300781 -4.257812 6.691406 -4.003906 7 -4.003906 Z M 7.699219 -5.40625 L 7.699219 -17.699219 L 7.8125 -17.699219 C 11.3125 -17.699219 13.695312 -15.039062 13.695312 -11.539062 C 13.664062 -8.007812 11.285156 -5.40625 7.8125 -5.40625 Z M 7.699219 -5.40625 "/></g></g></g><g fill="#ffffff" fill-opacity="1"><g transform="translate(345.114744, 26.245146)"><g><path d="M 14.253906 -22.402344 L 14.253906 -19.183594 L 7 -19.183594 C 6.554688 -19.183594 6.300781 -18.761719 6.300781 -18.480469 L 6.300781 -13.890625 C 6.300781 -13.441406 6.691406 -13.191406 7 -13.191406 L 13.917969 -13.191406 L 13.917969 -9.96875 L 7 -9.96875 C 6.554688 -9.96875 6.300781 -9.550781 6.300781 -9.269531 L 6.300781 -4.621094 C 6.300781 -4.171875 6.691406 -3.921875 7 -3.921875 L 14.253906 -3.921875 L 14.253906 -0.699219 L 2.4375 -0.699219 L 2.4375 -22.402344 Z M 15.652344 -23.101562 C 15.652344 -23.382812 15.375 -23.804688 14.953125 -23.804688 L 1.734375 -23.804688 C 1.429688 -23.804688 1.035156 -23.523438 1.035156 -23.101562 L 1.035156 0 C 1.035156 0.308594 1.289062 0.699219 1.734375 0.699219 L 14.953125 0.699219 C 15.234375 0.699219 15.652344 0.449219 15.652344 0 L 15.652344 -4.621094 C 15.652344 -4.902344 15.375 -5.320312 14.953125 -5.320312 L 7.699219 -5.320312 L 7.699219 -8.570312 L 14.617188 -8.570312 C 14.898438 -8.570312 15.316406 -8.820312 15.316406 -9.269531 L 15.316406 -13.890625 C 15.316406 -14.167969 15.039062 -14.589844 14.617188 -14.589844 L 7.699219 -14.589844 L 7.699219 -17.78125 L 14.953125 -17.78125 C 15.234375 -17.78125 15.652344 -18.035156 15.652344 -18.480469 Z M 15.652344 -23.101562 "/></g></g></g><g fill="#ffffff" fill-opacity="1"><g transform="translate(369.28121, 26.245146)"><g><path d="M 11.171875 -0.699219 L 2.074219 -22.402344 L 6.46875 -22.402344 L 12.125 -7.671875 C 12.125 -7.671875 12.9375 -6.386719 13.441406 -7.671875 L 19.097656 -22.402344 L 23.496094 -22.402344 L 14.394531 -0.699219 Z M 10.054688 0.28125 C 10.164062 0.53125 10.417969 0.699219 10.726562 0.699219 L 14.871094 0.699219 C 15.121094 0.699219 15.402344 0.558594 15.515625 0.28125 L 25.203125 -22.824219 C 25.652344 -23.914062 24.558594 -23.804688 24.558594 -23.804688 L 18.621094 -23.804688 C 18.34375 -23.804688 18.0625 -23.605469 17.949219 -23.328125 L 12.796875 -9.855469 L 7.617188 -23.328125 C 7.503906 -23.605469 7.253906 -23.804688 6.972656 -23.804688 L 1.035156 -23.804688 C -0.167969 -23.804688 0.363281 -22.824219 0.363281 -22.824219 Z M 10.054688 0.28125 "/></g></g></g><g fill="#ffffff" fill-opacity="1"><g transform="translate(402.602711, 26.245146)"><g><path d="M 14.253906 -22.402344 L 14.253906 -19.183594 L 7 -19.183594 C 6.554688 -19.183594 6.300781 -18.761719 6.300781 -18.480469 L 6.300781 -13.890625 C 6.300781 -13.441406 6.691406 -13.191406 7 -13.191406 L 13.917969 -13.191406 L 13.917969 -9.96875 L 7 -9.96875 C 6.554688 -9.96875 6.300781 -9.550781 6.300781 -9.269531 L 6.300781 -4.621094 C 6.300781 -4.171875 6.691406 -3.921875 7 -3.921875 L 14.253906 -3.921875 L 14.253906 -0.699219 L 2.4375 -0.699219 L 2.4375 -22.402344 Z M 15.652344 -23.101562 C 15.652344 -23.382812 15.375 -23.804688 14.953125 -23.804688 L 1.734375 -23.804688 C 1.429688 -23.804688 1.035156 -23.523438 1.035156 -23.101562 L 1.035156 0 C 1.035156 0.308594 1.289062 0.699219 1.734375 0.699219 L 14.953125 0.699219 C 15.234375 0.699219 15.652344 0.449219 15.652344 0 L 15.652344 -4.621094 C 15.652344 -4.902344 15.375 -5.320312 14.953125 -5.320312 L 7.699219 -5.320312 L 7.699219 -8.570312 L 14.617188 -8.570312 C 14.898438 -8.570312 15.316406 -8.820312 15.316406 -9.269531 L 15.316406 -13.890625 C 15.316406 -14.167969 15.039062 -14.589844 14.617188 -14.589844 L 7.699219 -14.589844 L 7.699219 -17.78125 L 14.953125 -17.78125 C 15.234375 -17.78125 15.652344 -18.035156 15.652344 -18.480469 Z M 15.652344 -23.101562 "/></g></g></g><g fill="#ffffff" fill-opacity="1"><g transform="translate(426.769177, 26.245146)"><g><path d="M 6.300781 -22.402344 L 6.300781 -4.621094 C 6.300781 -4.171875 6.691406 -3.921875 7 -3.921875 L 14.253906 -3.921875 L 14.253906 -0.699219 L 2.4375 -0.699219 L 2.4375 -22.402344 Z M 7.699219 -23.101562 C 7.699219 -23.382812 7.421875 -23.804688 7 -23.804688 L 1.734375 -23.804688 C 1.429688 -23.804688 1.035156 -23.523438 1.035156 -23.101562 L 1.035156 0 C 1.035156 0.308594 1.289062 0.699219 1.734375 0.699219 L 14.953125 0.699219 C 15.234375 0.699219 15.652344 0.449219 15.652344 0 L 15.652344 -4.621094 C 15.652344 -4.902344 15.375 -5.320312 14.953125 -5.320312 L 7.699219 -5.320312 Z M 7.699219 -23.101562 "/></g></g></g><g fill="#ffffff" fill-opacity="1"><g transform="translate(450.767644, 26.245146)"><g><path d="M 2.074219 -11.566406 C 2.074219 -17.921875 7.058594 -22.824219 13.023438 -22.824219 C 19.015625 -22.824219 23.941406 -17.921875 23.941406 -11.566406 C 23.941406 -5.152344 19.238281 -0.28125 13.023438 -0.28125 C 6.582031 -0.28125 2.074219 -5.152344 2.074219 -11.566406 Z M 0.671875 -11.566406 C 0.671875 -4.453125 5.769531 1.121094 13.023438 1.121094 C 20.050781 1.121094 25.34375 -4.453125 25.34375 -11.566406 C 25.34375 -18.679688 19.828125 -24.222656 13.023438 -24.222656 C 6.246094 -24.222656 0.671875 -18.679688 0.671875 -11.566406 Z M 6.355469 -11.566406 C 6.355469 -7.925781 8.175781 -3.976562 13.023438 -3.976562 C 17.726562 -3.976562 19.660156 -7.925781 19.660156 -11.566406 C 19.660156 -15.207031 17.613281 -19.15625 13.023438 -19.15625 C 8.429688 -19.15625 6.355469 -15.207031 6.355469 -11.566406 Z M 7.757812 -11.566406 C 7.757812 -14.785156 9.464844 -17.753906 13.023438 -17.753906 C 16.578125 -17.753906 18.257812 -14.785156 18.257812 -11.566406 C 18.257812 -8.289062 16.691406 -5.375 13.023438 -5.375 C 9.214844 -5.375 7.757812 -8.289062 7.757812 -11.566406 Z M 7.757812 -11.566406 "/></g></g></g><g fill="#ffffff" fill-opacity="1"><g transform="translate(484.565073, 26.245146)"><g><path d="M 7 -12.070312 L 8.457031 -12.070312 C 10.585938 -12.070312 13.191406 -12.882812 13.191406 -15.820312 C 13.191406 -18.761719 10.613281 -19.601562 8.457031 -19.601562 L 7 -19.601562 C 6.554688 -19.601562 6.300781 -19.183594 6.300781 -18.902344 L 6.300781 -12.769531 C 6.300781 -12.320312 6.691406 -12.070312 7 -12.070312 Z M 7.699219 -13.46875 L 7.699219 -18.203125 L 8.457031 -18.203125 C 10.417969 -18.203125 11.789062 -17.613281 11.789062 -15.820312 C 11.789062 -14.03125 10.445312 -13.46875 8.457031 -13.46875 Z M 2.4375 -22.402344 L 10.136719 -22.402344 C 14.394531 -22.402344 17.335938 -20.300781 17.335938 -15.988281 C 17.335938 -11.648438 14.335938 -9.269531 10.136719 -9.269531 L 7 -9.269531 C 6.554688 -9.269531 6.300781 -8.847656 6.300781 -8.570312 L 6.300781 -0.699219 L 2.4375 -0.699219 Z M 1.734375 -23.804688 C 1.429688 -23.804688 1.035156 -23.523438 1.035156 -23.101562 L 1.035156 0 C 1.035156 0.308594 1.289062 0.699219 1.734375 0.699219 L 7 0.699219 C 7.28125 0.699219 7.699219 0.449219 7.699219 0 L 7.699219 -7.867188 L 10.136719 -7.867188 C 14.925781 -7.867188 18.734375 -10.78125 18.734375 -15.988281 C 18.734375 -21.226562 14.871094 -23.804688 10.136719 -23.804688 Z M 1.734375 -23.804688 "/></g></g></g><g fill="#ffffff" fill-opacity="1"><g transform="translate(511.615242, 26.245146)"><g><path d="M 14.253906 -22.402344 L 14.253906 -19.183594 L 7 -19.183594 C 6.554688 -19.183594 6.300781 -18.761719 6.300781 -18.480469 L 6.300781 -13.890625 C 6.300781 -13.441406 6.691406 -13.191406 7 -13.191406 L 13.917969 -13.191406 L 13.917969 -9.96875 L 7 -9.96875 C 6.554688 -9.96875 6.300781 -9.550781 6.300781 -9.269531 L 6.300781 -4.621094 C 6.300781 -4.171875 6.691406 -3.921875 7 -3.921875 L 14.253906 -3.921875 L 14.253906 -0.699219 L 2.4375 -0.699219 L 2.4375 -22.402344 Z M 15.652344 -23.101562 C 15.652344 -23.382812 15.375 -23.804688 14.953125 -23.804688 L 1.734375 -23.804688 C 1.429688 -23.804688 1.035156 -23.523438 1.035156 -23.101562 L 1.035156 0 C 1.035156 0.308594 1.289062 0.699219 1.734375 0.699219 L 14.953125 0.699219 C 15.234375 0.699219 15.652344 0.449219 15.652344 0 L 15.652344 -4.621094 C 15.652344 -4.902344 15.375 -5.320312 14.953125 -5.320312 L 7.699219 -5.320312 L 7.699219 -8.570312 L 14.617188 -8.570312 C 14.898438 -8.570312 15.316406 -8.820312 15.316406 -9.269531 L 15.316406 -13.890625 C 15.316406 -14.167969 15.039062 -14.589844 14.617188 -14.589844 L 7.699219 -14.589844 L 7.699219 -17.78125 L 14.953125 -17.78125 C 15.234375 -17.78125 15.652344 -18.035156 15.652344 -18.480469 Z M 15.652344 -23.101562 "/></g></g></g><g fill="#ffffff" fill-opacity="1"><g transform="translate(535.781708, 26.245146)"><g><path d="M 2.4375 -22.402344 L 10.164062 -22.402344 C 14.421875 -22.402344 17.363281 -20.300781 17.363281 -15.988281 C 17.363281 -12.992188 15.960938 -11.003906 13.804688 -9.996094 C 13.554688 -9.886719 13.160156 -9.519531 13.527344 -8.988281 L 18.988281 -0.699219 L 14.871094 -0.699219 L 9.4375 -8.933594 C 9.324219 -9.128906 9.074219 -9.269531 8.878906 -9.269531 L 7 -9.269531 C 6.554688 -9.269531 6.300781 -8.847656 6.300781 -8.570312 L 6.300781 -0.699219 L 2.4375 -0.699219 Z M 1.734375 -23.804688 C 1.429688 -23.804688 1.035156 -23.523438 1.035156 -23.101562 L 1.035156 0 C 1.035156 0.308594 1.289062 0.699219 1.734375 0.699219 L 7 0.699219 C 7.28125 0.699219 7.699219 0.449219 7.699219 0 L 7.699219 -7.867188 L 8.484375 -7.867188 L 13.917969 0.390625 C 14.03125 0.589844 14.253906 0.699219 14.507812 0.699219 L 20.300781 0.699219 C 21.648438 0.699219 20.863281 -0.363281 20.863281 -0.363281 L 15.121094 -9.101562 C 17.335938 -10.445312 18.761719 -12.824219 18.761719 -15.988281 C 18.761719 -21.226562 14.898438 -23.804688 10.164062 -23.804688 Z M 7 -12.070312 L 8.484375 -12.070312 C 10.613281 -12.070312 13.21875 -12.882812 13.21875 -15.820312 C 13.21875 -18.761719 10.640625 -19.601562 8.484375 -19.601562 L 7 -19.601562 C 6.554688 -19.601562 6.300781 -19.183594 6.300781 -18.902344 L 6.300781 -12.769531 C 6.300781 -12.320312 6.691406 -12.070312 7 -12.070312 Z M 7.699219 -13.46875 L 7.699219 -18.203125 L 8.484375 -18.203125 C 10.445312 -18.203125 11.816406 -17.613281 11.816406 -15.820312 C 11.816406 -14.03125 10.472656 -13.46875 8.484375 -13.46875 Z M 7.699219 -13.46875 "/></g></g></g></svg>