<svg xmlns="http://www.w3.org/2000/svg" xmlns:xlink="http://www.w3.org/1999/xlink" width="200" zoomAndPan="magnify" viewBox="0 0 150 149.999998" height="200" preserveAspectRatio="xMidYMid meet" version="1.0"><path fill="#0a66c2" d="M 75 -0.00390625 C 116.421875 -0.00390625 150.003906 33.578125 150.003906 75 C 150.003906 116.421875 116.421875 150.003906 75 150.003906 C 33.578125 150.003906 -0.00390625 116.421875 -0.00390625 75 C -0.00390625 33.578125 33.578125 -0.00390625 75 -0.00390625 Z M 44.089844 107.273438 L 54.664062 107.273438 L 54.664062 65.394531 L 44.089844 65.394531 Z M 77.097656 85.207031 C 77.097656 78.597656 80.210938 73.304688 87.378906 73.304688 C 94.457031 73.304688 96.75 79.007812 96.75 85.207031 L 96.75 107.28125 L 107.257812 107.28125 L 107.257812 80.300781 C 107.257812 70.714844 102.613281 64.011719 92.492188 64.011719 C 87.894531 64.011719 82.589844 66.421875 80.34375 70.605469 L 77.097656 76.519531 L 77.097656 65.394531 L 67.09375 65.394531 L 67.09375 107.273438 L 77.097656 107.273438 Z M 80.558594 85.207031 L 80.558594 110.734375 L 63.632812 110.734375 L 63.632812 61.933594 L 80.558594 61.933594 L 80.558594 65.050781 C 83.902344 62.058594 88.003906 60.550781 92.492188 60.550781 C 104.523438 60.550781 110.71875 68.796875 110.71875 80.300781 L 110.71875 110.726562 L 93.289062 110.730469 L 93.289062 85.207031 C 93.289062 81.042969 92.371094 76.765625 87.378906 76.765625 C 82.175781 76.765625 80.558594 80.550781 80.558594 85.207031 Z M 49.3125 56 C 52.976562 56 55.878906 53.003906 55.878906 49.359375 C 55.878906 45.714844 52.976562 42.726562 49.3125 42.726562 C 45.648438 42.726562 42.742188 45.714844 42.742188 49.359375 C 42.742188 53.003906 45.644531 56 49.3125 56 Z M 49.3125 59.460938 C 43.75 59.460938 39.28125 54.898438 39.28125 49.359375 C 39.28125 43.820312 43.75 39.265625 49.3125 39.265625 C 54.867188 39.265625 59.339844 43.820312 59.339844 49.359375 C 59.339844 54.898438 54.867188 59.460938 49.3125 59.460938 Z M 40.628906 110.734375 L 40.628906 61.933594 L 58.125 61.933594 L 58.125 110.734375 Z M 75 3.460938 C 35.488281 3.460938 3.457031 35.488281 3.457031 75 C 3.457031 114.511719 35.488281 146.539062 75 146.539062 C 114.511719 146.539062 146.542969 114.511719 146.542969 75 C 146.542969 35.488281 114.511719 3.460938 75 3.460938 Z M 75 3.460938 " fill-opacity="1" fill-rule="nonzero"/></svg>