<svg xmlns="http://www.w3.org/2000/svg" xmlns:xlink="http://www.w3.org/1999/xlink" width="600" zoomAndPan="magnify" viewBox="0 0 450 443.999984" height="592" preserveAspectRatio="xMidYMid meet" version="1.0"><defs><g/></defs><g fill="#6371c7" fill-opacity="1"><g transform="translate(76.398505, 200.296783)"><g><path d="M -45.628906 -39.550781 L -52.785156 -22.15625 L -40.683594 -17.179688 L -38.351562 -22.851562 L 2.488281 -6.050781 L 7.464844 -18.152344 L -24.828125 -31.433594 C -15.175781 -33.832031 -5.523438 -36.226562 4.160156 -38.699219 C -1.011719 -47.195312 -6.152344 -55.761719 -11.292969 -64.332031 L 21 -51.046875 L 25.976562 -63.148438 L -26.960938 -84.925781 L -31.785156 -73.203125 C -26.554688 -64.421875 -21.21875 -55.683594 -15.957031 -46.976562 Z M -45.628906 -39.550781 "/></g></g></g><g fill="#6371c7" fill-opacity="1"><g transform="translate(107.400405, 135.498327)"><g><path d="M 11.199219 -13.019531 L -32.203125 -50.34375 L -40.734375 -40.425781 L 2.667969 -3.101562 Z M 11.199219 -13.019531 "/></g></g></g><g fill="#6371c7" fill-opacity="1"><g transform="translate(119.436235, 116.543393)"><g><path d="M 50.597656 -31.679688 L 43.65625 -42.769531 L 7.613281 -20.203125 L -8.878906 -46.542969 L 17.808594 -63.25 L 22.148438 -56.316406 L 33.238281 -63.261719 L 26.292969 -74.351562 L 15.023438 -76.941406 L -19.980469 -55.027344 L -22.570312 -43.757812 L -0.875 -9.101562 L 10.398438 -6.507812 Z M 50.597656 -31.679688 "/></g></g></g><g fill="#6371c7" fill-opacity="1"><g transform="translate(172.843335, 82.417287)"><g><path d="M 61.636719 -7.980469 L 54.289062 -64.75 L 41.3125 -63.070312 L 44.144531 -41.171875 L 14.949219 -37.394531 L 12.113281 -59.289062 L -6.941406 -56.824219 L -5.261719 -43.847656 L 0.820312 -44.632812 L 6.488281 -0.839844 L 19.464844 -2.519531 L 16.628906 -24.417969 L 45.824219 -28.195312 L 48.660156 -6.300781 Z M 61.636719 -7.980469 "/></g></g></g><g fill="#6371c7" fill-opacity="1"><g transform="translate(236.013119, 73.740925)"><g><path d="M 58.949219 18.359375 L 73.539062 -28.488281 L 68.164062 -38.726562 L 22.878906 -52.832031 L 18.988281 -40.339844 L 59.585938 -27.695312 L 56.914062 -19.105469 L 22.167969 -29.925781 L 11.929688 -24.550781 L 6.335938 -6.59375 L 11.710938 3.648438 L 42.550781 13.253906 L 46.441406 0.761719 L 20.285156 -7.386719 L 22.960938 -15.972656 L 53.023438 -6.613281 L 48.886719 6.660156 L 54.265625 16.898438 Z M 58.949219 18.359375 "/></g></g></g><g fill="#6371c7" fill-opacity="1"><g transform="translate(296.69211, 92.080348)"><g><path d="M 44.429688 39.871094 L 53.167969 30.132812 L 21.519531 1.730469 L 42.277344 -21.394531 L 65.707031 -0.367188 L 59.152344 6.9375 L 38.765625 -11.359375 L 30.023438 -1.625 L 54.066406 19.953125 L 65.613281 19.328125 L 78.722656 4.71875 L 78.097656 -6.828125 L 47.363281 -34.410156 L 35.816406 -33.785156 L 8.503906 -3.355469 L 9.128906 8.191406 Z M 44.429688 39.871094 "/></g></g></g><g fill="#6371c7" fill-opacity="1"><g transform="translate(343.821242, 134.976573)"><g><path d="M 23.761719 51.179688 L 35.628906 45.667969 L 20.132812 12.292969 L 60.1875 -6.304688 L 52.09375 -23.734375 L 40.226562 -18.222656 L 42.808594 -12.660156 L 2.753906 5.933594 Z M 23.761719 51.179688 "/></g></g></g><g fill="#6371c7" fill-opacity="1"><g transform="translate(366.180676, 187.667712)"><g/></g></g><g fill="#6371c7" fill-opacity="1"><g transform="translate(372.323995, 220.319966)"><g><path d="M -6.785156 35.417969 L 36.585938 43.730469 L 32.335938 65.894531 L 45.1875 68.359375 L 56.144531 11.171875 L 43.292969 8.710938 L 39.046875 30.878906 L -4.324219 22.570312 Z M -6.785156 35.417969 "/></g></g></g><g fill="#6371c7" fill-opacity="1"><g transform="translate(362.702183, 276.643449)"><g><path d="M -35.113281 51.28125 L 12.117188 83.621094 L 19.511719 72.828125 L 1.292969 60.351562 L 17.925781 36.0625 L 36.144531 48.535156 L 47 32.679688 L 36.203125 25.285156 L 32.738281 30.347656 L -3.695312 5.398438 L -11.089844 16.195312 L 7.128906 28.667969 L -9.503906 52.960938 L -27.722656 40.484375 Z M -35.113281 51.28125 "/></g></g></g><g fill="#6371c7" fill-opacity="1"><g transform="translate(327.330868, 329.61752)"><g><path d="M -47.871094 28.296875 L -50.75 39.496094 L -29.945312 74.695312 L -18.742188 77.574219 L 18.566406 55.519531 L 21.445312 44.320312 L 0.640625 9.121094 L -10.558594 6.242188 Z M -36.988281 37.0625 L -8.125 20.003906 L 7.6875 46.753906 L -21.175781 63.8125 Z M -36.988281 37.0625 "/></g></g></g><g fill="#6371c7" fill-opacity="1"><g transform="translate(271.918891, 363.729683)"><g><path d="M -14.601562 58.589844 L 4.148438 57.09375 L 3.105469 44.050781 L -3.007812 44.539062 L -6.519531 0.519531 L -19.5625 1.5625 L -16.785156 36.371094 C -23.292969 28.847656 -29.800781 21.328125 -36.386719 13.816406 C -41.621094 22.273438 -46.933594 30.734375 -52.246094 39.199219 L -55.023438 4.390625 L -68.066406 5.433594 L -63.511719 62.496094 L -50.878906 61.488281 C -45.414062 52.847656 -40.039062 44.132812 -34.65625 35.5 Z M -14.601562 58.589844 "/></g></g></g><g fill="#6371c7" fill-opacity="1"><g transform="translate(202.593941, 368.804007)"><g><path d="M -47.082031 -17.679688 L -57.613281 -12.902344 L -64.226562 4.707031 L -59.445312 15.238281 L -28.441406 26.882812 L -31.601562 35.304688 L -70.261719 20.785156 L -74.863281 33.03125 L -31.609375 49.277344 L -21.078125 44.496094 L -14.464844 26.886719 L -19.246094 16.359375 L -50.25 4.714844 L -47.089844 -3.707031 L -8.429688 10.8125 L -3.828125 -1.4375 Z M -47.082031 -17.679688 "/></g></g></g><g fill="#6371c7" fill-opacity="1"><g transform="translate(145.764203, 348.595397)"><g><path d="M -39.328125 -39.3125 L -50.894531 -39.308594 L -79.800781 -10.390625 L -79.796875 1.171875 L -49.144531 31.8125 L -37.578125 31.8125 L -8.671875 2.894531 L -8.675781 -8.671875 Z M -45.109375 -26.589844 L -21.394531 -2.886719 L -43.363281 19.089844 L -67.078125 -4.613281 Z M -45.109375 -26.589844 "/></g></g></g><g fill="#6371c7" fill-opacity="1"><g transform="translate(99.570226, 302.304498)"><g><path d="M -20.5 -54.324219 L -74.054688 -34.113281 L -69.4375 -21.871094 L -36.539062 -34.285156 L -60.488281 1.847656 L -53.703125 19.828125 L -41.460938 15.207031 L -43.625 9.46875 L -2.308594 -6.121094 L -6.929688 -18.363281 L -39.753906 -5.976562 L -15.878906 -42.082031 Z M -20.5 -54.324219 "/></g></g></g></svg>