<svg xmlns="http://www.w3.org/2000/svg" xmlns:xlink="http://www.w3.org/1999/xlink" width="1200" zoomAndPan="magnify" viewBox="0 0 900 899.99999" height="1200" preserveAspectRatio="xMidYMid meet" version="1.0"><defs><g/><clipPath id="7f85cfbf47"><path d="M 66.285156 66.285156 L 833.535156 66.285156 L 833.535156 833.535156 L 66.285156 833.535156 Z M 66.285156 66.285156 " clip-rule="nonzero"/></clipPath><clipPath id="dc7824483b"><path d="M 130 231.707031 L 576 231.707031 L 576 293.957031 L 130 293.957031 Z M 130 231.707031 " clip-rule="nonzero"/></clipPath><clipPath id="5878b24991"><path d="M 130 404.765625 L 576 404.765625 L 576 467 L 130 467 Z M 130 404.765625 " clip-rule="nonzero"/></clipPath><clipPath id="2e0aa8236b"><path d="M 130 584.808594 L 576 584.808594 L 576 647 L 130 647 Z M 130 584.808594 " clip-rule="nonzero"/></clipPath><clipPath id="ab83150f01"><path d="M 670 419 L 776.960938 419 L 776.960938 499 L 670 499 Z M 670 419 " clip-rule="nonzero"/></clipPath><clipPath id="f7b7ff14e1"><path d="M 645 402.050781 L 768 402.050781 L 768 523.550781 L 645 523.550781 Z M 645 402.050781 " clip-rule="nonzero"/></clipPath><clipPath id="217f5fd330"><path d="M 670 236 L 776.960938 236 L 776.960938 316 L 670 316 Z M 670 236 " clip-rule="nonzero"/></clipPath><clipPath id="17ae665a87"><path d="M 645 219.542969 L 768 219.542969 L 768 341.042969 L 645 341.042969 Z M 645 219.542969 " clip-rule="nonzero"/></clipPath><clipPath id="4d96f74ea4"><path d="M 670 595 L 776.960938 595 L 776.960938 675 L 670 675 Z M 670 595 " clip-rule="nonzero"/></clipPath><clipPath id="c37ab2fa9d"><path d="M 645 578.390625 L 768 578.390625 L 768 699.890625 L 645 699.890625 Z M 645 578.390625 " clip-rule="nonzero"/></clipPath></defs><rect x="-90" width="1080" fill="#ffffff" y="-89.999999" height="1079.999988" fill-opacity="1"/><rect x="-90" width="1080" fill="#ffffff" y="-89.999999" height="1079.999988" fill-opacity="1"/><rect x="-90" width="1080" fill="#71d663" y="-89.999999" height="1079.999988" fill-opacity="1"/><g clip-path="url(#7f85cfbf47)"><path fill="#ffffff" d="M 783.640625 833.535156 L 116.179688 833.535156 C 88.6875 833.535156 66.285156 811.136719 66.285156 783.640625 L 66.285156 116.179688 C 66.285156 88.6875 88.6875 66.285156 116.179688 66.285156 L 783.640625 66.285156 C 811.136719 66.285156 833.535156 88.6875 833.535156 116.179688 L 833.535156 783.640625 C 833.535156 811.136719 811.136719 833.535156 783.640625 833.535156 " fill-opacity="1" fill-rule="nonzero"/></g><g clip-path="url(#dc7824483b)"><path fill="#008037" d="M 539.253906 245.84375 C 542.109375 245.402344 543.980469 243.621094 543.980469 241.222656 C 544.070312 238.730469 542.109375 236.773438 539.167969 236.417969 C 538.453125 236.328125 537.738281 236.242188 537.027344 236.242188 C 532.476562 236.328125 527.929688 236.152344 523.472656 236.507812 C 491.816406 238.640625 460.875 244.511719 430.464844 253.671875 C 398.988281 263.1875 367.421875 272.347656 335.855469 281.683594 C 329.167969 283.640625 322.300781 285.0625 315.347656 284.261719 C 312.851562 283.996094 310.351562 283.105469 308.035156 282.128906 C 306.160156 281.328125 305.179688 279.636719 305.628906 277.59375 C 306.160156 275.191406 306.875 272.789062 308.035156 270.566406 C 310.175781 266.296875 313.207031 262.476562 314.902344 258.117188 C 318.558594 248.601562 316.058594 240.6875 306.875 235.886719 C 299.921875 232.238281 292.519531 231.707031 284.9375 231.792969 C 282.886719 231.882812 280.925781 231.972656 278.875 232.0625 C 263.894531 233.128906 249.359375 236.6875 235.003906 240.867188 C 211.195312 247.800781 187.921875 256.070312 166.789062 269.234375 C 163.933594 271.011719 161.082031 272.878906 158.40625 275.015625 C 156.085938 276.882812 155.820312 279.636719 157.335938 281.683594 C 158.941406 283.730469 161.347656 283.640625 164.113281 282.128906 C 173.742188 276.613281 183.195312 270.566406 193.359375 266.03125 C 213.246094 256.960938 234.113281 250.558594 255.421875 245.578125 C 267.460938 242.734375 279.5 240.953125 291.894531 241.578125 C 296.265625 241.84375 300.277344 243 304.023438 245.3125 C 305.984375 246.558594 307.144531 248.335938 306.695312 250.558594 C 306.160156 253.136719 305.359375 255.628906 304.199219 257.941406 C 302.058594 262.121094 299.207031 265.941406 297.421875 270.210938 C 293.144531 280.261719 297.246094 289.242188 307.679688 292.355469 C 311.957031 293.601562 316.59375 293.777344 321.054688 293.867188 C 330.238281 293.957031 338.886719 290.933594 347.539062 288.351562 C 381.066406 278.570312 414.414062 268.433594 448.035156 258.917969 C 477.191406 250.648438 507.066406 246.113281 537.472656 245.84375 C 538.007812 245.933594 538.632812 245.933594 539.253906 245.84375 Z M 176.507812 245.3125 C 176.417969 241.933594 174.632812 239.796875 172.136719 239.886719 C 170.355469 239.886719 168.480469 240.421875 166.875 241.222656 C 158.941406 245.3125 151.894531 250.734375 145.566406 257.050781 C 140.75 261.941406 136.378906 267.453125 132.011719 272.96875 C 130.136719 275.371094 130.671875 278.125 132.457031 279.460938 C 134.242188 280.792969 136.648438 280.527344 138.789062 278.394531 C 140.570312 276.613281 142.175781 274.746094 143.78125 272.878906 C 152.253906 262.917969 161.882812 254.558594 173.566406 248.511719 C 174.992188 247.800781 175.882812 246.023438 176.507812 245.3125 Z M 575.371094 248.691406 C 574.390625 246.734375 571.445312 246.113281 568.414062 247.355469 C 565.917969 248.425781 563.421875 249.667969 560.925781 250.734375 C 550.402344 255.539062 539.523438 258.382812 527.839844 257.851562 C 526.859375 257.761719 525.878906 257.851562 524.988281 258.027344 C 522.3125 258.472656 520.617188 260.074219 520.53125 262.386719 C 520.441406 264.699219 522.046875 266.65625 524.808594 267.097656 C 527.128906 267.453125 529.445312 267.453125 531.765625 267.632812 C 531.765625 267.722656 531.855469 267.8125 531.855469 267.898438 C 536.492188 267.277344 541.128906 266.832031 545.675781 265.941406 C 555.304688 264.074219 564.222656 260.429688 572.605469 255.449219 C 575.457031 253.671875 576.527344 250.824219 575.371094 248.691406 Z M 575.371094 248.691406 " fill-opacity="1" fill-rule="nonzero"/></g><g clip-path="url(#5878b24991)"><path fill="#008037" d="M 539.253906 418.902344 C 542.109375 418.460938 543.980469 416.679688 543.980469 414.28125 C 544.070312 411.789062 542.109375 409.832031 539.167969 409.476562 C 538.453125 409.386719 537.738281 409.300781 537.027344 409.300781 C 532.476562 409.386719 527.929688 409.210938 523.472656 409.566406 C 491.816406 411.699219 460.875 417.570312 430.464844 426.730469 C 398.988281 436.246094 367.421875 445.40625 335.855469 454.742188 C 329.167969 456.699219 322.300781 458.121094 315.347656 457.320312 C 312.851562 457.054688 310.351562 456.164062 308.035156 455.1875 C 306.160156 454.386719 305.179688 452.695312 305.628906 450.652344 C 306.160156 448.25 306.875 445.847656 308.035156 443.625 C 310.175781 439.355469 313.207031 435.535156 314.902344 431.175781 C 318.558594 421.660156 316.058594 413.746094 306.875 408.945312 C 299.921875 405.296875 292.519531 404.765625 284.9375 404.851562 C 282.886719 404.941406 280.925781 405.03125 278.875 405.121094 C 263.894531 406.1875 249.359375 409.746094 235.003906 413.921875 C 211.195312 420.859375 187.921875 429.128906 166.789062 442.292969 C 163.933594 444.070312 161.082031 445.9375 158.40625 448.074219 C 156.085938 449.941406 155.820312 452.695312 157.335938 454.742188 C 158.941406 456.789062 161.347656 456.699219 164.113281 455.1875 C 173.742188 449.671875 183.195312 443.625 193.359375 439.089844 C 213.246094 430.019531 234.113281 423.617188 255.421875 418.636719 C 267.460938 415.792969 279.5 414.011719 291.894531 414.636719 C 296.265625 414.902344 300.277344 416.058594 304.023438 418.371094 C 305.984375 419.613281 307.144531 421.394531 306.695312 423.617188 C 306.160156 426.195312 305.359375 428.6875 304.199219 431 C 302.058594 435.175781 299.207031 439 297.421875 443.269531 C 293.144531 453.320312 297.246094 462.300781 307.679688 465.414062 C 311.957031 466.660156 316.59375 466.835938 321.054688 466.925781 C 330.238281 467.015625 338.886719 463.992188 347.539062 461.410156 C 381.066406 451.628906 414.414062 441.492188 448.035156 431.976562 C 477.191406 423.707031 507.066406 419.171875 537.472656 418.902344 C 538.007812 418.992188 538.632812 418.992188 539.253906 418.902344 Z M 176.507812 418.371094 C 176.417969 414.992188 174.632812 412.855469 172.136719 412.945312 C 170.355469 412.945312 168.480469 413.480469 166.875 414.28125 C 158.941406 418.371094 151.894531 423.792969 145.566406 430.109375 C 140.75 435 136.378906 440.511719 132.011719 446.027344 C 130.136719 448.429688 130.671875 451.183594 132.457031 452.519531 C 134.242188 453.851562 136.648438 453.585938 138.789062 451.453125 C 140.570312 449.671875 142.175781 447.804688 143.78125 445.9375 C 152.253906 435.976562 161.882812 427.617188 173.566406 421.570312 C 174.992188 420.859375 175.882812 419.082031 176.507812 418.371094 Z M 575.371094 421.75 C 574.390625 419.792969 571.445312 419.171875 568.414062 420.414062 C 565.917969 421.484375 563.421875 422.726562 560.925781 423.792969 C 550.402344 428.597656 539.523438 431.441406 527.839844 430.910156 C 526.859375 430.820312 525.878906 430.910156 524.988281 431.085938 C 522.3125 431.53125 520.617188 433.132812 520.53125 435.445312 C 520.441406 437.757812 522.046875 439.714844 524.808594 440.15625 C 527.128906 440.511719 529.445312 440.511719 531.765625 440.691406 C 531.765625 440.78125 531.855469 440.871094 531.855469 440.957031 C 536.492188 440.335938 541.128906 439.890625 545.675781 439 C 555.304688 437.132812 564.222656 433.488281 572.605469 428.507812 C 575.457031 426.730469 576.527344 423.882812 575.371094 421.75 Z M 575.371094 421.75 " fill-opacity="1" fill-rule="nonzero"/></g><g clip-path="url(#2e0aa8236b)"><path fill="#008037" d="M 539.253906 598.949219 C 542.109375 598.503906 543.980469 596.726562 543.980469 594.324219 C 544.070312 591.835938 542.109375 589.878906 539.167969 589.523438 C 538.453125 589.433594 537.738281 589.347656 537.027344 589.347656 C 532.476562 589.433594 527.929688 589.257812 523.472656 589.613281 C 491.816406 591.746094 460.875 597.617188 430.464844 606.777344 C 398.988281 616.292969 367.421875 625.449219 335.855469 634.789062 C 329.167969 636.746094 322.300781 638.167969 315.347656 637.367188 C 312.851562 637.101562 310.351562 636.210938 308.035156 635.234375 C 306.160156 634.433594 305.179688 632.742188 305.628906 630.699219 C 306.160156 628.296875 306.875 625.894531 308.035156 623.671875 C 310.175781 619.402344 313.207031 615.578125 314.902344 611.222656 C 318.558594 601.707031 316.058594 593.792969 306.875 588.988281 C 299.921875 585.34375 292.519531 584.808594 284.9375 584.898438 C 282.886719 584.988281 280.925781 585.078125 278.875 585.167969 C 263.894531 586.234375 249.359375 589.789062 235.003906 593.96875 C 211.195312 600.90625 187.921875 609.175781 166.789062 622.339844 C 163.933594 624.117188 161.082031 625.984375 158.40625 628.117188 C 156.085938 629.984375 155.820312 632.742188 157.335938 634.789062 C 158.941406 636.832031 161.347656 636.746094 164.113281 635.234375 C 173.742188 629.71875 183.195312 623.671875 193.359375 619.136719 C 213.246094 610.066406 234.113281 603.664062 255.421875 598.683594 C 267.460938 595.835938 279.5 594.058594 291.894531 594.679688 C 296.265625 594.949219 300.277344 596.105469 304.023438 598.417969 C 305.984375 599.660156 307.144531 601.441406 306.695312 603.664062 C 306.160156 606.242188 305.359375 608.730469 304.199219 611.042969 C 302.058594 615.222656 299.207031 619.046875 297.421875 623.316406 C 293.144531 633.367188 297.246094 642.347656 307.679688 645.460938 C 311.957031 646.703125 316.59375 646.882812 321.054688 646.972656 C 330.238281 647.058594 338.886719 644.035156 347.539062 641.457031 C 381.066406 631.675781 414.414062 621.539062 448.035156 612.023438 C 477.191406 603.753906 507.066406 599.21875 537.472656 598.949219 C 538.007812 599.039062 538.632812 599.039062 539.253906 598.949219 Z M 176.507812 598.417969 C 176.417969 595.039062 174.632812 592.902344 172.136719 592.992188 C 170.355469 592.992188 168.480469 593.527344 166.875 594.324219 C 158.941406 598.417969 151.894531 603.839844 145.566406 610.15625 C 140.75 615.046875 136.378906 620.558594 132.011719 626.074219 C 130.136719 628.472656 130.671875 631.230469 132.457031 632.566406 C 134.242188 633.898438 136.648438 633.632812 138.789062 631.496094 C 140.570312 629.71875 142.175781 627.851562 143.78125 625.984375 C 152.253906 616.023438 161.882812 607.664062 173.566406 601.617188 C 174.992188 600.90625 175.882812 599.128906 176.507812 598.417969 Z M 575.371094 601.796875 C 574.390625 599.839844 571.445312 599.21875 568.414062 600.460938 C 565.917969 601.527344 563.421875 602.773438 560.925781 603.839844 C 550.402344 608.644531 539.523438 611.488281 527.839844 610.957031 C 526.859375 610.867188 525.878906 610.957031 524.988281 611.132812 C 522.3125 611.578125 520.617188 613.179688 520.53125 615.492188 C 520.441406 617.804688 522.046875 619.757812 524.808594 620.203125 C 527.128906 620.558594 529.445312 620.558594 531.765625 620.738281 C 531.765625 620.828125 531.855469 620.914062 531.855469 621.003906 C 536.492188 620.382812 541.128906 619.9375 545.675781 619.046875 C 555.304688 617.179688 564.222656 613.535156 572.605469 608.554688 C 575.457031 606.777344 576.527344 603.929688 575.371094 601.796875 Z M 575.371094 601.796875 " fill-opacity="1" fill-rule="nonzero"/></g><path stroke-linecap="round" transform="matrix(0.75047, 0, 0, 0.75, 101.225844, 491.914674)" fill="none" stroke-linejoin="miter" d="M 48.0021 5.999185 L 624.583151 5.999185 " stroke="#000000" stroke-width="12" stroke-opacity="1" stroke-miterlimit="4"/><path stroke-linecap="butt" transform="matrix(9.005645, 0, 0, 9, 101.225844, 496.414674)" fill="none" stroke-linejoin="round" d="M 0.5002 -1.500068 L 3.500055 -1.500068 L 3.500055 1.499932 L 0.5002 1.499932 Z M 0.5002 -1.500068 " stroke="#000000" stroke-width="1" stroke-opacity="1" stroke-miterlimit="4"/><path stroke-linecap="butt" transform="matrix(9.005645, 0, 0, 9, 605.977941, 496.414674)" fill="none" stroke-linejoin="round" d="M -3.500128 -1.500068 L -0.49984 -1.500068 L -0.49984 1.499932 L -3.500128 1.499932 Z M -3.500128 -1.500068 " stroke="#000000" stroke-width="1" stroke-opacity="1" stroke-miterlimit="4"/><path stroke-linecap="round" transform="matrix(0.75047, 0, 0, 0.75, 101.225844, 671.961009)" fill="none" stroke-linejoin="miter" d="M 48.0021 5.999905 L 624.583151 5.999905 " stroke="#000000" stroke-width="12" stroke-opacity="1" stroke-miterlimit="4"/><path stroke-linecap="butt" transform="matrix(9.005645, 0, 0, 9, 101.225844, 676.461009)" fill="none" stroke-linejoin="round" d="M 0.5002 -1.500008 L 3.500055 -1.500008 L 3.500055 1.499992 L 0.5002 1.499992 Z M 0.5002 -1.500008 " stroke="#000000" stroke-width="1" stroke-opacity="1" stroke-miterlimit="4"/><path stroke-linecap="butt" transform="matrix(9.005645, 0, 0, 9, 605.977941, 676.461009)" fill="none" stroke-linejoin="round" d="M -3.500128 -1.500008 L -0.49984 -1.500008 L -0.49984 1.499992 L -3.500128 1.499992 Z M -3.500128 -1.500008 " stroke="#000000" stroke-width="1" stroke-opacity="1" stroke-miterlimit="4"/><path stroke-linecap="round" transform="matrix(0.75047, 0, 0, 0.75, 101.225844, 311.868313)" fill="none" stroke-linejoin="miter" d="M 48.0021 5.998499 L 624.583151 5.998499 " stroke="#000000" stroke-width="12" stroke-opacity="1" stroke-miterlimit="4"/><path stroke-linecap="butt" transform="matrix(9.005645, 0, 0, 9, 101.225844, 316.368313)" fill="none" stroke-linejoin="round" d="M 0.5002 -1.500125 L 3.500055 -1.500125 L 3.500055 1.499875 L 0.5002 1.499875 Z M 0.5002 -1.500125 " stroke="#000000" stroke-width="1" stroke-opacity="1" stroke-miterlimit="4"/><path stroke-linecap="butt" transform="matrix(9.005645, 0, 0, 9, 605.977941, 316.368313)" fill="none" stroke-linejoin="round" d="M -3.500128 -1.500125 L -0.49984 -1.500125 L -0.49984 1.499875 L -3.500128 1.499875 Z M -3.500128 -1.500125 " stroke="#000000" stroke-width="1" stroke-opacity="1" stroke-miterlimit="4"/><g clip-path="url(#ab83150f01)"><path fill="#71d663" d="M 690.691406 482.523438 L 704.050781 497.699219 L 704.523438 498.238281 L 776.65625 435.003906 L 762.816406 419.289062 L 706.207031 468.921875 L 686.460938 446.503906 L 670.941406 460.109375 Z M 690.691406 482.523438 " fill-opacity="1" fill-rule="nonzero"/></g><g clip-path="url(#f7b7ff14e1)"><path fill="#71d663" d="M 751.804688 508.363281 L 660.476562 508.363281 L 660.476562 417.238281 L 751.804688 417.238281 L 751.804688 419.835938 L 764.4375 408.789062 C 761.707031 404.726562 757.074219 402.050781 751.804688 402.050781 L 660.476562 402.050781 C 652.070312 402.050781 645.253906 408.851562 645.253906 417.238281 L 645.253906 508.363281 C 645.253906 516.746094 652.070312 523.550781 660.476562 523.550781 L 751.804688 523.550781 C 760.210938 523.550781 767.027344 516.746094 767.027344 508.363281 L 767.027344 452.433594 L 751.804688 465.777344 Z M 751.804688 508.363281 " fill-opacity="1" fill-rule="nonzero"/></g><g fill="#000000" fill-opacity="1"><g transform="translate(109.702924, 368.461226)"><g><path d="M 5.125 -7.890625 L 0.390625 -15.46875 L 6.453125 -15.46875 L 8.796875 -11.125 L 11.203125 -15.46875 L 17.28125 -15.46875 L 12.4375 -7.890625 L 17.46875 0 L 11.40625 0 L 8.796875 -4.6875 L 6.203125 0 L 0.140625 0 Z M 5.125 -7.890625 "/></g></g><g transform="translate(127.30894, 368.461226)"><g><path d="M 12.296875 -20.234375 L 4.859375 0.265625 L 0.140625 0.265625 L 7.578125 -20.234375 Z M 12.296875 -20.234375 "/></g></g><g transform="translate(139.660447, 368.461226)"><g><path d="M 5.125 -7.890625 L 0.390625 -15.46875 L 6.453125 -15.46875 L 8.796875 -11.125 L 11.203125 -15.46875 L 17.28125 -15.46875 L 12.4375 -7.890625 L 17.46875 0 L 11.40625 0 L 8.796875 -4.6875 L 6.203125 0 L 0.140625 0 Z M 5.125 -7.890625 "/></g></g><g transform="translate(157.266464, 368.461226)"><g><path d="M 5.125 -7.890625 L 0.390625 -15.46875 L 6.453125 -15.46875 L 8.796875 -11.125 L 11.203125 -15.46875 L 17.28125 -15.46875 L 12.4375 -7.890625 L 17.46875 0 L 11.40625 0 L 8.796875 -4.6875 L 6.203125 0 L 0.140625 0 Z M 5.125 -7.890625 "/></g></g><g transform="translate(174.87248, 368.461226)"><g><path d="M 12.296875 -20.234375 L 4.859375 0.265625 L 0.140625 0.265625 L 7.578125 -20.234375 Z M 12.296875 -20.234375 "/></g></g><g transform="translate(187.223987, 368.461226)"><g><path d="M 5.125 -7.890625 L 0.390625 -15.46875 L 6.453125 -15.46875 L 8.796875 -11.125 L 11.203125 -15.46875 L 17.28125 -15.46875 L 12.4375 -7.890625 L 17.46875 0 L 11.40625 0 L 8.796875 -4.6875 L 6.203125 0 L 0.140625 0 Z M 5.125 -7.890625 "/></g></g><g transform="translate(204.830003, 368.461226)"><g><path d="M 5.125 -7.890625 L 0.390625 -15.46875 L 6.453125 -15.46875 L 8.796875 -11.125 L 11.203125 -15.46875 L 17.28125 -15.46875 L 12.4375 -7.890625 L 17.46875 0 L 11.40625 0 L 8.796875 -4.6875 L 6.203125 0 L 0.140625 0 Z M 5.125 -7.890625 "/></g></g><g transform="translate(222.43602, 368.461226)"><g><path d="M 5.125 -7.890625 L 0.390625 -15.46875 L 6.453125 -15.46875 L 8.796875 -11.125 L 11.203125 -15.46875 L 17.28125 -15.46875 L 12.4375 -7.890625 L 17.46875 0 L 11.40625 0 L 8.796875 -4.6875 L 6.203125 0 L 0.140625 0 Z M 5.125 -7.890625 "/></g></g><g transform="translate(240.042036, 368.461226)"><g><path d="M 5.125 -7.890625 L 0.390625 -15.46875 L 6.453125 -15.46875 L 8.796875 -11.125 L 11.203125 -15.46875 L 17.28125 -15.46875 L 12.4375 -7.890625 L 17.46875 0 L 11.40625 0 L 8.796875 -4.6875 L 6.203125 0 L 0.140625 0 Z M 5.125 -7.890625 "/></g></g></g><g fill="#000000" fill-opacity="1"><g transform="translate(109.702924, 550.966538)"><g><path d="M 5.125 -7.890625 L 0.390625 -15.46875 L 6.453125 -15.46875 L 8.796875 -11.125 L 11.203125 -15.46875 L 17.28125 -15.46875 L 12.4375 -7.890625 L 17.46875 0 L 11.40625 0 L 8.796875 -4.6875 L 6.203125 0 L 0.140625 0 Z M 5.125 -7.890625 "/></g></g><g transform="translate(127.30894, 550.966538)"><g><path d="M 12.296875 -20.234375 L 4.859375 0.265625 L 0.140625 0.265625 L 7.578125 -20.234375 Z M 12.296875 -20.234375 "/></g></g><g transform="translate(139.660447, 550.966538)"><g><path d="M 5.125 -7.890625 L 0.390625 -15.46875 L 6.453125 -15.46875 L 8.796875 -11.125 L 11.203125 -15.46875 L 17.28125 -15.46875 L 12.4375 -7.890625 L 17.46875 0 L 11.40625 0 L 8.796875 -4.6875 L 6.203125 0 L 0.140625 0 Z M 5.125 -7.890625 "/></g></g><g transform="translate(157.266464, 550.966538)"><g><path d="M 5.125 -7.890625 L 0.390625 -15.46875 L 6.453125 -15.46875 L 8.796875 -11.125 L 11.203125 -15.46875 L 17.28125 -15.46875 L 12.4375 -7.890625 L 17.46875 0 L 11.40625 0 L 8.796875 -4.6875 L 6.203125 0 L 0.140625 0 Z M 5.125 -7.890625 "/></g></g><g transform="translate(174.87248, 550.966538)"><g><path d="M 12.296875 -20.234375 L 4.859375 0.265625 L 0.140625 0.265625 L 7.578125 -20.234375 Z M 12.296875 -20.234375 "/></g></g><g transform="translate(187.223987, 550.966538)"><g><path d="M 5.125 -7.890625 L 0.390625 -15.46875 L 6.453125 -15.46875 L 8.796875 -11.125 L 11.203125 -15.46875 L 17.28125 -15.46875 L 12.4375 -7.890625 L 17.46875 0 L 11.40625 0 L 8.796875 -4.6875 L 6.203125 0 L 0.140625 0 Z M 5.125 -7.890625 "/></g></g><g transform="translate(204.830003, 550.966538)"><g><path d="M 5.125 -7.890625 L 0.390625 -15.46875 L 6.453125 -15.46875 L 8.796875 -11.125 L 11.203125 -15.46875 L 17.28125 -15.46875 L 12.4375 -7.890625 L 17.46875 0 L 11.40625 0 L 8.796875 -4.6875 L 6.203125 0 L 0.140625 0 Z M 5.125 -7.890625 "/></g></g><g transform="translate(222.43602, 550.966538)"><g><path d="M 5.125 -7.890625 L 0.390625 -15.46875 L 6.453125 -15.46875 L 8.796875 -11.125 L 11.203125 -15.46875 L 17.28125 -15.46875 L 12.4375 -7.890625 L 17.46875 0 L 11.40625 0 L 8.796875 -4.6875 L 6.203125 0 L 0.140625 0 Z M 5.125 -7.890625 "/></g></g><g transform="translate(240.042036, 550.966538)"><g><path d="M 5.125 -7.890625 L 0.390625 -15.46875 L 6.453125 -15.46875 L 8.796875 -11.125 L 11.203125 -15.46875 L 17.28125 -15.46875 L 12.4375 -7.890625 L 17.46875 0 L 11.40625 0 L 8.796875 -4.6875 L 6.203125 0 L 0.140625 0 Z M 5.125 -7.890625 "/></g></g></g><g fill="#000000" fill-opacity="1"><g transform="translate(109.702924, 727.306073)"><g><path d="M 5.125 -7.890625 L 0.390625 -15.46875 L 6.453125 -15.46875 L 8.796875 -11.125 L 11.203125 -15.46875 L 17.28125 -15.46875 L 12.4375 -7.890625 L 17.46875 0 L 11.40625 0 L 8.796875 -4.6875 L 6.203125 0 L 0.140625 0 Z M 5.125 -7.890625 "/></g></g><g transform="translate(127.30894, 727.306073)"><g><path d="M 12.296875 -20.234375 L 4.859375 0.265625 L 0.140625 0.265625 L 7.578125 -20.234375 Z M 12.296875 -20.234375 "/></g></g><g transform="translate(139.660447, 727.306073)"><g><path d="M 5.125 -7.890625 L 0.390625 -15.46875 L 6.453125 -15.46875 L 8.796875 -11.125 L 11.203125 -15.46875 L 17.28125 -15.46875 L 12.4375 -7.890625 L 17.46875 0 L 11.40625 0 L 8.796875 -4.6875 L 6.203125 0 L 0.140625 0 Z M 5.125 -7.890625 "/></g></g><g transform="translate(157.266464, 727.306073)"><g><path d="M 5.125 -7.890625 L 0.390625 -15.46875 L 6.453125 -15.46875 L 8.796875 -11.125 L 11.203125 -15.46875 L 17.28125 -15.46875 L 12.4375 -7.890625 L 17.46875 0 L 11.40625 0 L 8.796875 -4.6875 L 6.203125 0 L 0.140625 0 Z M 5.125 -7.890625 "/></g></g><g transform="translate(174.87248, 727.306073)"><g><path d="M 12.296875 -20.234375 L 4.859375 0.265625 L 0.140625 0.265625 L 7.578125 -20.234375 Z M 12.296875 -20.234375 "/></g></g><g transform="translate(187.223987, 727.306073)"><g><path d="M 5.125 -7.890625 L 0.390625 -15.46875 L 6.453125 -15.46875 L 8.796875 -11.125 L 11.203125 -15.46875 L 17.28125 -15.46875 L 12.4375 -7.890625 L 17.46875 0 L 11.40625 0 L 8.796875 -4.6875 L 6.203125 0 L 0.140625 0 Z M 5.125 -7.890625 "/></g></g><g transform="translate(204.830003, 727.306073)"><g><path d="M 5.125 -7.890625 L 0.390625 -15.46875 L 6.453125 -15.46875 L 8.796875 -11.125 L 11.203125 -15.46875 L 17.28125 -15.46875 L 12.4375 -7.890625 L 17.46875 0 L 11.40625 0 L 8.796875 -4.6875 L 6.203125 0 L 0.140625 0 Z M 5.125 -7.890625 "/></g></g><g transform="translate(222.43602, 727.306073)"><g><path d="M 5.125 -7.890625 L 0.390625 -15.46875 L 6.453125 -15.46875 L 8.796875 -11.125 L 11.203125 -15.46875 L 17.28125 -15.46875 L 12.4375 -7.890625 L 17.46875 0 L 11.40625 0 L 8.796875 -4.6875 L 6.203125 0 L 0.140625 0 Z M 5.125 -7.890625 "/></g></g><g transform="translate(240.042036, 727.306073)"><g><path d="M 5.125 -7.890625 L 0.390625 -15.46875 L 6.453125 -15.46875 L 8.796875 -11.125 L 11.203125 -15.46875 L 17.28125 -15.46875 L 12.4375 -7.890625 L 17.46875 0 L 11.40625 0 L 8.796875 -4.6875 L 6.203125 0 L 0.140625 0 Z M 5.125 -7.890625 "/></g></g></g><g clip-path="url(#217f5fd330)"><path fill="#71d663" d="M 690.691406 300.019531 L 704.050781 315.195312 L 704.523438 315.730469 L 776.65625 252.5 L 762.816406 236.785156 L 706.207031 286.414062 L 686.460938 264 L 670.941406 277.601562 Z M 690.691406 300.019531 " fill-opacity="1" fill-rule="nonzero"/></g><g clip-path="url(#17ae665a87)"><path fill="#71d663" d="M 751.804688 325.855469 L 660.476562 325.855469 L 660.476562 234.730469 L 751.804688 234.730469 L 751.804688 237.332031 L 764.4375 226.285156 C 761.707031 222.222656 757.074219 219.542969 751.804688 219.542969 L 660.476562 219.542969 C 652.070312 219.542969 645.253906 226.34375 645.253906 234.730469 L 645.253906 325.855469 C 645.253906 334.242188 652.070312 341.042969 660.476562 341.042969 L 751.804688 341.042969 C 760.210938 341.042969 767.027344 334.242188 767.027344 325.855469 L 767.027344 269.929688 L 751.804688 283.269531 Z M 751.804688 325.855469 " fill-opacity="1" fill-rule="nonzero"/></g><g clip-path="url(#4d96f74ea4)"><path fill="#71d663" d="M 690.691406 658.863281 L 704.050781 674.039062 L 704.523438 674.578125 L 776.65625 611.34375 L 762.816406 595.628906 L 706.207031 645.261719 L 686.460938 622.84375 L 670.941406 636.449219 Z M 690.691406 658.863281 " fill-opacity="1" fill-rule="nonzero"/></g><g clip-path="url(#c37ab2fa9d)"><path fill="#71d663" d="M 751.804688 684.703125 L 660.476562 684.703125 L 660.476562 593.578125 L 751.804688 593.578125 L 751.804688 596.175781 L 764.4375 585.128906 C 761.707031 581.066406 757.074219 578.390625 751.804688 578.390625 L 660.476562 578.390625 C 652.070312 578.390625 645.253906 585.191406 645.253906 593.578125 L 645.253906 684.703125 C 645.253906 693.085938 652.070312 699.890625 660.476562 699.890625 L 751.804688 699.890625 C 760.210938 699.890625 767.027344 693.085938 767.027344 684.703125 L 767.027344 628.773438 L 751.804688 642.117188 Z M 751.804688 684.703125 " fill-opacity="1" fill-rule="nonzero"/></g></svg>