<svg xmlns="http://www.w3.org/2000/svg" xmlns:xlink="http://www.w3.org/1999/xlink" width="1200" zoomAndPan="magnify" viewBox="0 0 900 899.99999" height="1200" preserveAspectRatio="xMidYMid meet" version="1.0"><defs><g/></defs><rect x="-90" width="1080" fill="#ffffff" y="-89.999999" height="1079.999988" fill-opacity="1"/><rect x="-90" width="1080" fill="#ffffff" y="-89.999999" height="1079.999988" fill-opacity="1"/><rect x="-90" width="1080" fill="#000000" y="-89.999999" height="1079.999988" fill-opacity="1"/><g fill="#ffc1b2" fill-opacity="0.302"><g transform="translate(8.586851, 590.395144)"><g><path d="M 199.714844 -244.125 C 190.777344 -254.738281 179.882812 -263.121094 167.59375 -268.984375 C 155.023438 -274.570312 141.335938 -277.644531 126.8125 -277.644531 L 37.707031 -277.644531 C 35.753906 -277.644531 34.355469 -276.804688 33.796875 -275.128906 C 32.960938 -273.453125 33.238281 -272.058594 34.636719 -270.660156 C 39.664062 -265.074219 42.457031 -258.371094 42.457031 -250.828125 L 42.457031 -26.816406 C 42.457031 -18.992188 39.664062 -12.570312 34.636719 -6.984375 C 33.238281 -5.308594 32.960938 -3.910156 33.796875 -2.234375 C 34.355469 -0.558594 35.753906 0 37.707031 0 L 100.835938 0 C 102.511719 0 103.90625 -0.558594 104.464844 -2.234375 C 105.023438 -3.910156 105.023438 -5.308594 103.90625 -6.984375 C 99.71875 -11.453125 97.761719 -16.480469 97.761719 -22.066406 L 97.761719 -62.847656 C 97.761719 -65.640625 98.601562 -68.152344 100.835938 -70.386719 C 102.789062 -72.34375 105.304688 -73.460938 108.375 -73.460938 L 126.8125 -73.460938 C 141.335938 -73.460938 155.023438 -76.253906 167.59375 -81.839844 C 179.882812 -87.425781 190.777344 -95.808594 199.714844 -106.699219 C 207.253906 -115.917969 213.121094 -126.53125 217.03125 -138.261719 C 220.941406 -149.996094 223.175781 -162.285156 223.175781 -175.132812 C 223.175781 -187.980469 220.941406 -200.550781 217.03125 -212.28125 C 213.121094 -224.015625 207.253906 -234.628906 199.714844 -244.125 Z M 156.976562 -141.894531 C 149.996094 -132.957031 139.9375 -128.765625 126.8125 -128.765625 L 105.582031 -128.765625 C 103.347656 -128.765625 101.671875 -129.324219 99.996094 -131 C 98.320312 -132.398438 97.761719 -134.074219 97.761719 -136.308594 L 97.761719 -214.519531 C 97.761719 -216.472656 98.320312 -218.148438 99.996094 -219.824219 C 101.671875 -221.5 103.347656 -222.339844 105.582031 -222.339844 L 126.8125 -222.339844 C 136.867188 -222.339844 144.410156 -220.105469 149.996094 -215.636719 C 155.582031 -211.164062 159.492188 -206.136719 162.285156 -200.550781 C 164.796875 -194.964844 166.476562 -189.660156 167.035156 -184.628906 C 167.59375 -179.601562 167.871094 -176.25 167.871094 -175.132812 C 167.871094 -168.429688 166.753906 -162.285156 165.078125 -156.699219 C 163.121094 -151.113281 160.328125 -146.085938 156.976562 -141.894531 Z M 156.976562 -141.894531 "/></g></g></g><g fill="#ffc1b2" fill-opacity="0.302"><g transform="translate(254.375468, 590.395144)"><g><path d="M 302.503906 -23.460938 L 302.503906 -254.179688 C 302.503906 -260.328125 304.457031 -265.914062 308.929688 -270.660156 C 310.046875 -272.058594 310.324219 -273.453125 309.765625 -275.128906 C 308.929688 -276.804688 307.8125 -277.644531 306.132812 -277.644531 L 247.199219 -277.644531 L 246.917969 -277.363281 L 246.917969 -277.644531 L 239.378906 -277.644531 C 237.421875 -277.644531 236.023438 -276.804688 235.464844 -275.128906 C 234.628906 -273.453125 234.628906 -272.058594 235.746094 -270.660156 C 236.863281 -268.984375 236.585938 -267.867188 235.464844 -267.03125 L 177.925781 -213.960938 C 175.972656 -212.28125 173.738281 -211.722656 171.503906 -211.722656 C 169.269531 -211.722656 167.3125 -212.28125 165.636719 -213.960938 L 107.257812 -267.589844 C 106.140625 -268.425781 106.140625 -269.265625 107.257812 -270.382812 C 108.375 -271.777344 108.65625 -273.453125 108.097656 -275.128906 C 107.257812 -276.804688 105.863281 -277.644531 103.90625 -277.644531 L 37.988281 -277.644531 C 36.03125 -277.644531 34.636719 -276.804688 34.078125 -275.128906 C 33.238281 -273.453125 33.238281 -272.058594 34.355469 -270.660156 L 34.636719 -270.382812 C 38.824219 -265.632812 41.058594 -260.046875 41.058594 -253.902344 L 41.058594 -23.742188 C 41.058594 -17.316406 38.824219 -11.730469 34.636719 -7.261719 L 34.355469 -6.984375 C 33.238281 -5.308594 33.238281 -3.910156 34.078125 -2.234375 C 34.636719 -0.558594 36.03125 0 37.988281 0 L 99.71875 0 C 101.394531 0 102.789062 -0.558594 103.628906 -2.234375 C 104.1875 -3.910156 104.1875 -5.308594 103.347656 -6.984375 L 102.789062 -7.542969 C 98.320312 -12.011719 96.367188 -17.597656 96.367188 -24.023438 L 96.367188 -193.289062 C 96.367188 -194.964844 96.925781 -196.082031 98.601562 -196.640625 C 100.277344 -197.199219 101.671875 -197.199219 103.070312 -196.082031 L 165.636719 -137.984375 C 167.3125 -136.308594 169.269531 -135.46875 171.78125 -135.46875 C 174.015625 -135.46875 176.25 -136.308594 177.925781 -137.984375 L 240.496094 -196.082031 C 241.613281 -197.199219 243.007812 -197.199219 244.683594 -196.640625 C 246.359375 -196.082031 247.199219 -194.964844 247.199219 -193.289062 L 247.199219 -24.300781 C 247.199219 -18.15625 244.964844 -12.570312 240.496094 -7.820312 L 239.9375 -6.984375 C 238.820312 -5.308594 238.820312 -3.910156 239.65625 -2.234375 C 240.214844 -0.558594 241.613281 0 243.566406 0 L 306.132812 0 C 307.8125 0 308.929688 -0.558594 309.765625 -2.234375 C 310.324219 -3.910156 310.046875 -5.308594 308.929688 -6.984375 C 304.457031 -11.453125 302.503906 -17.039062 302.503906 -23.460938 Z M 302.503906 -23.460938 "/></g></g></g><g fill="#ffc1b2" fill-opacity="0.302"><g transform="translate(597.920906, 590.395144)"><g><path d="M 228.484375 -6.984375 L 224.292969 -10.335938 C 219.824219 -13.964844 215.914062 -18.433594 212.84375 -23.460938 L 178.207031 -78.769531 C 177.089844 -80.445312 176.53125 -82.398438 177.089844 -84.632812 C 177.648438 -86.589844 178.765625 -88.265625 180.71875 -89.660156 C 187.703125 -94.691406 193.847656 -100.277344 198.875 -106.699219 C 206.417969 -115.917969 212.28125 -126.53125 216.195312 -138.261719 C 220.105469 -149.996094 222.339844 -162.285156 222.339844 -175.132812 C 222.339844 -187.980469 220.105469 -200.550781 216.195312 -212.28125 C 212.28125 -224.015625 206.417969 -234.628906 198.875 -244.125 C 189.9375 -254.738281 179.042969 -263.121094 166.753906 -268.984375 C 154.183594 -274.570312 140.496094 -277.644531 125.972656 -277.644531 L 37.707031 -277.644531 C 35.753906 -277.644531 34.355469 -276.804688 33.796875 -275.128906 C 32.960938 -273.453125 33.238281 -272.058594 34.636719 -270.660156 C 39.105469 -265.632812 41.617188 -259.765625 41.617188 -253.0625 L 41.617188 -24.023438 C 41.617188 -17.597656 39.382812 -12.011719 35.195312 -7.261719 C 33.519531 -5.585938 33.238281 -4.191406 34.078125 -2.515625 C 34.636719 -0.839844 36.03125 0 38.265625 0 L 100.835938 0 C 102.511719 0 103.90625 -0.558594 104.464844 -2.234375 C 105.023438 -3.910156 105.023438 -5.308594 103.90625 -6.984375 C 99.160156 -12.011719 96.925781 -17.597656 96.925781 -24.300781 L 96.925781 -65.082031 C 96.925781 -67.316406 97.484375 -69.269531 99.160156 -70.949219 C 100.835938 -72.625 102.789062 -73.460938 105.023438 -73.460938 L 111.726562 -73.460938 C 114.519531 -73.460938 117.035156 -72.066406 118.710938 -69.550781 L 153.066406 -14.246094 C 154.464844 -11.730469 154.183594 -9.496094 152.507812 -7.261719 L 152.230469 -6.984375 C 151.113281 -5.308594 151.113281 -3.910156 151.949219 -2.234375 C 152.507812 -0.558594 153.90625 0 155.859375 0 L 226.527344 0 C 228.484375 0 229.601562 -0.839844 230.160156 -2.515625 C 230.71875 -4.191406 230.160156 -5.585938 228.484375 -6.984375 Z M 156.140625 -141.894531 C 149.15625 -132.957031 139.101562 -128.765625 125.972656 -128.765625 L 105.023438 -128.765625 C 102.789062 -128.765625 100.835938 -129.324219 99.160156 -131 C 97.484375 -132.675781 96.925781 -134.632812 96.925781 -136.867188 L 96.925781 -213.960938 C 96.925781 -216.195312 97.484375 -218.148438 99.160156 -219.824219 C 100.835938 -221.5 102.789062 -222.339844 105.023438 -222.339844 L 125.972656 -222.339844 C 136.027344 -222.339844 143.570312 -220.105469 149.15625 -215.636719 C 154.742188 -211.164062 158.652344 -206.136719 161.445312 -200.550781 C 163.960938 -194.964844 165.636719 -189.660156 166.195312 -184.628906 C 166.753906 -179.601562 167.035156 -176.25 167.035156 -175.132812 C 167.035156 -168.429688 165.917969 -162.285156 164.238281 -156.699219 C 162.285156 -151.113281 159.492188 -146.085938 156.140625 -141.894531 Z M 156.140625 -141.894531 "/></g></g></g><g fill="#ffc1b2" fill-opacity="0.502"><g transform="translate(15.979273, 593.533045)"><g><path d="M 199.714844 -244.125 C 190.777344 -254.738281 179.882812 -263.121094 167.59375 -268.984375 C 155.023438 -274.570312 141.335938 -277.644531 126.8125 -277.644531 L 37.707031 -277.644531 C 35.753906 -277.644531 34.355469 -276.804688 33.796875 -275.128906 C 32.960938 -273.453125 33.238281 -272.058594 34.636719 -270.660156 C 39.664062 -265.074219 42.457031 -258.371094 42.457031 -250.828125 L 42.457031 -26.816406 C 42.457031 -18.992188 39.664062 -12.570312 34.636719 -6.984375 C 33.238281 -5.308594 32.960938 -3.910156 33.796875 -2.234375 C 34.355469 -0.558594 35.753906 0 37.707031 0 L 100.835938 0 C 102.511719 0 103.90625 -0.558594 104.464844 -2.234375 C 105.023438 -3.910156 105.023438 -5.308594 103.90625 -6.984375 C 99.71875 -11.453125 97.761719 -16.480469 97.761719 -22.066406 L 97.761719 -62.847656 C 97.761719 -65.640625 98.601562 -68.152344 100.835938 -70.386719 C 102.789062 -72.34375 105.304688 -73.460938 108.375 -73.460938 L 126.8125 -73.460938 C 141.335938 -73.460938 155.023438 -76.253906 167.59375 -81.839844 C 179.882812 -87.425781 190.777344 -95.808594 199.714844 -106.699219 C 207.253906 -115.917969 213.121094 -126.53125 217.03125 -138.261719 C 220.941406 -149.996094 223.175781 -162.285156 223.175781 -175.132812 C 223.175781 -187.980469 220.941406 -200.550781 217.03125 -212.28125 C 213.121094 -224.015625 207.253906 -234.628906 199.714844 -244.125 Z M 156.976562 -141.894531 C 149.996094 -132.957031 139.9375 -128.765625 126.8125 -128.765625 L 105.582031 -128.765625 C 103.347656 -128.765625 101.671875 -129.324219 99.996094 -131 C 98.320312 -132.398438 97.761719 -134.074219 97.761719 -136.308594 L 97.761719 -214.519531 C 97.761719 -216.472656 98.320312 -218.148438 99.996094 -219.824219 C 101.671875 -221.5 103.347656 -222.339844 105.582031 -222.339844 L 126.8125 -222.339844 C 136.867188 -222.339844 144.410156 -220.105469 149.996094 -215.636719 C 155.582031 -211.164062 159.492188 -206.136719 162.285156 -200.550781 C 164.796875 -194.964844 166.476562 -189.660156 167.035156 -184.628906 C 167.59375 -179.601562 167.871094 -176.25 167.871094 -175.132812 C 167.871094 -168.429688 166.753906 -162.285156 165.078125 -156.699219 C 163.121094 -151.113281 160.328125 -146.085938 156.976562 -141.894531 Z M 156.976562 -141.894531 "/></g></g></g><g fill="#ffc1b2" fill-opacity="0.502"><g transform="translate(261.76789, 593.533045)"><g><path d="M 302.503906 -23.460938 L 302.503906 -254.179688 C 302.503906 -260.328125 304.457031 -265.914062 308.929688 -270.660156 C 310.046875 -272.058594 310.324219 -273.453125 309.765625 -275.128906 C 308.929688 -276.804688 307.8125 -277.644531 306.132812 -277.644531 L 247.199219 -277.644531 L 246.917969 -277.363281 L 246.917969 -277.644531 L 239.378906 -277.644531 C 237.421875 -277.644531 236.023438 -276.804688 235.464844 -275.128906 C 234.628906 -273.453125 234.628906 -272.058594 235.746094 -270.660156 C 236.863281 -268.984375 236.585938 -267.867188 235.464844 -267.03125 L 177.925781 -213.960938 C 175.972656 -212.28125 173.738281 -211.722656 171.503906 -211.722656 C 169.269531 -211.722656 167.3125 -212.28125 165.636719 -213.960938 L 107.257812 -267.589844 C 106.140625 -268.425781 106.140625 -269.265625 107.257812 -270.382812 C 108.375 -271.777344 108.65625 -273.453125 108.097656 -275.128906 C 107.257812 -276.804688 105.863281 -277.644531 103.90625 -277.644531 L 37.988281 -277.644531 C 36.03125 -277.644531 34.636719 -276.804688 34.078125 -275.128906 C 33.238281 -273.453125 33.238281 -272.058594 34.355469 -270.660156 L 34.636719 -270.382812 C 38.824219 -265.632812 41.058594 -260.046875 41.058594 -253.902344 L 41.058594 -23.742188 C 41.058594 -17.316406 38.824219 -11.730469 34.636719 -7.261719 L 34.355469 -6.984375 C 33.238281 -5.308594 33.238281 -3.910156 34.078125 -2.234375 C 34.636719 -0.558594 36.03125 0 37.988281 0 L 99.71875 0 C 101.394531 0 102.789062 -0.558594 103.628906 -2.234375 C 104.1875 -3.910156 104.1875 -5.308594 103.347656 -6.984375 L 102.789062 -7.542969 C 98.320312 -12.011719 96.367188 -17.597656 96.367188 -24.023438 L 96.367188 -193.289062 C 96.367188 -194.964844 96.925781 -196.082031 98.601562 -196.640625 C 100.277344 -197.199219 101.671875 -197.199219 103.070312 -196.082031 L 165.636719 -137.984375 C 167.3125 -136.308594 169.269531 -135.46875 171.78125 -135.46875 C 174.015625 -135.46875 176.25 -136.308594 177.925781 -137.984375 L 240.496094 -196.082031 C 241.613281 -197.199219 243.007812 -197.199219 244.683594 -196.640625 C 246.359375 -196.082031 247.199219 -194.964844 247.199219 -193.289062 L 247.199219 -24.300781 C 247.199219 -18.15625 244.964844 -12.570312 240.496094 -7.820312 L 239.9375 -6.984375 C 238.820312 -5.308594 238.820312 -3.910156 239.65625 -2.234375 C 240.214844 -0.558594 241.613281 0 243.566406 0 L 306.132812 0 C 307.8125 0 308.929688 -0.558594 309.765625 -2.234375 C 310.324219 -3.910156 310.046875 -5.308594 308.929688 -6.984375 C 304.457031 -11.453125 302.503906 -17.039062 302.503906 -23.460938 Z M 302.503906 -23.460938 "/></g></g></g><g fill="#ffc1b2" fill-opacity="0.502"><g transform="translate(605.313328, 593.533045)"><g><path d="M 228.484375 -6.984375 L 224.292969 -10.335938 C 219.824219 -13.964844 215.914062 -18.433594 212.84375 -23.460938 L 178.207031 -78.769531 C 177.089844 -80.445312 176.53125 -82.398438 177.089844 -84.632812 C 177.648438 -86.589844 178.765625 -88.265625 180.71875 -89.660156 C 187.703125 -94.691406 193.847656 -100.277344 198.875 -106.699219 C 206.417969 -115.917969 212.28125 -126.53125 216.195312 -138.261719 C 220.105469 -149.996094 222.339844 -162.285156 222.339844 -175.132812 C 222.339844 -187.980469 220.105469 -200.550781 216.195312 -212.28125 C 212.28125 -224.015625 206.417969 -234.628906 198.875 -244.125 C 189.9375 -254.738281 179.042969 -263.121094 166.753906 -268.984375 C 154.183594 -274.570312 140.496094 -277.644531 125.972656 -277.644531 L 37.707031 -277.644531 C 35.753906 -277.644531 34.355469 -276.804688 33.796875 -275.128906 C 32.960938 -273.453125 33.238281 -272.058594 34.636719 -270.660156 C 39.105469 -265.632812 41.617188 -259.765625 41.617188 -253.0625 L 41.617188 -24.023438 C 41.617188 -17.597656 39.382812 -12.011719 35.195312 -7.261719 C 33.519531 -5.585938 33.238281 -4.191406 34.078125 -2.515625 C 34.636719 -0.839844 36.03125 0 38.265625 0 L 100.835938 0 C 102.511719 0 103.90625 -0.558594 104.464844 -2.234375 C 105.023438 -3.910156 105.023438 -5.308594 103.90625 -6.984375 C 99.160156 -12.011719 96.925781 -17.597656 96.925781 -24.300781 L 96.925781 -65.082031 C 96.925781 -67.316406 97.484375 -69.269531 99.160156 -70.949219 C 100.835938 -72.625 102.789062 -73.460938 105.023438 -73.460938 L 111.726562 -73.460938 C 114.519531 -73.460938 117.035156 -72.066406 118.710938 -69.550781 L 153.066406 -14.246094 C 154.464844 -11.730469 154.183594 -9.496094 152.507812 -7.261719 L 152.230469 -6.984375 C 151.113281 -5.308594 151.113281 -3.910156 151.949219 -2.234375 C 152.507812 -0.558594 153.90625 0 155.859375 0 L 226.527344 0 C 228.484375 0 229.601562 -0.839844 230.160156 -2.515625 C 230.71875 -4.191406 230.160156 -5.585938 228.484375 -6.984375 Z M 156.140625 -141.894531 C 149.15625 -132.957031 139.101562 -128.765625 125.972656 -128.765625 L 105.023438 -128.765625 C 102.789062 -128.765625 100.835938 -129.324219 99.160156 -131 C 97.484375 -132.675781 96.925781 -134.632812 96.925781 -136.867188 L 96.925781 -213.960938 C 96.925781 -216.195312 97.484375 -218.148438 99.160156 -219.824219 C 100.835938 -221.5 102.789062 -222.339844 105.023438 -222.339844 L 125.972656 -222.339844 C 136.027344 -222.339844 143.570312 -220.105469 149.15625 -215.636719 C 154.742188 -211.164062 158.652344 -206.136719 161.445312 -200.550781 C 163.960938 -194.964844 165.636719 -189.660156 166.195312 -184.628906 C 166.753906 -179.601562 167.035156 -176.25 167.035156 -175.132812 C 167.035156 -168.429688 165.917969 -162.285156 164.238281 -156.699219 C 162.285156 -151.113281 159.492188 -146.085938 156.140625 -141.894531 Z M 156.140625 -141.894531 "/></g></g></g><g fill="#d27c07" fill-opacity="1"><g transform="translate(23.371695, 596.670944)"><g><path d="M 199.714844 -244.125 C 190.777344 -254.738281 179.882812 -263.121094 167.59375 -268.984375 C 155.023438 -274.570312 141.335938 -277.644531 126.8125 -277.644531 L 37.707031 -277.644531 C 35.753906 -277.644531 34.355469 -276.804688 33.796875 -275.128906 C 32.960938 -273.453125 33.238281 -272.058594 34.636719 -270.660156 C 39.664062 -265.074219 42.457031 -258.371094 42.457031 -250.828125 L 42.457031 -26.816406 C 42.457031 -18.992188 39.664062 -12.570312 34.636719 -6.984375 C 33.238281 -5.308594 32.960938 -3.910156 33.796875 -2.234375 C 34.355469 -0.558594 35.753906 0 37.707031 0 L 100.835938 0 C 102.511719 0 103.90625 -0.558594 104.464844 -2.234375 C 105.023438 -3.910156 105.023438 -5.308594 103.90625 -6.984375 C 99.71875 -11.453125 97.761719 -16.480469 97.761719 -22.066406 L 97.761719 -62.847656 C 97.761719 -65.640625 98.601562 -68.152344 100.835938 -70.386719 C 102.789062 -72.34375 105.304688 -73.460938 108.375 -73.460938 L 126.8125 -73.460938 C 141.335938 -73.460938 155.023438 -76.253906 167.59375 -81.839844 C 179.882812 -87.425781 190.777344 -95.808594 199.714844 -106.699219 C 207.253906 -115.917969 213.121094 -126.53125 217.03125 -138.261719 C 220.941406 -149.996094 223.175781 -162.285156 223.175781 -175.132812 C 223.175781 -187.980469 220.941406 -200.550781 217.03125 -212.28125 C 213.121094 -224.015625 207.253906 -234.628906 199.714844 -244.125 Z M 156.976562 -141.894531 C 149.996094 -132.957031 139.9375 -128.765625 126.8125 -128.765625 L 105.582031 -128.765625 C 103.347656 -128.765625 101.671875 -129.324219 99.996094 -131 C 98.320312 -132.398438 97.761719 -134.074219 97.761719 -136.308594 L 97.761719 -214.519531 C 97.761719 -216.472656 98.320312 -218.148438 99.996094 -219.824219 C 101.671875 -221.5 103.347656 -222.339844 105.582031 -222.339844 L 126.8125 -222.339844 C 136.867188 -222.339844 144.410156 -220.105469 149.996094 -215.636719 C 155.582031 -211.164062 159.492188 -206.136719 162.285156 -200.550781 C 164.796875 -194.964844 166.476562 -189.660156 167.035156 -184.628906 C 167.59375 -179.601562 167.871094 -176.25 167.871094 -175.132812 C 167.871094 -168.429688 166.753906 -162.285156 165.078125 -156.699219 C 163.121094 -151.113281 160.328125 -146.085938 156.976562 -141.894531 Z M 156.976562 -141.894531 "/></g></g></g><g fill="#d27c07" fill-opacity="1"><g transform="translate(269.160312, 596.670944)"><g><path d="M 302.503906 -23.460938 L 302.503906 -254.179688 C 302.503906 -260.328125 304.457031 -265.914062 308.929688 -270.660156 C 310.046875 -272.058594 310.324219 -273.453125 309.765625 -275.128906 C 308.929688 -276.804688 307.8125 -277.644531 306.132812 -277.644531 L 247.199219 -277.644531 L 246.917969 -277.363281 L 246.917969 -277.644531 L 239.378906 -277.644531 C 237.421875 -277.644531 236.023438 -276.804688 235.464844 -275.128906 C 234.628906 -273.453125 234.628906 -272.058594 235.746094 -270.660156 C 236.863281 -268.984375 236.585938 -267.867188 235.464844 -267.03125 L 177.925781 -213.960938 C 175.972656 -212.28125 173.738281 -211.722656 171.503906 -211.722656 C 169.269531 -211.722656 167.3125 -212.28125 165.636719 -213.960938 L 107.257812 -267.589844 C 106.140625 -268.425781 106.140625 -269.265625 107.257812 -270.382812 C 108.375 -271.777344 108.65625 -273.453125 108.097656 -275.128906 C 107.257812 -276.804688 105.863281 -277.644531 103.90625 -277.644531 L 37.988281 -277.644531 C 36.03125 -277.644531 34.636719 -276.804688 34.078125 -275.128906 C 33.238281 -273.453125 33.238281 -272.058594 34.355469 -270.660156 L 34.636719 -270.382812 C 38.824219 -265.632812 41.058594 -260.046875 41.058594 -253.902344 L 41.058594 -23.742188 C 41.058594 -17.316406 38.824219 -11.730469 34.636719 -7.261719 L 34.355469 -6.984375 C 33.238281 -5.308594 33.238281 -3.910156 34.078125 -2.234375 C 34.636719 -0.558594 36.03125 0 37.988281 0 L 99.71875 0 C 101.394531 0 102.789062 -0.558594 103.628906 -2.234375 C 104.1875 -3.910156 104.1875 -5.308594 103.347656 -6.984375 L 102.789062 -7.542969 C 98.320312 -12.011719 96.367188 -17.597656 96.367188 -24.023438 L 96.367188 -193.289062 C 96.367188 -194.964844 96.925781 -196.082031 98.601562 -196.640625 C 100.277344 -197.199219 101.671875 -197.199219 103.070312 -196.082031 L 165.636719 -137.984375 C 167.3125 -136.308594 169.269531 -135.46875 171.78125 -135.46875 C 174.015625 -135.46875 176.25 -136.308594 177.925781 -137.984375 L 240.496094 -196.082031 C 241.613281 -197.199219 243.007812 -197.199219 244.683594 -196.640625 C 246.359375 -196.082031 247.199219 -194.964844 247.199219 -193.289062 L 247.199219 -24.300781 C 247.199219 -18.15625 244.964844 -12.570312 240.496094 -7.820312 L 239.9375 -6.984375 C 238.820312 -5.308594 238.820312 -3.910156 239.65625 -2.234375 C 240.214844 -0.558594 241.613281 0 243.566406 0 L 306.132812 0 C 307.8125 0 308.929688 -0.558594 309.765625 -2.234375 C 310.324219 -3.910156 310.046875 -5.308594 308.929688 -6.984375 C 304.457031 -11.453125 302.503906 -17.039062 302.503906 -23.460938 Z M 302.503906 -23.460938 "/></g></g></g><g fill="#d27c07" fill-opacity="1"><g transform="translate(612.70575, 596.670944)"><g><path d="M 228.484375 -6.984375 L 224.292969 -10.335938 C 219.824219 -13.964844 215.914062 -18.433594 212.84375 -23.460938 L 178.207031 -78.769531 C 177.089844 -80.445312 176.53125 -82.398438 177.089844 -84.632812 C 177.648438 -86.589844 178.765625 -88.265625 180.71875 -89.660156 C 187.703125 -94.691406 193.847656 -100.277344 198.875 -106.699219 C 206.417969 -115.917969 212.28125 -126.53125 216.195312 -138.261719 C 220.105469 -149.996094 222.339844 -162.285156 222.339844 -175.132812 C 222.339844 -187.980469 220.105469 -200.550781 216.195312 -212.28125 C 212.28125 -224.015625 206.417969 -234.628906 198.875 -244.125 C 189.9375 -254.738281 179.042969 -263.121094 166.753906 -268.984375 C 154.183594 -274.570312 140.496094 -277.644531 125.972656 -277.644531 L 37.707031 -277.644531 C 35.753906 -277.644531 34.355469 -276.804688 33.796875 -275.128906 C 32.960938 -273.453125 33.238281 -272.058594 34.636719 -270.660156 C 39.105469 -265.632812 41.617188 -259.765625 41.617188 -253.0625 L 41.617188 -24.023438 C 41.617188 -17.597656 39.382812 -12.011719 35.195312 -7.261719 C 33.519531 -5.585938 33.238281 -4.191406 34.078125 -2.515625 C 34.636719 -0.839844 36.03125 0 38.265625 0 L 100.835938 0 C 102.511719 0 103.90625 -0.558594 104.464844 -2.234375 C 105.023438 -3.910156 105.023438 -5.308594 103.90625 -6.984375 C 99.160156 -12.011719 96.925781 -17.597656 96.925781 -24.300781 L 96.925781 -65.082031 C 96.925781 -67.316406 97.484375 -69.269531 99.160156 -70.949219 C 100.835938 -72.625 102.789062 -73.460938 105.023438 -73.460938 L 111.726562 -73.460938 C 114.519531 -73.460938 117.035156 -72.066406 118.710938 -69.550781 L 153.066406 -14.246094 C 154.464844 -11.730469 154.183594 -9.496094 152.507812 -7.261719 L 152.230469 -6.984375 C 151.113281 -5.308594 151.113281 -3.910156 151.949219 -2.234375 C 152.507812 -0.558594 153.90625 0 155.859375 0 L 226.527344 0 C 228.484375 0 229.601562 -0.839844 230.160156 -2.515625 C 230.71875 -4.191406 230.160156 -5.585938 228.484375 -6.984375 Z M 156.140625 -141.894531 C 149.15625 -132.957031 139.101562 -128.765625 125.972656 -128.765625 L 105.023438 -128.765625 C 102.789062 -128.765625 100.835938 -129.324219 99.160156 -131 C 97.484375 -132.675781 96.925781 -134.632812 96.925781 -136.867188 L 96.925781 -213.960938 C 96.925781 -216.195312 97.484375 -218.148438 99.160156 -219.824219 C 100.835938 -221.5 102.789062 -222.339844 105.023438 -222.339844 L 125.972656 -222.339844 C 136.027344 -222.339844 143.570312 -220.105469 149.15625 -215.636719 C 154.742188 -211.164062 158.652344 -206.136719 161.445312 -200.550781 C 163.960938 -194.964844 165.636719 -189.660156 166.195312 -184.628906 C 166.753906 -179.601562 167.035156 -176.25 167.035156 -175.132812 C 167.035156 -168.429688 165.917969 -162.285156 164.238281 -156.699219 C 162.285156 -151.113281 159.492188 -146.085938 156.140625 -141.894531 Z M 156.140625 -141.894531 "/></g></g></g></svg>