<svg xmlns="http://www.w3.org/2000/svg" xmlns:xlink="http://www.w3.org/1999/xlink" width="800" zoomAndPan="magnify" viewBox="0 0 600 30.000001" height="40" preserveAspectRatio="xMidYMid meet" version="1.0"><defs><g/></defs><g fill="#ffffff" fill-opacity="1"><g transform="translate(179.612772, 26.970953)"><g><path d="M 7 -12.070312 L 8.457031 -12.070312 C 10.585938 -12.070312 13.191406 -12.882812 13.191406 -15.820312 C 13.191406 -18.761719 10.613281 -19.601562 8.457031 -19.601562 L 7 -19.601562 C 6.554688 -19.601562 6.300781 -19.183594 6.300781 -18.902344 L 6.300781 -12.769531 C 6.300781 -12.320312 6.691406 -12.070312 7 -12.070312 Z M 7.699219 -13.46875 L 7.699219 -18.203125 L 8.457031 -18.203125 C 10.417969 -18.203125 11.789062 -17.613281 11.789062 -15.820312 C 11.789062 -14.03125 10.445312 -13.46875 8.457031 -13.46875 Z M 2.4375 -22.402344 L 10.136719 -22.402344 C 14.394531 -22.402344 17.335938 -20.300781 17.335938 -15.988281 C 17.335938 -11.648438 14.335938 -9.269531 10.136719 -9.269531 L 7 -9.269531 C 6.554688 -9.269531 6.300781 -8.847656 6.300781 -8.570312 L 6.300781 -0.699219 L 2.4375 -0.699219 Z M 1.734375 -23.804688 C 1.429688 -23.804688 1.035156 -23.523438 1.035156 -23.101562 L 1.035156 0 C 1.035156 0.308594 1.289062 0.699219 1.734375 0.699219 L 7 0.699219 C 7.28125 0.699219 7.699219 0.449219 7.699219 0 L 7.699219 -7.867188 L 10.136719 -7.867188 C 14.925781 -7.867188 18.734375 -10.78125 18.734375 -15.988281 C 18.734375 -21.226562 14.871094 -23.804688 10.136719 -23.804688 Z M 1.734375 -23.804688 "/></g></g></g><g fill="#ffffff" fill-opacity="1"><g transform="translate(206.662924, 26.970953)"><g><path d="M 2.074219 -11.566406 C 2.074219 -17.921875 7.058594 -22.824219 13.023438 -22.824219 C 19.015625 -22.824219 23.941406 -17.921875 23.941406 -11.566406 C 23.941406 -5.152344 19.238281 -0.28125 13.023438 -0.28125 C 6.582031 -0.28125 2.074219 -5.152344 2.074219 -11.566406 Z M 0.671875 -11.566406 C 0.671875 -4.453125 5.769531 1.121094 13.023438 1.121094 C 20.050781 1.121094 25.34375 -4.453125 25.34375 -11.566406 C 25.34375 -18.679688 19.828125 -24.222656 13.023438 -24.222656 C 6.246094 -24.222656 0.671875 -18.679688 0.671875 -11.566406 Z M 6.355469 -11.566406 C 6.355469 -7.925781 8.175781 -3.976562 13.023438 -3.976562 C 17.726562 -3.976562 19.660156 -7.925781 19.660156 -11.566406 C 19.660156 -15.207031 17.613281 -19.15625 13.023438 -19.15625 C 8.429688 -19.15625 6.355469 -15.207031 6.355469 -11.566406 Z M 7.757812 -11.566406 C 7.757812 -14.785156 9.464844 -17.753906 13.023438 -17.753906 C 16.578125 -17.753906 18.257812 -14.785156 18.257812 -11.566406 C 18.257812 -8.289062 16.691406 -5.375 13.023438 -5.375 C 9.214844 -5.375 7.757812 -8.289062 7.757812 -11.566406 Z M 7.757812 -11.566406 "/></g></g></g><g fill="#ffffff" fill-opacity="1"><g transform="translate(240.46037, 26.970953)"><g><path d="M 2.4375 -22.402344 L 10.164062 -22.402344 C 14.421875 -22.402344 17.363281 -20.300781 17.363281 -15.988281 C 17.363281 -12.992188 15.960938 -11.003906 13.804688 -9.996094 C 13.554688 -9.886719 13.160156 -9.519531 13.527344 -8.988281 L 18.988281 -0.699219 L 14.871094 -0.699219 L 9.4375 -8.933594 C 9.324219 -9.128906 9.074219 -9.269531 8.878906 -9.269531 L 7 -9.269531 C 6.554688 -9.269531 6.300781 -8.847656 6.300781 -8.570312 L 6.300781 -0.699219 L 2.4375 -0.699219 Z M 1.734375 -23.804688 C 1.429688 -23.804688 1.035156 -23.523438 1.035156 -23.101562 L 1.035156 0 C 1.035156 0.308594 1.289062 0.699219 1.734375 0.699219 L 7 0.699219 C 7.28125 0.699219 7.699219 0.449219 7.699219 0 L 7.699219 -7.867188 L 8.484375 -7.867188 L 13.917969 0.390625 C 14.03125 0.589844 14.253906 0.699219 14.507812 0.699219 L 20.300781 0.699219 C 21.648438 0.699219 20.863281 -0.363281 20.863281 -0.363281 L 15.121094 -9.101562 C 17.335938 -10.445312 18.761719 -12.824219 18.761719 -15.988281 C 18.761719 -21.226562 14.898438 -23.804688 10.164062 -23.804688 Z M 7 -12.070312 L 8.484375 -12.070312 C 10.613281 -12.070312 13.21875 -12.882812 13.21875 -15.820312 C 13.21875 -18.761719 10.640625 -19.601562 8.484375 -19.601562 L 7 -19.601562 C 6.554688 -19.601562 6.300781 -19.183594 6.300781 -18.902344 L 6.300781 -12.769531 C 6.300781 -12.320312 6.691406 -12.070312 7 -12.070312 Z M 7.699219 -13.46875 L 7.699219 -18.203125 L 8.484375 -18.203125 C 10.445312 -18.203125 11.816406 -17.613281 11.816406 -15.820312 C 11.816406 -14.03125 10.472656 -13.46875 8.484375 -13.46875 Z M 7.699219 -13.46875 "/></g></g></g><g fill="#ffffff" fill-opacity="1"><g transform="translate(269.442317, 26.970953)"><g><path d="M 1.933594 -19.183594 L 1.933594 -22.402344 L 16.773438 -22.402344 L 16.773438 -19.183594 L 11.984375 -19.183594 C 11.539062 -19.183594 11.285156 -18.761719 11.285156 -18.480469 L 11.285156 -0.699219 L 7.421875 -0.699219 L 7.421875 -18.480469 C 7.421875 -18.902344 7 -19.183594 6.722656 -19.183594 Z M 0.53125 -18.480469 C 0.53125 -18.175781 0.785156 -17.78125 1.230469 -17.78125 L 6.019531 -17.78125 L 6.019531 0 C 6.019531 0.308594 6.273438 0.699219 6.722656 0.699219 L 11.984375 0.699219 C 12.265625 0.699219 12.6875 0.449219 12.6875 0 L 12.6875 -17.78125 L 17.472656 -17.78125 C 17.753906 -17.78125 18.175781 -18.035156 18.175781 -18.480469 L 18.175781 -23.101562 C 18.175781 -23.382812 17.894531 -23.804688 17.472656 -23.804688 L 1.230469 -23.804688 C 0.925781 -23.804688 0.53125 -23.523438 0.53125 -23.101562 Z M 0.53125 -18.480469 "/></g></g></g><g fill="#ffffff" fill-opacity="1"><g transform="translate(295.876524, 26.970953)"><g><path d="M 14.394531 -22.402344 L 14.394531 -19.183594 L 7 -19.183594 C 6.554688 -19.183594 6.300781 -18.761719 6.300781 -18.480469 L 6.300781 -13.890625 C 6.300781 -13.441406 6.691406 -13.191406 7 -13.191406 L 13.777344 -13.191406 L 13.777344 -9.96875 L 7 -9.96875 C 6.554688 -9.96875 6.300781 -9.550781 6.300781 -9.269531 L 6.300781 -0.699219 L 2.4375 -0.699219 L 2.4375 -22.402344 Z M 15.792969 -23.101562 C 15.792969 -23.382812 15.515625 -23.804688 15.09375 -23.804688 L 1.734375 -23.804688 C 1.429688 -23.804688 1.035156 -23.523438 1.035156 -23.101562 L 1.035156 0 C 1.035156 0.308594 1.289062 0.699219 1.734375 0.699219 L 7 0.699219 C 7.28125 0.699219 7.699219 0.449219 7.699219 0 L 7.699219 -8.570312 L 14.476562 -8.570312 C 14.757812 -8.570312 15.179688 -8.820312 15.179688 -9.269531 L 15.179688 -13.890625 C 15.179688 -14.167969 14.898438 -14.589844 14.476562 -14.589844 L 7.699219 -14.589844 L 7.699219 -17.78125 L 15.09375 -17.78125 C 15.375 -17.78125 15.792969 -18.035156 15.792969 -18.480469 Z M 15.792969 -23.101562 "/></g></g></g><g fill="#ffffff" fill-opacity="1"><g transform="translate(319.986972, 26.970953)"><g><path d="M 2.074219 -11.566406 C 2.074219 -17.921875 7.058594 -22.824219 13.023438 -22.824219 C 19.015625 -22.824219 23.941406 -17.921875 23.941406 -11.566406 C 23.941406 -5.152344 19.238281 -0.28125 13.023438 -0.28125 C 6.582031 -0.28125 2.074219 -5.152344 2.074219 -11.566406 Z M 0.671875 -11.566406 C 0.671875 -4.453125 5.769531 1.121094 13.023438 1.121094 C 20.050781 1.121094 25.34375 -4.453125 25.34375 -11.566406 C 25.34375 -18.679688 19.828125 -24.222656 13.023438 -24.222656 C 6.246094 -24.222656 0.671875 -18.679688 0.671875 -11.566406 Z M 6.355469 -11.566406 C 6.355469 -7.925781 8.175781 -3.976562 13.023438 -3.976562 C 17.726562 -3.976562 19.660156 -7.925781 19.660156 -11.566406 C 19.660156 -15.207031 17.613281 -19.15625 13.023438 -19.15625 C 8.429688 -19.15625 6.355469 -15.207031 6.355469 -11.566406 Z M 7.757812 -11.566406 C 7.757812 -14.785156 9.464844 -17.753906 13.023438 -17.753906 C 16.578125 -17.753906 18.257812 -14.785156 18.257812 -11.566406 C 18.257812 -8.289062 16.691406 -5.375 13.023438 -5.375 C 9.214844 -5.375 7.757812 -8.289062 7.757812 -11.566406 Z M 7.757812 -11.566406 "/></g></g></g><g fill="#ffffff" fill-opacity="1"><g transform="translate(353.784419, 26.970953)"><g><path d="M 6.300781 -22.402344 L 6.300781 -4.621094 C 6.300781 -4.171875 6.691406 -3.921875 7 -3.921875 L 14.253906 -3.921875 L 14.253906 -0.699219 L 2.4375 -0.699219 L 2.4375 -22.402344 Z M 7.699219 -23.101562 C 7.699219 -23.382812 7.421875 -23.804688 7 -23.804688 L 1.734375 -23.804688 C 1.429688 -23.804688 1.035156 -23.523438 1.035156 -23.101562 L 1.035156 0 C 1.035156 0.308594 1.289062 0.699219 1.734375 0.699219 L 14.953125 0.699219 C 15.234375 0.699219 15.652344 0.449219 15.652344 0 L 15.652344 -4.621094 C 15.652344 -4.902344 15.375 -5.320312 14.953125 -5.320312 L 7.699219 -5.320312 Z M 7.699219 -23.101562 "/></g></g></g><g fill="#ffffff" fill-opacity="1"><g transform="translate(377.782885, 26.970953)"><g><path d="M 6.300781 -22.402344 L 6.300781 -0.699219 L 2.4375 -0.699219 L 2.4375 -22.402344 Z M 7.699219 -23.101562 C 7.699219 -23.382812 7.421875 -23.804688 7 -23.804688 L 1.734375 -23.804688 C 1.429688 -23.804688 1.035156 -23.523438 1.035156 -23.101562 L 1.035156 0 C 1.035156 0.308594 1.289062 0.699219 1.734375 0.699219 L 7 0.699219 C 7.28125 0.699219 7.699219 0.449219 7.699219 0 Z M 7.699219 -23.101562 "/></g></g></g><g fill="#ffffff" fill-opacity="1"><g transform="translate(394.250131, 26.970953)"><g><path d="M 2.074219 -11.566406 C 2.074219 -17.921875 7.058594 -22.824219 13.023438 -22.824219 C 19.015625 -22.824219 23.941406 -17.921875 23.941406 -11.566406 C 23.941406 -5.152344 19.238281 -0.28125 13.023438 -0.28125 C 6.582031 -0.28125 2.074219 -5.152344 2.074219 -11.566406 Z M 0.671875 -11.566406 C 0.671875 -4.453125 5.769531 1.121094 13.023438 1.121094 C 20.050781 1.121094 25.34375 -4.453125 25.34375 -11.566406 C 25.34375 -18.679688 19.828125 -24.222656 13.023438 -24.222656 C 6.246094 -24.222656 0.671875 -18.679688 0.671875 -11.566406 Z M 6.355469 -11.566406 C 6.355469 -7.925781 8.175781 -3.976562 13.023438 -3.976562 C 17.726562 -3.976562 19.660156 -7.925781 19.660156 -11.566406 C 19.660156 -15.207031 17.613281 -19.15625 13.023438 -19.15625 C 8.429688 -19.15625 6.355469 -15.207031 6.355469 -11.566406 Z M 7.757812 -11.566406 C 7.757812 -14.785156 9.464844 -17.753906 13.023438 -17.753906 C 16.578125 -17.753906 18.257812 -14.785156 18.257812 -11.566406 C 18.257812 -8.289062 16.691406 -5.375 13.023438 -5.375 C 9.214844 -5.375 7.757812 -8.289062 7.757812 -11.566406 Z M 7.757812 -11.566406 "/></g></g></g></svg>