<svg xmlns="http://www.w3.org/2000/svg" xmlns:xlink="http://www.w3.org/1999/xlink" width="800" zoomAndPan="magnify" viewBox="0 0 600 262.499992" height="350" preserveAspectRatio="xMidYMid meet" version="1.0"><defs><g/></defs><g fill="#ff00ff" fill-opacity="1"><g transform="translate(2.409193, 118.15578)"><g><path d="M 83.4375 -23.253906 L 97.113281 -36.929688 L 97.113281 -82.070312 L 83.4375 -95.746094 L 0.683594 -95.746094 L 0.683594 -73.863281 L 75.230469 -73.863281 L 75.230469 -45.136719 L 32.828125 -45.136719 L 32.828125 -67.023438 L 10.941406 -67.023438 L 10.941406 0 L 32.828125 0 L 32.828125 -23.253906 Z M 83.4375 -23.253906 "/></g></g></g><g fill="#ff00ff" fill-opacity="1"><g transform="translate(118.263297, 118.15578)"><g><path d="M 83.4375 -23.253906 L 97.113281 -36.929688 L 97.113281 -82.070312 L 83.4375 -95.746094 L 0.683594 -95.746094 L 0.683594 -73.863281 L 75.230469 -73.863281 L 75.230469 -45.136719 L 32.828125 -45.136719 L 32.828125 -67.023438 L 10.941406 -67.023438 L 10.941406 0 L 32.828125 0 L 32.828125 -23.253906 L 55.671875 -23.253906 C 62.507812 -15.457031 69.210938 -7.660156 76.1875 0 L 103.953125 0 C 96.976562 -7.660156 90.277344 -15.457031 83.4375 -23.253906 Z M 83.4375 -23.253906 "/></g></g></g><g fill="#ff00ff" fill-opacity="1"><g transform="translate(238.220866, 118.15578)"><g><path d="M 99.851562 0 L 99.851562 -21.886719 L 28.722656 -21.886719 L 28.722656 -73.863281 L 81.386719 -73.863281 L 81.386719 -57.449219 L 35.5625 -57.449219 L 35.5625 -35.5625 L 89.59375 -35.5625 L 103.269531 -49.242188 L 103.269531 -82.070312 L 89.59375 -95.746094 L 20.515625 -95.746094 L 6.839844 -82.070312 L 6.839844 -13.679688 L 20.515625 0 Z M 99.851562 0 "/></g></g></g><g fill="#ff00ff" fill-opacity="1"><g transform="translate(362.965758, 118.15578)"><g><path d="M 84.121094 0 L 97.800781 -13.679688 L 97.800781 -45.136719 L 84.121094 -58.816406 L 28.722656 -58.816406 L 28.722656 -73.863281 L 97.800781 -73.863281 L 97.800781 -95.746094 L 20.515625 -95.746094 L 6.839844 -82.070312 L 6.839844 -50.609375 L 20.515625 -36.929688 L 75.914062 -36.929688 L 75.914062 -21.886719 L 6.839844 -21.886719 L 6.839844 0 Z M 84.121094 0 "/></g></g></g><g fill="#ff00ff" fill-opacity="1"><g transform="translate(482.239417, 118.15578)"><g><path d="M 84.121094 0 L 97.800781 -13.679688 L 97.800781 -45.136719 L 84.121094 -58.816406 L 28.722656 -58.816406 L 28.722656 -73.863281 L 97.800781 -73.863281 L 97.800781 -95.746094 L 20.515625 -95.746094 L 6.839844 -82.070312 L 6.839844 -50.609375 L 20.515625 -36.929688 L 75.914062 -36.929688 L 75.914062 -21.886719 L 6.839844 -21.886719 L 6.839844 0 Z M 84.121094 0 "/></g></g></g><g fill="#00ffff" fill-opacity="1"><g transform="translate(15.985403, 116.488832)"><g><path d="M 83.4375 -23.253906 L 97.113281 -36.929688 L 97.113281 -82.070312 L 83.4375 -95.746094 L 0.683594 -95.746094 L 0.683594 -73.863281 L 75.230469 -73.863281 L 75.230469 -45.136719 L 32.828125 -45.136719 L 32.828125 -67.023438 L 10.941406 -67.023438 L 10.941406 0 L 32.828125 0 L 32.828125 -23.253906 Z M 83.4375 -23.253906 "/></g></g></g><g fill="#00ffff" fill-opacity="1"><g transform="translate(131.839507, 116.488832)"><g><path d="M 83.4375 -23.253906 L 97.113281 -36.929688 L 97.113281 -82.070312 L 83.4375 -95.746094 L 0.683594 -95.746094 L 0.683594 -73.863281 L 75.230469 -73.863281 L 75.230469 -45.136719 L 32.828125 -45.136719 L 32.828125 -67.023438 L 10.941406 -67.023438 L 10.941406 0 L 32.828125 0 L 32.828125 -23.253906 L 55.671875 -23.253906 C 62.507812 -15.457031 69.210938 -7.660156 76.1875 0 L 103.953125 0 C 96.976562 -7.660156 90.277344 -15.457031 83.4375 -23.253906 Z M 83.4375 -23.253906 "/></g></g></g><g fill="#00ffff" fill-opacity="1"><g transform="translate(251.797076, 116.488832)"><g><path d="M 99.851562 0 L 99.851562 -21.886719 L 28.722656 -21.886719 L 28.722656 -73.863281 L 81.386719 -73.863281 L 81.386719 -57.449219 L 35.5625 -57.449219 L 35.5625 -35.5625 L 89.59375 -35.5625 L 103.269531 -49.242188 L 103.269531 -82.070312 L 89.59375 -95.746094 L 20.515625 -95.746094 L 6.839844 -82.070312 L 6.839844 -13.679688 L 20.515625 0 Z M 99.851562 0 "/></g></g></g><g fill="#00ffff" fill-opacity="1"><g transform="translate(376.541968, 116.488832)"><g><path d="M 84.121094 0 L 97.800781 -13.679688 L 97.800781 -45.136719 L 84.121094 -58.816406 L 28.722656 -58.816406 L 28.722656 -73.863281 L 97.800781 -73.863281 L 97.800781 -95.746094 L 20.515625 -95.746094 L 6.839844 -82.070312 L 6.839844 -50.609375 L 20.515625 -36.929688 L 75.914062 -36.929688 L 75.914062 -21.886719 L 6.839844 -21.886719 L 6.839844 0 Z M 84.121094 0 "/></g></g></g><g fill="#00ffff" fill-opacity="1"><g transform="translate(495.815626, 116.488832)"><g><path d="M 84.121094 0 L 97.800781 -13.679688 L 97.800781 -45.136719 L 84.121094 -58.816406 L 28.722656 -58.816406 L 28.722656 -73.863281 L 97.800781 -73.863281 L 97.800781 -95.746094 L 20.515625 -95.746094 L 6.839844 -82.070312 L 6.839844 -50.609375 L 20.515625 -36.929688 L 75.914062 -36.929688 L 75.914062 -21.886719 L 6.839844 -21.886719 L 6.839844 0 Z M 84.121094 0 "/></g></g></g><g fill="#6371c7" fill-opacity="1"><g transform="translate(9.197298, 117.322306)"><g><path d="M 83.4375 -23.253906 L 97.113281 -36.929688 L 97.113281 -82.070312 L 83.4375 -95.746094 L 0.683594 -95.746094 L 0.683594 -73.863281 L 75.230469 -73.863281 L 75.230469 -45.136719 L 32.828125 -45.136719 L 32.828125 -67.023438 L 10.941406 -67.023438 L 10.941406 0 L 32.828125 0 L 32.828125 -23.253906 Z M 83.4375 -23.253906 "/></g></g></g><g fill="#6371c7" fill-opacity="1"><g transform="translate(125.051402, 117.322306)"><g><path d="M 83.4375 -23.253906 L 97.113281 -36.929688 L 97.113281 -82.070312 L 83.4375 -95.746094 L 0.683594 -95.746094 L 0.683594 -73.863281 L 75.230469 -73.863281 L 75.230469 -45.136719 L 32.828125 -45.136719 L 32.828125 -67.023438 L 10.941406 -67.023438 L 10.941406 0 L 32.828125 0 L 32.828125 -23.253906 L 55.671875 -23.253906 C 62.507812 -15.457031 69.210938 -7.660156 76.1875 0 L 103.953125 0 C 96.976562 -7.660156 90.277344 -15.457031 83.4375 -23.253906 Z M 83.4375 -23.253906 "/></g></g></g><g fill="#6371c7" fill-opacity="1"><g transform="translate(245.008971, 117.322306)"><g><path d="M 99.851562 0 L 99.851562 -21.886719 L 28.722656 -21.886719 L 28.722656 -73.863281 L 81.386719 -73.863281 L 81.386719 -57.449219 L 35.5625 -57.449219 L 35.5625 -35.5625 L 89.59375 -35.5625 L 103.269531 -49.242188 L 103.269531 -82.070312 L 89.59375 -95.746094 L 20.515625 -95.746094 L 6.839844 -82.070312 L 6.839844 -13.679688 L 20.515625 0 Z M 99.851562 0 "/></g></g></g><g fill="#6371c7" fill-opacity="1"><g transform="translate(369.753863, 117.322306)"><g><path d="M 84.121094 0 L 97.800781 -13.679688 L 97.800781 -45.136719 L 84.121094 -58.816406 L 28.722656 -58.816406 L 28.722656 -73.863281 L 97.800781 -73.863281 L 97.800781 -95.746094 L 20.515625 -95.746094 L 6.839844 -82.070312 L 6.839844 -50.609375 L 20.515625 -36.929688 L 75.914062 -36.929688 L 75.914062 -21.886719 L 6.839844 -21.886719 L 6.839844 0 Z M 84.121094 0 "/></g></g></g><g fill="#6371c7" fill-opacity="1"><g transform="translate(489.027522, 117.322306)"><g><path d="M 84.121094 0 L 97.800781 -13.679688 L 97.800781 -45.136719 L 84.121094 -58.816406 L 28.722656 -58.816406 L 28.722656 -73.863281 L 97.800781 -73.863281 L 97.800781 -95.746094 L 20.515625 -95.746094 L 6.839844 -82.070312 L 6.839844 -50.609375 L 20.515625 -36.929688 L 75.914062 -36.929688 L 75.914062 -21.886719 L 6.839844 -21.886719 L 6.839844 0 Z M 84.121094 0 "/></g></g></g><g fill="#ff00ff" fill-opacity="1"><g transform="translate(6.590116, 241.259255)"><g><path d="M 84.121094 0 L 97.800781 -13.679688 L 97.800781 -45.136719 L 84.121094 -58.816406 L 28.722656 -58.816406 L 28.722656 -73.863281 L 97.800781 -73.863281 L 97.800781 -95.746094 L 20.515625 -95.746094 L 6.839844 -82.070312 L 6.839844 -50.609375 L 20.515625 -36.929688 L 75.914062 -36.929688 L 75.914062 -21.886719 L 6.839844 -21.886719 L 6.839844 0 Z M 84.121094 0 "/></g></g></g><g fill="#ff00ff" fill-opacity="1"><g transform="translate(125.863761, 241.259255)"><g><path d="M 60.320312 0 L 60.320312 -73.863281 L 98.074219 -73.863281 L 98.074219 -95.746094 L 0.683594 -95.746094 L 0.683594 -73.863281 L 38.4375 -73.863281 L 38.4375 0 Z M 60.320312 0 "/></g></g></g><g fill="#ff00ff" fill-opacity="1"><g transform="translate(239.255791, 241.259255)"><g><path d="M 103.269531 0 L 103.269531 -82.070312 L 89.59375 -95.746094 L 10.257812 -95.746094 L 10.257812 -73.863281 L 81.386719 -73.863281 L 81.386719 -58.816406 L 20.515625 -58.816406 L 6.839844 -45.136719 L 6.839844 -13.679688 L 20.515625 0 L 74.546875 0 L 74.546875 -21.886719 L 28.722656 -21.886719 L 28.722656 -36.929688 L 81.386719 -36.929688 L 81.386719 -13.679688 L 95.0625 0 Z M 103.269531 0 "/></g></g></g><g fill="#ff00ff" fill-opacity="1"><g transform="translate(364.000709, 241.259255)"><g><path d="M 83.4375 -23.253906 L 97.113281 -36.929688 L 97.113281 -82.070312 L 83.4375 -95.746094 L 0.683594 -95.746094 L 0.683594 -73.863281 L 75.230469 -73.863281 L 75.230469 -45.136719 L 32.828125 -45.136719 L 32.828125 -67.023438 L 10.941406 -67.023438 L 10.941406 0 L 32.828125 0 L 32.828125 -23.253906 L 55.671875 -23.253906 C 62.507812 -15.457031 69.210938 -7.660156 76.1875 0 L 103.953125 0 C 96.976562 -7.660156 90.277344 -15.457031 83.4375 -23.253906 Z M 83.4375 -23.253906 "/></g></g></g><g fill="#ff00ff" fill-opacity="1"><g transform="translate(483.958264, 241.259255)"><g><path d="M 60.320312 0 L 60.320312 -73.863281 L 98.074219 -73.863281 L 98.074219 -95.746094 L 0.683594 -95.746094 L 0.683594 -73.863281 L 38.4375 -73.863281 L 38.4375 0 Z M 60.320312 0 "/></g></g></g><g fill="#00ffff" fill-opacity="1"><g transform="translate(20.166326, 239.592307)"><g><path d="M 84.121094 0 L 97.800781 -13.679688 L 97.800781 -45.136719 L 84.121094 -58.816406 L 28.722656 -58.816406 L 28.722656 -73.863281 L 97.800781 -73.863281 L 97.800781 -95.746094 L 20.515625 -95.746094 L 6.839844 -82.070312 L 6.839844 -50.609375 L 20.515625 -36.929688 L 75.914062 -36.929688 L 75.914062 -21.886719 L 6.839844 -21.886719 L 6.839844 0 Z M 84.121094 0 "/></g></g></g><g fill="#00ffff" fill-opacity="1"><g transform="translate(139.439971, 239.592307)"><g><path d="M 60.320312 0 L 60.320312 -73.863281 L 98.074219 -73.863281 L 98.074219 -95.746094 L 0.683594 -95.746094 L 0.683594 -73.863281 L 38.4375 -73.863281 L 38.4375 0 Z M 60.320312 0 "/></g></g></g><g fill="#00ffff" fill-opacity="1"><g transform="translate(252.832001, 239.592307)"><g><path d="M 103.269531 0 L 103.269531 -82.070312 L 89.59375 -95.746094 L 10.257812 -95.746094 L 10.257812 -73.863281 L 81.386719 -73.863281 L 81.386719 -58.816406 L 20.515625 -58.816406 L 6.839844 -45.136719 L 6.839844 -13.679688 L 20.515625 0 L 74.546875 0 L 74.546875 -21.886719 L 28.722656 -21.886719 L 28.722656 -36.929688 L 81.386719 -36.929688 L 81.386719 -13.679688 L 95.0625 0 Z M 103.269531 0 "/></g></g></g><g fill="#00ffff" fill-opacity="1"><g transform="translate(377.576919, 239.592307)"><g><path d="M 83.4375 -23.253906 L 97.113281 -36.929688 L 97.113281 -82.070312 L 83.4375 -95.746094 L 0.683594 -95.746094 L 0.683594 -73.863281 L 75.230469 -73.863281 L 75.230469 -45.136719 L 32.828125 -45.136719 L 32.828125 -67.023438 L 10.941406 -67.023438 L 10.941406 0 L 32.828125 0 L 32.828125 -23.253906 L 55.671875 -23.253906 C 62.507812 -15.457031 69.210938 -7.660156 76.1875 0 L 103.953125 0 C 96.976562 -7.660156 90.277344 -15.457031 83.4375 -23.253906 Z M 83.4375 -23.253906 "/></g></g></g><g fill="#00ffff" fill-opacity="1"><g transform="translate(497.534474, 239.592307)"><g><path d="M 60.320312 0 L 60.320312 -73.863281 L 98.074219 -73.863281 L 98.074219 -95.746094 L 0.683594 -95.746094 L 0.683594 -73.863281 L 38.4375 -73.863281 L 38.4375 0 Z M 60.320312 0 "/></g></g></g><g fill="#6371c7" fill-opacity="1"><g transform="translate(13.378221, 240.425781)"><g><path d="M 84.121094 0 L 97.800781 -13.679688 L 97.800781 -45.136719 L 84.121094 -58.816406 L 28.722656 -58.816406 L 28.722656 -73.863281 L 97.800781 -73.863281 L 97.800781 -95.746094 L 20.515625 -95.746094 L 6.839844 -82.070312 L 6.839844 -50.609375 L 20.515625 -36.929688 L 75.914062 -36.929688 L 75.914062 -21.886719 L 6.839844 -21.886719 L 6.839844 0 Z M 84.121094 0 "/></g></g></g><g fill="#6371c7" fill-opacity="1"><g transform="translate(132.651866, 240.425781)"><g><path d="M 60.320312 0 L 60.320312 -73.863281 L 98.074219 -73.863281 L 98.074219 -95.746094 L 0.683594 -95.746094 L 0.683594 -73.863281 L 38.4375 -73.863281 L 38.4375 0 Z M 60.320312 0 "/></g></g></g><g fill="#6371c7" fill-opacity="1"><g transform="translate(246.043896, 240.425781)"><g><path d="M 103.269531 0 L 103.269531 -82.070312 L 89.59375 -95.746094 L 10.257812 -95.746094 L 10.257812 -73.863281 L 81.386719 -73.863281 L 81.386719 -58.816406 L 20.515625 -58.816406 L 6.839844 -45.136719 L 6.839844 -13.679688 L 20.515625 0 L 74.546875 0 L 74.546875 -21.886719 L 28.722656 -21.886719 L 28.722656 -36.929688 L 81.386719 -36.929688 L 81.386719 -13.679688 L 95.0625 0 Z M 103.269531 0 "/></g></g></g><g fill="#6371c7" fill-opacity="1"><g transform="translate(370.788814, 240.425781)"><g><path d="M 83.4375 -23.253906 L 97.113281 -36.929688 L 97.113281 -82.070312 L 83.4375 -95.746094 L 0.683594 -95.746094 L 0.683594 -73.863281 L 75.230469 -73.863281 L 75.230469 -45.136719 L 32.828125 -45.136719 L 32.828125 -67.023438 L 10.941406 -67.023438 L 10.941406 0 L 32.828125 0 L 32.828125 -23.253906 L 55.671875 -23.253906 C 62.507812 -15.457031 69.210938 -7.660156 76.1875 0 L 103.953125 0 C 96.976562 -7.660156 90.277344 -15.457031 83.4375 -23.253906 Z M 83.4375 -23.253906 "/></g></g></g><g fill="#6371c7" fill-opacity="1"><g transform="translate(490.746369, 240.425781)"><g><path d="M 60.320312 0 L 60.320312 -73.863281 L 98.074219 -73.863281 L 98.074219 -95.746094 L 0.683594 -95.746094 L 0.683594 -73.863281 L 38.4375 -73.863281 L 38.4375 0 Z M 60.320312 0 "/></g></g></g></svg>