<svg xmlns="http://www.w3.org/2000/svg" xmlns:xlink="http://www.w3.org/1999/xlink" width="800" zoomAndPan="magnify" viewBox="0 0 600 30.000001" height="40" preserveAspectRatio="xMidYMid meet" version="1.0"><defs><g/></defs><g fill="#ffffff" fill-opacity="1"><g transform="translate(249.194975, 27.696759)"><g><path d="M 1.933594 -19.183594 L 1.933594 -22.402344 L 16.773438 -22.402344 L 16.773438 -19.183594 L 11.984375 -19.183594 C 11.539062 -19.183594 11.285156 -18.761719 11.285156 -18.480469 L 11.285156 -0.699219 L 7.421875 -0.699219 L 7.421875 -18.480469 C 7.421875 -18.902344 7 -19.183594 6.722656 -19.183594 Z M 0.53125 -18.480469 C 0.53125 -18.175781 0.785156 -17.78125 1.230469 -17.78125 L 6.019531 -17.78125 L 6.019531 0 C 6.019531 0.308594 6.273438 0.699219 6.722656 0.699219 L 11.984375 0.699219 C 12.265625 0.699219 12.6875 0.449219 12.6875 0 L 12.6875 -17.78125 L 17.472656 -17.78125 C 17.753906 -17.78125 18.175781 -18.035156 18.175781 -18.480469 L 18.175781 -23.101562 C 18.175781 -23.382812 17.894531 -23.804688 17.472656 -23.804688 L 1.230469 -23.804688 C 0.925781 -23.804688 0.53125 -23.523438 0.53125 -23.101562 Z M 0.53125 -18.480469 "/></g></g></g><g fill="#ffffff" fill-opacity="1"><g transform="translate(275.629181, 27.696759)"><g><path d="M 14.253906 -22.402344 L 14.253906 -19.183594 L 7 -19.183594 C 6.554688 -19.183594 6.300781 -18.761719 6.300781 -18.480469 L 6.300781 -13.890625 C 6.300781 -13.441406 6.691406 -13.191406 7 -13.191406 L 13.917969 -13.191406 L 13.917969 -9.96875 L 7 -9.96875 C 6.554688 -9.96875 6.300781 -9.550781 6.300781 -9.269531 L 6.300781 -4.621094 C 6.300781 -4.171875 6.691406 -3.921875 7 -3.921875 L 14.253906 -3.921875 L 14.253906 -0.699219 L 2.4375 -0.699219 L 2.4375 -22.402344 Z M 15.652344 -23.101562 C 15.652344 -23.382812 15.375 -23.804688 14.953125 -23.804688 L 1.734375 -23.804688 C 1.429688 -23.804688 1.035156 -23.523438 1.035156 -23.101562 L 1.035156 0 C 1.035156 0.308594 1.289062 0.699219 1.734375 0.699219 L 14.953125 0.699219 C 15.234375 0.699219 15.652344 0.449219 15.652344 0 L 15.652344 -4.621094 C 15.652344 -4.902344 15.375 -5.320312 14.953125 -5.320312 L 7.699219 -5.320312 L 7.699219 -8.570312 L 14.617188 -8.570312 C 14.898438 -8.570312 15.316406 -8.820312 15.316406 -9.269531 L 15.316406 -13.890625 C 15.316406 -14.167969 15.039062 -14.589844 14.617188 -14.589844 L 7.699219 -14.589844 L 7.699219 -17.78125 L 14.953125 -17.78125 C 15.234375 -17.78125 15.652344 -18.035156 15.652344 -18.480469 Z M 15.652344 -23.101562 "/></g></g></g><g fill="#ffffff" fill-opacity="1"><g transform="translate(299.79563, 27.696759)"><g><path d="M 19.070312 -16.605469 L 19.460938 -16.523438 C 19.769531 -16.550781 20.023438 -16.773438 20.078125 -17.054688 L 21.199219 -22.234375 C 21.253906 -22.515625 21.144531 -22.796875 20.890625 -22.964844 C 20.777344 -23.074219 18.957031 -24.222656 13.863281 -24.222656 C 6.945312 -24.222656 0.644531 -18.566406 0.644531 -11.507812 C 0.644531 -4.453125 6.972656 1.121094 13.863281 1.121094 C 18.957031 1.121094 20.75 0 20.917969 -0.113281 C 21.113281 -0.253906 21.253906 -0.558594 21.199219 -0.839844 L 20.078125 -6.019531 C 19.882812 -6.917969 19.183594 -6.554688 19.070312 -6.496094 C 19.015625 -6.46875 17.136719 -5.460938 14.675781 -5.460938 C 9.773438 -5.460938 7.757812 -8.792969 7.757812 -11.566406 C 7.757812 -14.28125 9.773438 -17.640625 14.675781 -17.640625 C 17.109375 -17.640625 19.015625 -16.605469 19.070312 -16.605469 Z M 14.675781 -4.058594 C 16.492188 -4.058594 18.007812 -4.535156 18.902344 -4.871094 L 19.714844 -1.0625 C 18.957031 -0.785156 17.195312 -0.28125 13.863281 -0.28125 C 7.671875 -0.28125 2.042969 -5.320312 2.042969 -11.507812 C 2.042969 -17.699219 7.644531 -22.824219 13.863281 -22.824219 C 17.222656 -22.824219 18.988281 -22.289062 19.714844 -22.011719 L 18.902344 -18.203125 C 17.949219 -18.566406 16.492188 -19.042969 14.675781 -19.042969 C 8.960938 -19.042969 6.355469 -14.980469 6.355469 -11.566406 C 6.355469 -8.09375 8.960938 -4.058594 14.675781 -4.058594 Z M 14.675781 -4.058594 "/></g></g></g><g fill="#ffffff" fill-opacity="1"><g transform="translate(329.281522, 27.696759)"><g><path d="M 6.300781 -9.269531 L 6.300781 -0.699219 L 2.4375 -0.699219 L 2.4375 -22.402344 L 6.300781 -22.402344 L 6.300781 -13.890625 C 6.300781 -13.441406 6.691406 -13.191406 7 -13.191406 L 14.449219 -13.191406 C 14.871094 -13.191406 15.148438 -13.582031 15.148438 -13.890625 L 15.148438 -22.402344 L 19.015625 -22.402344 L 19.015625 -0.699219 L 15.148438 -0.699219 L 15.148438 -9.269531 C 15.148438 -9.6875 14.730469 -9.96875 14.449219 -9.96875 L 7 -9.96875 C 6.554688 -9.96875 6.300781 -9.550781 6.300781 -9.269531 Z M 7.699219 -8.570312 L 13.75 -8.570312 L 13.75 0 C 13.75 0.308594 14 0.699219 14.449219 0.699219 L 19.714844 0.699219 C 19.996094 0.699219 20.414062 0.449219 20.414062 0 L 20.414062 -23.101562 C 20.414062 -23.382812 20.132812 -23.804688 19.714844 -23.804688 L 14.449219 -23.804688 C 14.140625 -23.804688 13.75 -23.523438 13.75 -23.101562 L 13.75 -14.589844 L 7.699219 -14.589844 L 7.699219 -23.101562 C 7.699219 -23.382812 7.421875 -23.804688 7 -23.804688 L 1.734375 -23.804688 C 1.429688 -23.804688 1.035156 -23.523438 1.035156 -23.101562 L 1.035156 0 C 1.035156 0.308594 1.289062 0.699219 1.734375 0.699219 L 7 0.699219 C 7.28125 0.699219 7.699219 0.449219 7.699219 0 Z M 7.699219 -8.570312 "/></g></g></g></svg>