<svg xmlns="http://www.w3.org/2000/svg" xmlns:xlink="http://www.w3.org/1999/xlink" width="800" zoomAndPan="magnify" viewBox="0 0 600 30.000001" height="40" preserveAspectRatio="xMidYMid meet" version="1.0"><defs><g/></defs><g fill="#ffffff" fill-opacity="1"><g transform="translate(215.890358, 26.970953)"><g><path d="M 1.933594 -19.183594 L 1.933594 -22.402344 L 16.773438 -22.402344 L 16.773438 -19.183594 L 11.984375 -19.183594 C 11.539062 -19.183594 11.285156 -18.761719 11.285156 -18.480469 L 11.285156 -0.699219 L 7.421875 -0.699219 L 7.421875 -18.480469 C 7.421875 -18.902344 7 -19.183594 6.722656 -19.183594 Z M 0.53125 -18.480469 C 0.53125 -18.175781 0.785156 -17.78125 1.230469 -17.78125 L 6.019531 -17.78125 L 6.019531 0 C 6.019531 0.308594 6.273438 0.699219 6.722656 0.699219 L 11.984375 0.699219 C 12.265625 0.699219 12.6875 0.449219 12.6875 0 L 12.6875 -17.78125 L 17.472656 -17.78125 C 17.753906 -17.78125 18.175781 -18.035156 18.175781 -18.480469 L 18.175781 -23.101562 C 18.175781 -23.382812 17.894531 -23.804688 17.472656 -23.804688 L 1.230469 -23.804688 C 0.925781 -23.804688 0.53125 -23.523438 0.53125 -23.101562 Z M 0.53125 -18.480469 "/></g></g></g><g fill="#ffffff" fill-opacity="1"><g transform="translate(242.324565, 26.970953)"><g><path d="M 6.300781 -9.269531 L 6.300781 -0.699219 L 2.4375 -0.699219 L 2.4375 -22.402344 L 6.300781 -22.402344 L 6.300781 -13.890625 C 6.300781 -13.441406 6.691406 -13.191406 7 -13.191406 L 14.449219 -13.191406 C 14.871094 -13.191406 15.148438 -13.582031 15.148438 -13.890625 L 15.148438 -22.402344 L 19.015625 -22.402344 L 19.015625 -0.699219 L 15.148438 -0.699219 L 15.148438 -9.269531 C 15.148438 -9.6875 14.730469 -9.96875 14.449219 -9.96875 L 7 -9.96875 C 6.554688 -9.96875 6.300781 -9.550781 6.300781 -9.269531 Z M 7.699219 -8.570312 L 13.75 -8.570312 L 13.75 0 C 13.75 0.308594 14 0.699219 14.449219 0.699219 L 19.714844 0.699219 C 19.996094 0.699219 20.414062 0.449219 20.414062 0 L 20.414062 -23.101562 C 20.414062 -23.382812 20.132812 -23.804688 19.714844 -23.804688 L 14.449219 -23.804688 C 14.140625 -23.804688 13.75 -23.523438 13.75 -23.101562 L 13.75 -14.589844 L 7.699219 -14.589844 L 7.699219 -23.101562 C 7.699219 -23.382812 7.421875 -23.804688 7 -23.804688 L 1.734375 -23.804688 C 1.429688 -23.804688 1.035156 -23.523438 1.035156 -23.101562 L 1.035156 0 C 1.035156 0.308594 1.289062 0.699219 1.734375 0.699219 L 7 0.699219 C 7.28125 0.699219 7.699219 0.449219 7.699219 0 Z M 7.699219 -8.570312 "/></g></g></g><g fill="#ffffff" fill-opacity="1"><g transform="translate(271.502493, 26.970953)"><g><path d="M 14.253906 -22.402344 L 14.253906 -19.183594 L 7 -19.183594 C 6.554688 -19.183594 6.300781 -18.761719 6.300781 -18.480469 L 6.300781 -13.890625 C 6.300781 -13.441406 6.691406 -13.191406 7 -13.191406 L 13.917969 -13.191406 L 13.917969 -9.96875 L 7 -9.96875 C 6.554688 -9.96875 6.300781 -9.550781 6.300781 -9.269531 L 6.300781 -4.621094 C 6.300781 -4.171875 6.691406 -3.921875 7 -3.921875 L 14.253906 -3.921875 L 14.253906 -0.699219 L 2.4375 -0.699219 L 2.4375 -22.402344 Z M 15.652344 -23.101562 C 15.652344 -23.382812 15.375 -23.804688 14.953125 -23.804688 L 1.734375 -23.804688 C 1.429688 -23.804688 1.035156 -23.523438 1.035156 -23.101562 L 1.035156 0 C 1.035156 0.308594 1.289062 0.699219 1.734375 0.699219 L 14.953125 0.699219 C 15.234375 0.699219 15.652344 0.449219 15.652344 0 L 15.652344 -4.621094 C 15.652344 -4.902344 15.375 -5.320312 14.953125 -5.320312 L 7.699219 -5.320312 L 7.699219 -8.570312 L 14.617188 -8.570312 C 14.898438 -8.570312 15.316406 -8.820312 15.316406 -9.269531 L 15.316406 -13.890625 C 15.316406 -14.167969 15.039062 -14.589844 14.617188 -14.589844 L 7.699219 -14.589844 L 7.699219 -17.78125 L 14.953125 -17.78125 C 15.234375 -17.78125 15.652344 -18.035156 15.652344 -18.480469 Z M 15.652344 -23.101562 "/></g></g></g><g fill="#ffffff" fill-opacity="1"><g transform="translate(295.668941, 26.970953)"><g/></g></g><g fill="#ffffff" fill-opacity="1"><g transform="translate(307.404669, 26.970953)"><g><path d="M 14.253906 -22.402344 L 14.253906 -19.183594 L 7 -19.183594 C 6.554688 -19.183594 6.300781 -18.761719 6.300781 -18.480469 L 6.300781 -13.890625 C 6.300781 -13.441406 6.691406 -13.191406 7 -13.191406 L 13.917969 -13.191406 L 13.917969 -9.96875 L 7 -9.96875 C 6.554688 -9.96875 6.300781 -9.550781 6.300781 -9.269531 L 6.300781 -4.621094 C 6.300781 -4.171875 6.691406 -3.921875 7 -3.921875 L 14.253906 -3.921875 L 14.253906 -0.699219 L 2.4375 -0.699219 L 2.4375 -22.402344 Z M 15.652344 -23.101562 C 15.652344 -23.382812 15.375 -23.804688 14.953125 -23.804688 L 1.734375 -23.804688 C 1.429688 -23.804688 1.035156 -23.523438 1.035156 -23.101562 L 1.035156 0 C 1.035156 0.308594 1.289062 0.699219 1.734375 0.699219 L 14.953125 0.699219 C 15.234375 0.699219 15.652344 0.449219 15.652344 0 L 15.652344 -4.621094 C 15.652344 -4.902344 15.375 -5.320312 14.953125 -5.320312 L 7.699219 -5.320312 L 7.699219 -8.570312 L 14.617188 -8.570312 C 14.898438 -8.570312 15.316406 -8.820312 15.316406 -9.269531 L 15.316406 -13.890625 C 15.316406 -14.167969 15.039062 -14.589844 14.617188 -14.589844 L 7.699219 -14.589844 L 7.699219 -17.78125 L 14.953125 -17.78125 C 15.234375 -17.78125 15.652344 -18.035156 15.652344 -18.480469 Z M 15.652344 -23.101562 "/></g></g></g><g fill="#ffffff" fill-opacity="1"><g transform="translate(331.571118, 26.970953)"><g><path d="M 6.300781 -14.335938 L 6.300781 -0.699219 L 2.4375 -0.699219 L 2.4375 -22.402344 L 6.609375 -22.402344 L 15.570312 -8.375 C 15.710938 -8.175781 15.933594 -8.066406 16.1875 -8.066406 L 16.242188 -8.066406 C 16.664062 -8.066406 16.941406 -8.457031 16.941406 -8.765625 L 16.941406 -22.402344 L 20.808594 -22.402344 L 20.808594 -0.699219 L 16.605469 -0.699219 L 7.644531 -14.703125 C 7.503906 -14.898438 7.28125 -15.039062 7.058594 -15.039062 L 7 -15.039062 C 6.554688 -15.039062 6.300781 -14.617188 6.300781 -14.335938 Z M 7.699219 -12.011719 L 15.625 0.390625 C 15.765625 0.589844 15.988281 0.699219 16.242188 0.699219 L 21.507812 0.699219 C 21.785156 0.699219 22.207031 0.449219 22.207031 0 L 22.207031 -23.101562 C 22.207031 -23.382812 21.925781 -23.804688 21.507812 -23.804688 L 16.242188 -23.804688 C 15.933594 -23.804688 15.542969 -23.523438 15.542969 -23.101562 L 15.542969 -11.0625 L 7.589844 -23.46875 C 7.449219 -23.664062 7.226562 -23.804688 7 -23.804688 L 1.734375 -23.804688 C 1.429688 -23.804688 1.035156 -23.523438 1.035156 -23.101562 L 1.035156 0 C 1.035156 0.308594 1.289062 0.699219 1.734375 0.699219 L 7 0.699219 C 7.28125 0.699219 7.699219 0.449219 7.699219 0 Z M 7.699219 -12.011719 "/></g></g></g><g fill="#ffffff" fill-opacity="1"><g transform="translate(362.540861, 26.970953)"><g><path d="M 2.4375 -22.402344 L 8.429688 -22.402344 C 14.394531 -22.402344 19.378906 -17.867188 19.378906 -11.566406 C 19.378906 -5.207031 14.421875 -0.699219 8.429688 -0.699219 L 2.4375 -0.699219 Z M 1.734375 -23.804688 C 1.429688 -23.804688 1.035156 -23.523438 1.035156 -23.101562 L 1.035156 0 C 1.035156 0.308594 1.289062 0.699219 1.734375 0.699219 L 8.429688 0.699219 C 15.121094 0.699219 20.777344 -4.398438 20.777344 -11.566406 C 20.777344 -18.679688 15.09375 -23.804688 8.429688 -23.804688 Z M 7 -4.003906 L 7.8125 -4.003906 C 12.097656 -4.003906 15.039062 -7.308594 15.09375 -11.507812 C 15.09375 -15.738281 12.125 -19.097656 7.8125 -19.097656 L 7 -19.097656 C 6.554688 -19.097656 6.300781 -18.679688 6.300781 -18.398438 L 6.300781 -4.703125 C 6.300781 -4.257812 6.691406 -4.003906 7 -4.003906 Z M 7.699219 -5.40625 L 7.699219 -17.699219 L 7.8125 -17.699219 C 11.3125 -17.699219 13.695312 -15.039062 13.695312 -11.539062 C 13.664062 -8.007812 11.285156 -5.40625 7.8125 -5.40625 Z M 7.699219 -5.40625 "/></g></g></g></svg>