<svg xmlns="http://www.w3.org/2000/svg" xmlns:xlink="http://www.w3.org/1999/xlink" width="243" zoomAndPan="magnify" viewBox="0 0 182.25 165.000002" height="220" preserveAspectRatio="xMidYMid meet" version="1.0"><defs><clipPath id="2d4c373e66"><path d="M 0.175781 35 L 42 35 L 42 59 L 0.175781 59 Z M 0.175781 35 " clip-rule="nonzero"/></clipPath><clipPath id="e68292c2f5"><path d="M 41 0.640625 L 94 0.640625 L 94 30 L 41 30 Z M 41 0.640625 " clip-rule="nonzero"/></clipPath><clipPath id="f2cd2d5968"><path d="M 128.292969 88 L 181.195312 88 L 181.195312 117.574219 L 128.292969 117.574219 Z M 128.292969 88 " clip-rule="nonzero"/></clipPath><clipPath id="7951c4695f"><path d="M 29.160156 134.625 L 70.601562 134.625 L 70.601562 163.898438 L 29.160156 163.898438 Z M 29.160156 134.625 " clip-rule="nonzero"/></clipPath><clipPath id="2cd17ab7db"><path d="M 41 158 L 53 158 L 53 163.898438 L 41 163.898438 Z M 41 158 " clip-rule="nonzero"/></clipPath><clipPath id="24ca565798"><path d="M 58.414062 99.707031 L 105.539062 99.707031 L 105.539062 163.898438 L 58.414062 163.898438 Z M 58.414062 99.707031 " clip-rule="nonzero"/></clipPath></defs><g clip-path="url(#2d4c373e66)"><path fill="#63c442" d="M 0.320312 58.957031 L 0.3125 53.121094 L 6.15625 53.117188 L 6.148438 47.292969 L 17.824219 47.289062 L 17.824219 41.464844 L 23.65625 41.460938 L 23.652344 35.628906 L 41.160156 35.621094 L 41.164062 41.464844 L 35.328125 41.46875 L 35.332031 53.121094 L 17.824219 53.125 L 17.832031 58.957031 L 0.320312 58.957031 " fill-opacity="1" fill-rule="nonzero"/><path fill="#63c442" d="M 17.824219 53.121094 L 17.824219 58.953125 L 0.320312 58.953125 L 0.320312 53.121094 L 6.15625 53.121094 L 6.15625 47.292969 L 17.824219 47.292969 L 17.824219 41.464844 L 23.65625 41.464844 L 23.65625 35.628906 L 41.160156 35.628906 L 41.160156 41.464844 L 35.328125 41.464844 L 35.328125 53.121094 L 17.824219 53.121094 " fill-opacity="1" fill-rule="nonzero"/></g><path fill="#63c442" d="M 99.503906 123.089844 L 99.503906 117.257812 L 111.171875 117.257812 L 111.171875 111.425781 L 117.011719 111.425781 L 117.011719 117.257812 L 122.847656 117.257812 L 122.847656 123.089844 L 99.503906 123.089844 " fill-opacity="1" fill-rule="nonzero"/><path fill="#63c442" d="M 117.011719 117.257812 L 122.847656 117.257812 L 122.847656 123.089844 L 99.503906 123.089844 L 99.503906 117.257812 L 111.171875 117.257812 L 111.171875 111.425781 L 117.011719 111.425781 L 117.011719 117.257812 " fill-opacity="1" fill-rule="nonzero"/><path fill="#63c442" d="M 23.65625 105.605469 L 23.652344 99.765625 L 29.488281 99.765625 L 29.484375 93.933594 L 35.328125 93.933594 L 35.324219 88.109375 L 52.828125 88.105469 L 52.832031 93.933594 L 46.996094 93.941406 L 47 99.765625 L 35.328125 99.773438 L 35.332031 105.605469 L 23.65625 105.605469 " fill-opacity="1" fill-rule="nonzero"/><path fill="#63c442" d="M 52.828125 88.109375 L 52.828125 93.933594 L 46.996094 93.933594 L 46.996094 99.765625 L 35.328125 99.765625 L 35.328125 105.601562 L 23.65625 105.601562 L 23.65625 99.765625 L 29.488281 99.765625 L 29.488281 93.933594 L 35.328125 93.933594 L 35.328125 88.109375 L 52.828125 88.109375 " fill-opacity="1" fill-rule="nonzero"/><g clip-path="url(#e68292c2f5)"><path fill="#63c442" d="M 41.160156 29.804688 L 41.15625 18.136719 L 46.996094 18.132812 L 46.992188 12.308594 L 52.828125 12.304688 L 52.824219 6.476562 L 64.5 6.472656 L 64.496094 0.644531 L 93.675781 0.640625 L 93.679688 6.476562 L 87.835938 6.480469 L 87.839844 12.308594 L 82.003906 12.3125 L 82.007812 18.136719 L 52.828125 18.140625 L 52.832031 23.964844 L 46.996094 23.96875 L 47 29.804688 L 41.160156 29.804688 " fill-opacity="1" fill-rule="nonzero"/><path fill="#63c442" d="M 87.835938 12.308594 L 82.003906 12.308594 L 82.003906 18.136719 L 52.828125 18.136719 L 52.828125 23.964844 L 46.996094 23.964844 L 46.996094 29.800781 L 41.160156 29.800781 L 41.160156 18.136719 L 46.996094 18.136719 L 46.996094 12.308594 L 52.828125 12.308594 L 52.828125 6.476562 L 64.5 6.476562 L 64.5 0.644531 L 93.675781 0.644531 L 93.675781 6.476562 L 87.835938 6.476562 L 87.835938 12.308594 " fill-opacity="1" fill-rule="nonzero"/></g><path fill="#63c442" d="M 87.835938 70.621094 L 87.832031 64.78125 L 99.503906 64.78125 L 99.503906 58.953125 L 105.335938 58.949219 L 105.332031 53.121094 L 117.011719 53.117188 L 117.003906 47.292969 L 134.507812 47.289062 L 134.511719 64.78125 L 117.011719 64.789062 L 117.011719 70.621094 L 87.835938 70.621094 " fill-opacity="1" fill-rule="nonzero"/><path fill="#63c442" d="M 87.835938 70.617188 L 87.835938 64.78125 L 99.503906 64.78125 L 99.503906 58.953125 L 105.335938 58.953125 L 105.335938 53.121094 L 117.011719 53.121094 L 117.011719 47.292969 L 134.507812 47.292969 L 134.507812 64.78125 L 117.011719 64.78125 L 117.011719 70.617188 L 87.835938 70.617188 " fill-opacity="1" fill-rule="nonzero"/><path fill="#63c442" d="M 117.011719 99.773438 L 117.003906 93.933594 L 122.847656 93.933594 L 122.839844 88.109375 L 134.507812 88.105469 L 134.503906 82.273438 L 146.179688 82.265625 L 146.175781 76.441406 L 157.851562 76.441406 L 157.855469 82.273438 L 152.019531 82.273438 L 152.023438 88.109375 L 140.347656 88.113281 L 140.351562 93.933594 L 128.675781 93.941406 L 128.679688 99.773438 L 117.011719 99.773438 " fill-opacity="1" fill-rule="nonzero"/><path fill="#63c442" d="M 157.851562 76.441406 L 157.851562 82.273438 L 152.019531 82.273438 L 152.019531 88.109375 L 140.347656 88.109375 L 140.347656 93.933594 L 128.675781 93.933594 L 128.675781 99.765625 L 117.011719 99.765625 L 117.011719 93.933594 L 122.847656 93.933594 L 122.847656 88.109375 L 134.507812 88.109375 L 134.507812 82.273438 L 146.179688 82.273438 L 146.179688 76.441406 L 157.851562 76.441406 " fill-opacity="1" fill-rule="nonzero"/><path fill="#398b40" d="M 17.824219 111.433594 L 17.824219 105.601562 L 11.984375 105.605469 L 11.980469 99.765625 L 17.824219 99.765625 L 17.824219 93.933594 L 29.488281 93.933594 L 29.492188 99.765625 L 23.65625 99.773438 L 23.660156 105.601562 L 35.328125 105.597656 L 35.324219 99.765625 L 46.996094 99.765625 L 46.992188 93.933594 L 64.5 93.933594 L 64.503906 99.765625 L 52.828125 99.773438 L 52.832031 105.601562 L 46.996094 105.605469 L 47 111.433594 L 17.824219 111.433594 " fill-opacity="1" fill-rule="nonzero"/><path fill="#398b40" d="M 64.5 93.933594 L 64.5 99.765625 L 52.828125 99.765625 L 52.828125 105.601562 L 46.996094 105.601562 L 46.996094 111.425781 L 17.824219 111.425781 L 17.824219 105.601562 L 11.984375 105.601562 L 11.984375 99.765625 L 17.824219 99.765625 L 17.824219 93.933594 L 29.488281 93.933594 L 29.488281 99.765625 L 23.65625 99.765625 L 23.65625 105.601562 L 35.328125 105.601562 L 35.328125 99.765625 L 46.996094 99.765625 L 46.996094 93.933594 L 64.5 93.933594 " fill-opacity="1" fill-rule="nonzero"/><path fill="#398b40" d="M 6.15625 64.789062 L 6.148438 58.953125 L 17.824219 58.949219 L 17.824219 53.121094 L 35.328125 53.117188 L 35.324219 41.464844 L 41.160156 41.460938 L 41.15625 35.628906 L 46.996094 35.621094 L 47 41.464844 L 58.664062 41.460938 L 58.667969 47.292969 L 70.332031 47.289062 L 70.328125 41.464844 L 64.5 41.46875 L 64.496094 35.628906 L 52.828125 35.632812 L 52.824219 29.800781 L 46.996094 29.804688 L 46.992188 23.964844 L 52.828125 23.957031 L 52.824219 18.136719 L 82.003906 18.132812 L 82 12.308594 L 111.171875 12.304688 L 111.179688 18.136719 L 117.011719 18.132812 L 117.011719 23.964844 L 122.847656 23.957031 L 122.847656 29.800781 L 117.011719 29.804688 L 117.011719 35.628906 L 99.503906 35.632812 L 99.511719 41.464844 L 93.675781 41.46875 L 93.679688 47.292969 L 76.164062 47.296875 L 76.167969 53.121094 L 64.5 53.125 L 64.503906 58.953125 L 35.328125 58.957031 L 35.332031 64.789062 L 6.15625 64.789062 " fill-opacity="1" fill-rule="nonzero"/><path fill="#398b40" d="M 76.164062 53.121094 L 64.5 53.121094 L 64.5 58.953125 L 35.328125 58.953125 L 35.328125 64.78125 L 6.15625 64.78125 L 6.15625 58.953125 L 17.824219 58.953125 L 17.824219 53.121094 L 35.328125 53.121094 L 35.328125 41.464844 L 41.160156 41.464844 L 41.160156 35.628906 L 46.996094 35.628906 L 46.996094 41.464844 L 58.664062 41.464844 L 58.664062 47.292969 L 70.332031 47.292969 L 70.332031 41.464844 L 64.5 41.464844 L 64.5 35.628906 L 52.828125 35.628906 L 52.828125 29.800781 L 46.996094 29.800781 L 46.996094 23.964844 L 52.828125 23.964844 L 52.828125 18.136719 L 82.003906 18.136719 L 82.003906 12.308594 L 111.171875 12.308594 L 111.171875 18.136719 L 117.011719 18.136719 L 117.011719 23.964844 L 122.847656 23.964844 L 122.847656 29.800781 L 117.011719 29.800781 L 117.011719 35.628906 L 99.503906 35.628906 L 99.503906 41.464844 L 93.675781 41.464844 L 93.675781 47.292969 L 76.164062 47.292969 L 76.164062 53.121094 " fill-opacity="1" fill-rule="nonzero"/><path fill="#398b40" d="M 76.164062 128.921875 L 76.160156 123.089844 L 82.003906 123.082031 L 82 117.257812 L 99.503906 117.257812 L 99.511719 123.089844 L 93.675781 123.089844 L 93.679688 128.921875 L 76.164062 128.921875 " fill-opacity="1" fill-rule="nonzero"/><path fill="#398b40" d="M 99.503906 117.257812 L 99.503906 123.089844 L 93.675781 123.089844 L 93.675781 128.917969 L 76.164062 128.917969 L 76.164062 123.089844 L 82.003906 123.089844 L 82.003906 117.257812 L 99.503906 117.257812 " fill-opacity="1" fill-rule="nonzero"/><path fill="#398b40" d="M 134.507812 64.789062 L 134.503906 53.121094 L 140.347656 53.117188 L 140.351562 64.789062 L 134.507812 64.789062 " fill-opacity="1" fill-rule="nonzero"/><path fill="#398b40" d="M 140.347656 64.78125 L 134.507812 64.78125 L 134.507812 53.121094 L 140.347656 53.121094 L 140.347656 64.78125 " fill-opacity="1" fill-rule="nonzero"/><path fill="#398b40" d="M 105.335938 128.921875 L 105.332031 123.089844 L 122.847656 123.082031 L 122.839844 117.257812 L 117.011719 117.265625 L 117.003906 105.601562 L 128.675781 105.597656 L 128.679688 111.425781 L 134.507812 111.425781 L 134.511719 123.089844 L 146.179688 123.082031 L 146.183594 128.921875 L 105.335938 128.921875 " fill-opacity="1" fill-rule="nonzero"/><path fill="#398b40" d="M 128.675781 105.601562 L 128.675781 111.425781 L 134.507812 111.425781 L 134.507812 123.089844 L 146.179688 123.089844 L 146.179688 128.917969 L 105.335938 128.917969 L 105.335938 123.089844 L 122.847656 123.089844 L 122.847656 117.257812 L 117.011719 117.257812 L 117.011719 105.601562 L 128.675781 105.601562 " fill-opacity="1" fill-rule="nonzero"/><path fill="#398b40" d="M 87.835938 76.449219 L 87.832031 70.617188 L 117.011719 70.613281 L 117.003906 64.78125 L 134.507812 64.78125 L 134.511719 70.617188 L 122.847656 70.621094 L 122.847656 76.449219 L 87.835938 76.449219 " fill-opacity="1" fill-rule="nonzero"/><path fill="#398b40" d="M 134.507812 64.78125 L 134.507812 70.617188 L 122.847656 70.617188 L 122.847656 76.441406 L 87.835938 76.441406 L 87.835938 70.617188 L 117.011719 70.617188 L 117.011719 64.78125 L 134.507812 64.78125 " fill-opacity="1" fill-rule="nonzero"/><path fill="#398b40" d="M 99.503906 117.265625 L 99.503906 111.425781 L 111.171875 111.425781 L 111.179688 117.265625 L 99.503906 117.265625 " fill-opacity="1" fill-rule="nonzero"/><path fill="#398b40" d="M 99.503906 117.257812 L 99.503906 111.425781 L 111.171875 111.425781 L 111.171875 117.257812 L 99.503906 117.257812 " fill-opacity="1" fill-rule="nonzero"/><path fill="#398b40" d="M 146.179688 111.433594 L 146.175781 105.601562 L 128.675781 105.605469 L 128.671875 93.933594 L 140.347656 93.933594 L 140.34375 88.109375 L 152.019531 88.105469 L 152.015625 82.273438 L 163.683594 82.265625 L 163.6875 99.765625 L 169.519531 99.765625 L 169.523438 105.601562 L 157.851562 105.605469 L 157.855469 111.433594 L 146.179688 111.433594 " fill-opacity="1" fill-rule="nonzero"/><path fill="#398b40" d="M 169.519531 99.765625 L 169.519531 105.601562 L 157.851562 105.601562 L 157.851562 111.425781 L 146.179688 111.425781 L 146.179688 105.601562 L 128.675781 105.601562 L 128.675781 93.933594 L 140.347656 93.933594 L 140.347656 88.109375 L 152.019531 88.109375 L 152.019531 82.273438 L 163.683594 82.273438 L 163.683594 99.765625 L 169.519531 99.765625 " fill-opacity="1" fill-rule="nonzero"/><path fill="#1f373a" d="M 99.503906 111.433594 L 99.503906 105.601562 L 117.011719 105.597656 L 117.011719 111.433594 L 99.503906 111.433594 " fill-opacity="1" fill-rule="nonzero"/><path fill="#1f373a" d="M 99.503906 111.425781 L 99.503906 105.601562 L 117.011719 105.601562 L 117.011719 111.425781 L 99.503906 111.425781 " fill-opacity="1" fill-rule="nonzero"/><path fill="#1f373a" d="M 93.675781 134.757812 L 93.671875 123.089844 L 105.335938 123.082031 L 105.34375 128.917969 L 128.675781 128.917969 L 128.679688 134.757812 L 93.675781 134.757812 " fill-opacity="1" fill-rule="nonzero"/><path fill="#1f373a" d="M 128.675781 128.917969 L 128.675781 134.75 L 93.675781 134.75 L 93.675781 123.089844 L 105.335938 123.089844 L 105.335938 128.917969 L 128.675781 128.917969 " fill-opacity="1" fill-rule="nonzero"/><path fill="#1f373a" d="M 122.847656 105.605469 L 122.839844 99.765625 L 128.675781 99.765625 L 128.679688 105.605469 L 122.847656 105.605469 " fill-opacity="1" fill-rule="nonzero"/><path fill="#1f373a" d="M 128.675781 99.765625 L 128.675781 105.601562 L 122.847656 105.601562 L 122.847656 99.765625 L 128.675781 99.765625 " fill-opacity="1" fill-rule="nonzero"/><path fill="#1f373a" d="M 105.335938 82.273438 L 105.332031 76.441406 L 122.847656 76.441406 L 122.839844 70.617188 L 134.507812 70.613281 L 134.503906 64.78125 L 140.347656 64.78125 L 140.34375 58.953125 L 146.179688 58.949219 L 146.183594 70.617188 L 140.347656 70.621094 L 140.351562 76.441406 L 128.675781 76.449219 L 128.679688 82.273438 L 105.335938 82.273438 " fill-opacity="1" fill-rule="nonzero"/><path fill="#1f373a" d="M 134.507812 70.617188 L 134.507812 64.78125 L 140.347656 64.78125 L 140.347656 58.953125 L 146.179688 58.953125 L 146.179688 70.617188 L 140.347656 70.617188 L 140.347656 76.441406 L 128.675781 76.441406 L 128.675781 82.273438 L 105.335938 82.273438 L 105.335938 76.441406 L 122.847656 76.441406 L 122.847656 70.617188 L 134.507812 70.617188 " fill-opacity="1" fill-rule="nonzero"/><g clip-path="url(#f2cd2d5968)"><path fill="#1f373a" d="M 140.347656 117.265625 L 140.34375 111.425781 L 128.675781 111.433594 L 128.671875 105.601562 L 146.179688 105.597656 L 146.183594 111.425781 L 157.851562 111.425781 L 157.847656 105.601562 L 169.519531 105.597656 L 169.515625 99.765625 L 163.683594 99.773438 L 163.679688 88.109375 L 169.519531 88.105469 L 169.523438 93.933594 L 175.355469 93.933594 L 175.359375 99.765625 L 181.191406 99.765625 L 181.195312 105.601562 L 175.355469 105.605469 L 175.359375 111.425781 L 163.683594 111.433594 L 163.6875 117.265625 L 140.347656 117.265625 " fill-opacity="1" fill-rule="nonzero"/><path fill="#1f373a" d="M 181.191406 99.765625 L 181.191406 105.601562 L 175.355469 105.601562 L 175.355469 111.425781 L 163.683594 111.425781 L 163.683594 117.257812 L 140.347656 117.257812 L 140.347656 111.425781 L 128.675781 111.425781 L 128.675781 105.601562 L 146.179688 105.601562 L 146.179688 111.425781 L 157.851562 111.425781 L 157.851562 105.601562 L 169.519531 105.601562 L 169.519531 99.765625 L 163.683594 99.765625 L 163.683594 88.109375 L 169.519531 88.109375 L 169.519531 93.933594 L 175.355469 93.933594 L 175.355469 99.765625 L 181.191406 99.765625 " fill-opacity="1" fill-rule="nonzero"/></g><path fill="#1f373a" d="M 58.664062 47.296875 L 58.660156 41.464844 L 46.996094 41.46875 L 46.992188 35.628906 L 41.160156 35.632812 L 41.15625 29.800781 L 52.828125 29.796875 L 52.832031 35.628906 L 64.5 35.621094 L 64.503906 41.464844 L 70.332031 41.460938 L 70.335938 47.296875 L 58.664062 47.296875 " fill-opacity="1" fill-rule="nonzero"/><path fill="#1f373a" d="M 46.996094 35.628906 L 41.160156 35.628906 L 41.160156 29.800781 L 52.828125 29.800781 L 52.828125 35.628906 L 64.5 35.628906 L 64.5 41.464844 L 70.332031 41.464844 L 70.332031 47.292969 L 58.664062 47.292969 L 58.664062 41.464844 L 46.996094 41.464844 L 46.996094 35.628906 " fill-opacity="1" fill-rule="nonzero"/><path fill="#1f373a" d="M 29.488281 76.449219 L 29.484375 70.617188 L 23.65625 70.621094 L 23.652344 64.78125 L 35.328125 64.78125 L 35.324219 58.953125 L 64.5 58.949219 L 64.496094 53.121094 L 76.164062 53.117188 L 76.160156 47.292969 L 93.675781 47.289062 L 93.671875 41.464844 L 99.503906 41.460938 L 99.503906 35.628906 L 117.011719 35.621094 L 117.003906 29.800781 L 128.675781 29.796875 L 128.679688 35.628906 L 122.847656 35.632812 L 122.847656 41.464844 L 105.335938 41.46875 L 105.34375 47.292969 L 99.503906 47.296875 L 99.511719 53.121094 L 82.003906 53.125 L 82.007812 58.953125 L 70.332031 58.957031 L 70.335938 64.78125 L 46.996094 64.789062 L 47 70.617188 L 41.160156 70.621094 L 41.164062 76.449219 L 29.488281 76.449219 " fill-opacity="1" fill-rule="nonzero"/><path fill="#1f373a" d="M 82.003906 53.121094 L 82.003906 58.953125 L 70.332031 58.953125 L 70.332031 64.78125 L 46.996094 64.78125 L 46.996094 70.617188 L 41.160156 70.617188 L 41.160156 76.441406 L 29.488281 76.441406 L 29.488281 70.617188 L 23.65625 70.617188 L 23.65625 64.78125 L 35.328125 64.78125 L 35.328125 58.953125 L 64.5 58.953125 L 64.5 53.121094 L 76.164062 53.121094 L 76.164062 47.292969 L 93.675781 47.292969 L 93.675781 41.464844 L 99.503906 41.464844 L 99.503906 35.628906 L 117.011719 35.628906 L 117.011719 29.800781 L 128.675781 29.800781 L 128.675781 35.628906 L 122.847656 35.628906 L 122.847656 41.464844 L 105.335938 41.464844 L 105.335938 47.292969 L 99.503906 47.292969 L 99.503906 53.121094 L 82.003906 53.121094 " fill-opacity="1" fill-rule="nonzero"/><path fill="#1f373a" d="M 52.828125 93.941406 L 52.824219 88.109375 L 58.664062 88.105469 L 58.667969 93.941406 L 52.828125 93.941406 " fill-opacity="1" fill-rule="nonzero"/><path fill="#1f373a" d="M 58.664062 93.933594 L 52.828125 93.933594 L 52.828125 88.109375 L 58.664062 88.109375 L 58.664062 93.933594 " fill-opacity="1" fill-rule="nonzero"/><path fill="#1f373a" d="M 29.488281 117.265625 L 29.484375 111.425781 L 46.996094 111.425781 L 46.992188 105.601562 L 52.828125 105.597656 L 52.824219 99.765625 L 70.332031 99.765625 L 70.335938 105.601562 L 58.664062 105.605469 L 58.667969 111.425781 L 52.828125 111.433594 L 52.832031 117.265625 L 29.488281 117.265625 " fill-opacity="1" fill-rule="nonzero"/><path fill="#1f373a" d="M 70.332031 99.765625 L 70.332031 105.601562 L 58.664062 105.601562 L 58.664062 111.425781 L 52.828125 111.425781 L 52.828125 117.257812 L 29.488281 117.257812 L 29.488281 111.425781 L 46.996094 111.425781 L 46.996094 105.601562 L 52.828125 105.601562 L 52.828125 99.765625 L 70.332031 99.765625 " fill-opacity="1" fill-rule="nonzero"/><path fill="#1f373a" d="M 87.835938 117.265625 L 87.832031 111.425781 L 99.503906 111.425781 L 99.511719 117.265625 L 87.835938 117.265625 " fill-opacity="1" fill-rule="nonzero"/><path fill="#1f373a" d="M 87.835938 117.257812 L 87.835938 111.425781 L 99.503906 111.425781 L 99.503906 117.257812 L 87.835938 117.257812 " fill-opacity="1" fill-rule="nonzero"/><path fill="#5c4f2f" d="M 70.332031 99.773438 L 70.328125 93.933594 L 76.164062 93.933594 L 76.167969 99.773438 L 70.332031 99.773438 " fill-opacity="1" fill-rule="nonzero"/><path fill="#5c4f2f" d="M 76.164062 93.933594 L 76.164062 99.765625 L 70.332031 99.765625 L 70.332031 93.933594 L 76.164062 93.933594 " fill-opacity="1" fill-rule="nonzero"/><path fill="#5c4f2f" d="M 35.328125 88.113281 L 35.324219 82.273438 L 41.160156 82.265625 L 41.164062 88.113281 L 35.328125 88.113281 " fill-opacity="1" fill-rule="nonzero"/><path fill="#5c4f2f" d="M 41.160156 88.109375 L 35.328125 88.109375 L 35.328125 82.273438 L 41.160156 82.273438 L 41.160156 88.109375 " fill-opacity="1" fill-rule="nonzero"/><path fill="#5c4f2f" d="M 41.160156 82.273438 L 41.15625 76.441406 L 46.996094 76.441406 L 47 82.273438 L 41.160156 82.273438 " fill-opacity="1" fill-rule="nonzero"/><path fill="#5c4f2f" d="M 46.996094 82.273438 L 41.160156 82.273438 L 41.160156 76.441406 L 46.996094 76.441406 L 46.996094 82.273438 " fill-opacity="1" fill-rule="nonzero"/><path fill="#5c4f2f" d="M 29.488281 93.941406 L 29.484375 88.109375 L 35.328125 88.105469 L 35.332031 93.941406 L 29.488281 93.941406 " fill-opacity="1" fill-rule="nonzero"/><path fill="#5c4f2f" d="M 35.328125 93.933594 L 29.488281 93.933594 L 29.488281 88.109375 L 35.328125 88.109375 L 35.328125 93.933594 " fill-opacity="1" fill-rule="nonzero"/><path fill="#5c4f2f" d="M 46.996094 70.621094 L 46.992188 64.78125 L 52.828125 64.78125 L 52.832031 70.621094 L 46.996094 70.621094 " fill-opacity="1" fill-rule="nonzero"/><path fill="#5c4f2f" d="M 52.828125 70.617188 L 46.996094 70.617188 L 46.996094 64.78125 L 52.828125 64.78125 L 52.828125 70.617188 " fill-opacity="1" fill-rule="nonzero"/><g clip-path="url(#7951c4695f)"><path fill="#5c4f2f" d="M 52.828125 163.910156 L 52.824219 158.074219 L 41.160156 158.074219 L 41.164062 163.910156 L 29.488281 163.910156 L 29.484375 158.074219 L 35.328125 158.066406 L 35.324219 146.417969 L 41.160156 146.410156 L 41.15625 140.582031 L 52.828125 140.574219 L 52.824219 134.75 L 64.5 134.75 L 64.503906 140.582031 L 70.332031 140.574219 L 70.335938 146.417969 L 64.5 146.417969 L 64.503906 163.910156 L 52.828125 163.910156 " fill-opacity="1" fill-rule="nonzero"/><path fill="#5c4f2f" d="M 64.5 140.582031 L 70.332031 140.582031 L 70.332031 146.417969 L 64.5 146.417969 L 64.5 163.910156 L 52.828125 163.910156 L 52.828125 158.074219 L 41.160156 158.074219 L 41.160156 163.910156 L 29.488281 163.910156 L 29.488281 158.074219 L 35.328125 158.074219 L 35.328125 146.417969 L 41.160156 146.417969 L 41.160156 140.582031 L 52.828125 140.582031 L 52.828125 134.75 L 64.5 134.75 L 64.5 140.582031 " fill-opacity="1" fill-rule="nonzero"/></g><path fill="#5c4f2f" d="M 76.164062 117.265625 L 76.160156 111.425781 L 70.332031 111.433594 L 70.328125 105.601562 L 76.164062 105.597656 L 76.160156 99.765625 L 82.003906 99.765625 L 82.007812 105.601562 L 87.835938 105.597656 L 87.839844 111.425781 L 82.003906 111.433594 L 82.007812 117.265625 L 76.164062 117.265625 " fill-opacity="1" fill-rule="nonzero"/><path fill="#5c4f2f" d="M 87.835938 105.601562 L 87.835938 111.425781 L 82.003906 111.425781 L 82.003906 117.257812 L 76.164062 117.257812 L 76.164062 111.425781 L 70.332031 111.425781 L 70.332031 105.601562 L 76.164062 105.601562 L 76.164062 99.765625 L 82.003906 99.765625 L 82.003906 105.601562 L 87.835938 105.601562 " fill-opacity="1" fill-rule="nonzero"/><path fill="#3a301e" d="M 64.5 99.773438 L 64.496094 93.933594 L 70.332031 93.933594 L 70.335938 99.773438 L 64.5 99.773438 " fill-opacity="1" fill-rule="nonzero"/><path fill="#3a301e" d="M 70.332031 93.933594 L 70.332031 99.765625 L 64.5 99.765625 L 64.5 93.933594 L 70.332031 93.933594 " fill-opacity="1" fill-rule="nonzero"/><path fill="#3a301e" d="M 52.828125 152.25 L 52.824219 146.417969 L 58.664062 146.410156 L 58.667969 152.25 L 52.828125 152.25 " fill-opacity="1" fill-rule="nonzero"/><path fill="#3a301e" d="M 52.828125 146.417969 L 58.664062 146.417969 L 58.664062 152.242188 L 52.828125 152.242188 L 52.828125 146.417969 " fill-opacity="1" fill-rule="nonzero"/><path fill="#3a301e" d="M 41.160156 88.113281 L 41.15625 82.273438 L 46.996094 82.265625 L 46.992188 70.617188 L 52.828125 70.613281 L 52.824219 64.78125 L 82.003906 64.78125 L 82.007812 70.617188 L 87.835938 70.613281 L 87.839844 76.441406 L 64.5 76.449219 L 64.503906 82.273438 L 52.828125 82.273438 L 52.832031 88.113281 L 41.160156 88.113281 " fill-opacity="1" fill-rule="nonzero"/><path fill="#3a301e" d="M 41.160156 88.109375 L 41.160156 82.273438 L 46.996094 82.273438 L 46.996094 70.617188 L 52.828125 70.617188 L 52.828125 64.78125 L 82.003906 64.78125 L 82.003906 70.617188 L 87.835938 70.617188 L 87.835938 76.441406 L 64.5 76.441406 L 64.5 82.273438 L 52.828125 82.273438 L 52.828125 88.109375 L 41.160156 88.109375 " fill-opacity="1" fill-rule="nonzero"/><g clip-path="url(#2cd17ab7db)"><path fill="#3a301e" d="M 41.160156 163.910156 L 41.15625 158.074219 L 52.828125 158.066406 L 52.832031 163.910156 L 41.160156 163.910156 " fill-opacity="1" fill-rule="nonzero"/><path fill="#3a301e" d="M 52.828125 158.074219 L 52.828125 163.910156 L 41.160156 163.910156 L 41.160156 158.074219 L 52.828125 158.074219 " fill-opacity="1" fill-rule="nonzero"/></g><g clip-path="url(#24ca565798)"><path fill="#3a301e" d="M 64.5 163.910156 L 64.496094 146.417969 L 70.332031 146.410156 L 70.328125 140.582031 L 64.5 140.582031 L 64.496094 128.917969 L 70.332031 128.917969 L 70.328125 117.257812 L 64.5 117.265625 L 64.496094 111.425781 L 58.664062 111.433594 L 58.660156 105.601562 L 70.332031 105.597656 L 70.328125 99.765625 L 76.164062 99.765625 L 76.167969 105.601562 L 82.003906 105.597656 L 82 99.765625 L 87.835938 99.765625 L 87.839844 105.601562 L 99.503906 105.597656 L 99.511719 111.425781 L 87.835938 111.433594 L 87.839844 117.257812 L 82.003906 117.265625 L 82.007812 123.089844 L 76.164062 123.089844 L 76.167969 128.917969 L 93.675781 128.917969 L 93.679688 134.75 L 82.003906 134.757812 L 82.007812 140.582031 L 87.835938 140.574219 L 87.839844 146.417969 L 93.675781 146.410156 L 93.679688 152.242188 L 99.503906 152.242188 L 99.511719 158.074219 L 105.335938 158.066406 L 105.34375 163.910156 L 64.5 163.910156 " fill-opacity="1" fill-rule="nonzero"/><path fill="#3a301e" d="M 105.335938 158.074219 L 105.335938 163.910156 L 64.5 163.910156 L 64.5 146.417969 L 70.332031 146.417969 L 70.332031 140.582031 L 64.5 140.582031 L 64.5 128.917969 L 70.332031 128.917969 L 70.332031 117.257812 L 64.5 117.257812 L 64.5 111.425781 L 58.664062 111.425781 L 58.664062 105.601562 L 70.332031 105.601562 L 70.332031 99.765625 L 76.164062 99.765625 L 76.164062 105.601562 L 82.003906 105.601562 L 82.003906 99.765625 L 87.835938 99.765625 L 87.835938 105.601562 L 99.503906 105.601562 L 99.503906 111.425781 L 87.835938 111.425781 L 87.835938 117.257812 L 82.003906 117.257812 L 82.003906 123.089844 L 76.164062 123.089844 L 76.164062 128.917969 L 93.675781 128.917969 L 93.675781 134.75 L 82.003906 134.75 L 82.003906 140.582031 L 87.835938 140.582031 L 87.835938 146.417969 L 93.675781 146.417969 L 93.675781 152.242188 L 99.503906 152.242188 L 99.503906 158.074219 L 105.335938 158.074219 " fill-opacity="1" fill-rule="nonzero"/></g></svg>