<svg xmlns="http://www.w3.org/2000/svg" xmlns:xlink="http://www.w3.org/1999/xlink" width="200" zoomAndPan="magnify" viewBox="0 0 150 149.999998" height="200" preserveAspectRatio="xMidYMid meet" version="1.0"><path fill="#4caf50" d="M 3 27 C 2.601562 27 2.21875 27.078125 1.851562 27.230469 C 1.484375 27.378906 1.160156 27.597656 0.878906 27.878906 C 0.597656 28.160156 0.378906 28.484375 0.226562 28.851562 C 0.0742188 29.21875 0 29.601562 0 30 L 0 73.5 C 0 92.496094 15.503906 108 34.5 108 C 51.667969 108 65.355469 95.121094 67.949219 78.660156 C 69.800781 81.222656 71.558594 83.839844 73.644531 86.183594 C 69.914062 101.992188 65.261719 121.757812 63.011719 131.3125 C 62.960938 131.535156 62.933594 131.757812 62.933594 131.984375 C 62.929688 132.210938 62.957031 132.433594 63.003906 132.652344 C 63.054688 132.875 63.125 133.085938 63.222656 133.289062 C 63.320312 133.496094 63.441406 133.683594 63.582031 133.863281 C 63.722656 134.039062 63.878906 134.199219 64.054688 134.339844 C 64.230469 134.480469 64.421875 134.601562 64.625 134.699219 C 64.828125 134.796875 65.039062 134.871094 65.261719 134.921875 C 65.480469 134.972656 65.703125 135 65.929688 135 L 84.421875 135 C 84.761719 135 85.089844 134.945312 85.410156 134.832031 C 85.730469 134.722656 86.023438 134.5625 86.285156 134.351562 C 86.550781 134.140625 86.777344 133.894531 86.957031 133.609375 C 87.140625 133.324219 87.269531 133.015625 87.34375 132.683594 C 89.390625 124.003906 91.984375 112.992188 94.421875 102.636719 C 99.976562 105.546875 106.402344 108 114 108 C 133.824219 108 150 91.824219 150 72 C 150 52.175781 133.824219 36 114 36 C 100.054688 36 87.988281 44.210938 82.046875 56.359375 C 75.75 45.460938 71.039062 33.964844 69.320312 29.015625 C 69.21875 28.722656 69.074219 28.449219 68.886719 28.199219 C 68.699219 27.949219 68.480469 27.734375 68.226562 27.554688 C 67.972656 27.375 67.695312 27.238281 67.398438 27.140625 C 67.101562 27.046875 66.796875 27 66.484375 27 L 48 27 C 47.601562 27 47.21875 27.078125 46.851562 27.230469 C 46.484375 27.378906 46.160156 27.597656 45.878906 27.878906 C 45.597656 28.160156 45.378906 28.484375 45.226562 28.851562 C 45.074219 29.21875 45 29.601562 45 30 L 45 73.5 C 45 79.316406 40.316406 84 34.5 84 C 28.683594 84 24 79.316406 24 73.5 L 24 30 C 24 29.601562 23.921875 29.21875 23.769531 28.851562 C 23.621094 28.484375 23.402344 28.160156 23.121094 27.878906 C 22.839844 27.597656 22.515625 27.378906 22.148438 27.226562 C 21.78125 27.074219 21.398438 27 21 27 Z M 6 33 L 18 33 L 18 73.5 C 18 82.570312 25.429688 90 34.5 90 C 43.570312 90 51 82.570312 51 73.5 L 51 33 L 64.445312 33 C 66.820312 39.644531 71.835938 52.613281 79.699219 64.640625 C 80.019531 65.132812 80.449219 65.5 80.988281 65.742188 C 81.527344 65.980469 82.085938 66.054688 82.667969 65.964844 C 83.25 65.875 83.761719 65.636719 84.203125 65.246094 C 84.644531 64.855469 84.941406 64.375 85.101562 63.808594 C 88.710938 50.863281 100.472656 42 114 42 C 130.566406 42 144 55.433594 144 72 C 144 88.566406 130.566406 102 114 102 C 106.246094 102 99.417969 99.179688 93.917969 95.800781 C 93.71875 95.675781 93.503906 95.578125 93.277344 95.503906 C 93.050781 95.433594 92.820312 95.386719 92.585938 95.367188 C 92.347656 95.347656 92.113281 95.359375 91.878906 95.394531 C 91.644531 95.433594 91.417969 95.496094 91.199219 95.589844 C 90.980469 95.679688 90.773438 95.796875 90.582031 95.9375 C 90.390625 96.074219 90.21875 96.234375 90.066406 96.417969 C 89.910156 96.597656 89.78125 96.792969 89.671875 97.003906 C 89.566406 97.21875 89.484375 97.4375 89.429688 97.667969 C 86.929688 108.277344 84.261719 119.609375 82.046875 129 L 69.71875 129 C 72.203125 118.453125 76.320312 100.96875 79.804688 86.214844 C 79.917969 85.726562 79.914062 85.242188 79.785156 84.753906 C 79.65625 84.269531 79.421875 83.84375 79.078125 83.476562 C 75.203125 79.316406 71.671875 74.503906 68.535156 69.519531 C 68.363281 69.246094 68.152344 69.007812 67.898438 68.800781 C 67.648438 68.59375 67.371094 68.433594 67.066406 68.320312 C 66.761719 68.203125 66.449219 68.140625 66.125 68.125 C 65.796875 68.113281 65.480469 68.152344 65.167969 68.242188 C 64.855469 68.332031 64.566406 68.46875 64.296875 68.652344 C 64.03125 68.835938 63.796875 69.058594 63.601562 69.320312 C 63.40625 69.578125 63.257812 69.863281 63.15625 70.171875 C 63.050781 70.480469 63 70.796875 63 71.121094 L 63 73.5 C 63 89.242188 50.242188 102 34.5 102 C 18.757812 102 6 89.242188 6 73.5 Z M 114 54 C 105.800781 54 98.605469 59.566406 96.566406 67.5 C 96.355469 68.335938 95.394531 72.410156 93.890625 78.773438 C 93.757812 79.335938 93.785156 79.886719 93.96875 80.433594 C 94.15625 80.980469 94.472656 81.433594 94.921875 81.796875 C 99.464844 85.480469 106.117188 90 114 90 C 123.898438 90 132 81.898438 132 72 C 132 62.101562 123.898438 54 114 54 Z M 114 60 C 120.644531 60 126 65.355469 126 72 C 126 78.644531 120.644531 84 114 84 C 109.105469 84 104.179688 81.105469 100.210938 78.121094 C 101.300781 73.527344 102.324219 69.203125 102.378906 68.988281 C 103.746094 63.679688 108.5 60 114 60 Z M 114 60 " fill-opacity="1" fill-rule="nonzero"/></svg>